<svg id="Layer_1" data-name="Layer 1" xmlns="http://www.w3.org/2000/svg" viewBox="0 0 500 500"><defs><style>.cls-1{fill:#196cff;}.cls-2{fill:#b4cce5;}</style></defs><title>Mentimeter_Branding_Icons_2020q</title><rect x="0.74" y="490.23" width="498.52" height="10.3"/><path class="cls-1" d="M385.2,150.34a99.7,99.7,0,1,0-176.37-92.6A76.67,76.67,0,0,0,103.16,151.8a124.62,124.62,0,0,0,21.47,247.38H375.37a124.61,124.61,0,0,0,9.83-248.84Z"/><polygon class="cls-2" points="163.75 340.45 185.6 340.45 141.57 209.15 119.72 209.15 146.24 288.24 89.94 288.24 116.47 209.15 94.62 209.15 50.59 340.45 72.44 340.45 83.07 308.75 153.12 308.75 163.75 340.45"/><path class="cls-2" d="M280.75,271.54c23.32,0,20.51-31.16,20.51-31.16s-1.41-31.23-35.46-31.23H200.15v131.3h50.59c28.93,0,55.65-2.57,55.65-39.33C306.39,275.5,280.75,271.54,280.75,271.54Zm-58.56-43.47H250c22.76,0,27,8,27,16.7,0,10.09-2.77,18-27,18H222.19Zm28.55,93.53H222.19v-39c36.67,0,60.6,1.07,60.6,20.54C282.79,323.73,257.22,321.6,250.74,321.6Z"/><path class="cls-2" d="M391.24,226.06c-22,0-41.54,17.3-41.54,48.74s24.84,49,41.54,49,30.29-9.8,34.3-23.83c16.93,2.67,23.87,4.23,23.87,4.23s-8.06,38.31-57.28,38.31-65-37.27-65-67.74S344,206.69,391,206.69s56.79,38.75,56.79,38.75c-17.81,4.45-23.16,5.83-23.16,5.83S420.64,226.06,391.24,226.06Z"/></svg>