<svg id="Layer_1" data-name="Layer 1" xmlns="http://www.w3.org/2000/svg" xmlns:xlink="http://www.w3.org/1999/xlink" viewBox="0 0 800 492.31"><defs><style>.cls-1{fill:none;}.cls-2{fill:#e6e6e6;}.cls-3{fill:#101834;}.cls-4{fill:#ffb8cf;}.cls-5{fill:#005cff;}.cls-6{clip-path:url(#clip-path);}.cls-7{fill:#ff80aa;}.cls-8{fill:#ff403d;}.cls-9{fill:#fff;}</style><clipPath id="clip-path"><rect class="cls-1" x="712.07" y="84.05" width="17.91" height="17.91"/></clipPath></defs><polygon class="cls-2" points="800 20.76 800 471.55 779.24 471.55 779.24 492.31 20.76 492.31 20.76 471.55 0 471.55 0 20.76 20.76 20.76 20.76 0 779.24 0 779.24 20.76 800 20.76"/><path class="cls-2" d="M800,20.76H779.24V0A20.75,20.75,0,0,1,800,20.76Z"/><path class="cls-2" d="M779.24,471.55H800a20.76,20.76,0,0,1-20.76,20.76Z"/><path class="cls-2" d="M20.76,471.55v20.76A20.77,20.77,0,0,1,0,471.55Z"/><path class="cls-2" d="M20.76,0V20.76H0A20.76,20.76,0,0,1,20.76,0Z"/><rect class="cls-3" x="20.76" y="20.76" width="758.48" height="451.04"/><polygon class="cls-4" points="732.78 101.82 712.07 101.82 712.07 72.31 717.99 72.31 732.78 101.82"/><polygon class="cls-5" points="735.79 72.31 735.79 78.23 729.86 78.24 729.86 84.17 723.93 84.18 723.93 101.97 729.93 101.97 729.93 101.97 741.73 101.96 741.73 72.31 735.79 72.31"/><g class="cls-6"><circle class="cls-7" cx="712.07" cy="101.97" r="17.73"/><circle class="cls-8" cx="712.07" cy="101.97" r="8.84"/></g><rect class="cls-9" x="709.07" y="101.97" width="35.6" height="0.59"/><path class="cls-9" d="M76.27,108.11l-1.74-5.25H66.64l-1.74,5.25H61.81L68.1,89.44h5l6.3,18.67Zm-8.7-8h6.05l-3-9.21Z"/><path class="cls-9" d="M82.35,107.68A4.8,4.8,0,0,1,80,105.34l2-1.39a4,4,0,0,0,1.52,1.45,4.48,4.48,0,0,0,2.27.6,2.87,2.87,0,0,0,1.73-.44,1.38,1.38,0,0,0,.62-1.18,1.15,1.15,0,0,0-.56-1,6,6,0,0,0-1.68-.67l-1.36-.34a7.08,7.08,0,0,1-3.12-1.5,3,3,0,0,1-1-2.24,3.66,3.66,0,0,1,.58-2,4.08,4.08,0,0,1,1.72-1.46,6.2,6.2,0,0,1,2.74-.55,6.46,6.46,0,0,1,3.32.81,5,5,0,0,1,2,2l-2.19,1.35a3.45,3.45,0,0,0-1.29-1.25A3.79,3.79,0,0,0,85.44,97a2.36,2.36,0,0,0-1.51.42,1.26,1.26,0,0,0-.52,1,1,1,0,0,0,.55.92,6.71,6.71,0,0,0,1.72.63l1.47.37a6.41,6.41,0,0,1,2.93,1.43,3.17,3.17,0,0,1,.93,2.36,3.74,3.74,0,0,1-.68,2.24,4.39,4.39,0,0,1-1.86,1.49,6.35,6.35,0,0,1-2.66.54A7.65,7.65,0,0,1,82.35,107.68Z"/><path class="cls-9" d="M105.5,108.11h-3.63L96,101v7.07H93.12V89.44H96V101l5.6-6H105l-5.68,6Z"/><path class="cls-9" d="M129.69,95.89a4.52,4.52,0,0,1,1.2,3.37v8.85h-2.83V99.74a2.65,2.65,0,0,0-.56-1.87,2.24,2.24,0,0,0-1.68-.59,2.8,2.8,0,0,0-2,.87,3.15,3.15,0,0,0-.88,2.36v7.6h-2.83V99.74a2.6,2.6,0,0,0-.56-1.87,2.21,2.21,0,0,0-1.68-.59,2.77,2.77,0,0,0-2,.88,3.28,3.28,0,0,0-.86,2.38v7.57h-2.83V95h2.83v1.78a3.8,3.8,0,0,1,1.52-1.53,4.36,4.36,0,0,1,2.13-.52,4.42,4.42,0,0,1,2.31.6,3.44,3.44,0,0,1,1.45,1.78,5,5,0,0,1,1.77-1.75,4.77,4.77,0,0,1,2.44-.63A4.29,4.29,0,0,1,129.69,95.89Z"/><path class="cls-9" d="M143.34,95.6a6.4,6.4,0,0,1,2.45,2.5,7.15,7.15,0,0,1,.88,3.56L136,103.2a3.85,3.85,0,0,0,1.51,1.91,4.13,4.13,0,0,0,2.36.71,4.17,4.17,0,0,0,2.32-.66,4,4,0,0,0,1.52-1.8l2.58.88a6.69,6.69,0,0,1-2.53,3,7.3,7.3,0,0,1-7.43.24,6.66,6.66,0,0,1-2.49-2.48,7.09,7.09,0,0,1,0-7,6.68,6.68,0,0,1,2.48-2.47,7.26,7.26,0,0,1,7,0ZM137,98.27a4.14,4.14,0,0,0-1.32,2.64l7.74-1.07a3.46,3.46,0,0,0-3.63-2.58A4,4,0,0,0,137,98.27Z"/><path class="cls-9" d="M166.6,95v13.12h-2.75v-2a5.3,5.3,0,0,1-1.85,1.65,5.39,5.39,0,0,1-2.55.59,6.1,6.1,0,0,1-3.27-.91A6.32,6.32,0,0,1,153.9,105a7.59,7.59,0,0,1,0-6.9,6.32,6.32,0,0,1,2.28-2.47,6,6,0,0,1,3.27-.91,5.39,5.39,0,0,1,2.55.59A5.3,5.3,0,0,1,163.85,97V95Zm-4.73,10.24a3.92,3.92,0,0,0,1.45-1.49,4.49,4.49,0,0,0,.53-2.19,4.36,4.36,0,0,0-.55-2.25,3.77,3.77,0,0,0-1.45-1.46,3.91,3.91,0,0,0-1.95-.5,3.75,3.75,0,0,0-3.41,2.06,4.79,4.79,0,0,0,0,4.3,3.75,3.75,0,0,0,3.41,2.06A3.76,3.76,0,0,0,161.87,105.23Z"/><path class="cls-9" d="M180,96a4.64,4.64,0,0,1,1.35,3.56v8.56h-2.83v-7.89A3.21,3.21,0,0,0,177.9,98a2.59,2.59,0,0,0-2-.7,3.53,3.53,0,0,0-2.59,1,3.57,3.57,0,0,0-1,2.68v7.17h-2.82V95h2.82v1.89a4.12,4.12,0,0,1,1.75-1.61,5.43,5.43,0,0,1,2.47-.55A4.86,4.86,0,0,1,180,96Z"/><path class="cls-9" d="M192.68,95h3l-5.23,17.92h-2.93l1.38-4.8H186.3L182.49,95h2.93l3.6,12.59Z"/><path class="cls-9" d="M205.56,95v2.29h-4.08v6.91a1.55,1.55,0,0,0,.48,1.24,1.88,1.88,0,0,0,1.28.41,4.34,4.34,0,0,0,2-.48v2.51a5,5,0,0,1-1.13.35,6.38,6.38,0,0,1-1.24.13,3.66,3.66,0,0,1-4.19-4.16V97.28h-1.89V95h1.89V91.76l2.83-2.16V95Z"/><path class="cls-9" d="M218.14,96a4.67,4.67,0,0,1,1.34,3.56v8.56h-2.82v-7.89A3.26,3.26,0,0,0,216,98a2.63,2.63,0,0,0-2-.7,3.53,3.53,0,0,0-2.59,1,3.57,3.57,0,0,0-1,2.68v7.17h-2.82V89.44h2.82v7.44a4.12,4.12,0,0,1,1.75-1.61,5.43,5.43,0,0,1,2.47-.55A4.9,4.9,0,0,1,218.14,96Z"/><path class="cls-9" d="M222.34,92.88a1.68,1.68,0,0,1-.51-1.23,1.74,1.74,0,0,1,1.73-1.73,1.68,1.68,0,0,1,1.23.51,1.65,1.65,0,0,1,.51,1.22,1.74,1.74,0,0,1-1.74,1.74A1.64,1.64,0,0,1,222.34,92.88ZM222.15,95H225v13.12h-2.83Z"/><path class="cls-9" d="M238.38,96a4.63,4.63,0,0,1,1.34,3.56v8.56H236.9v-7.89a3.26,3.26,0,0,0-.64-2.24,2.63,2.63,0,0,0-2-.7,3.53,3.53,0,0,0-2.59,1,3.6,3.6,0,0,0-1,2.68v7.17h-2.83V95h2.83v1.89a4.1,4.1,0,0,1,1.74-1.61,5.43,5.43,0,0,1,2.47-.55A4.9,4.9,0,0,1,238.38,96Z"/><path class="cls-9" d="M255.14,95v12a6.52,6.52,0,0,1-.8,3.22,5.77,5.77,0,0,1-2.29,2.25,7,7,0,0,1-3.44.83,8,8,0,0,1-3.82-.88,5.45,5.45,0,0,1-2.37-2.43l2.48-1.2a3.89,3.89,0,0,0,1.47,1.43,4.48,4.48,0,0,0,2.24.54,3.53,3.53,0,0,0,2.72-1.06,3.92,3.92,0,0,0,1-2.75V106a5.16,5.16,0,0,1-1.8,1.51,5.43,5.43,0,0,1-2.46.54,5.93,5.93,0,0,1-3.24-.89,6.28,6.28,0,0,1-2.25-2.43,7.42,7.42,0,0,1,0-6.74,6.18,6.18,0,0,1,2.25-2.42,6.1,6.1,0,0,1,3.24-.88,5.56,5.56,0,0,1,2.52.56,5,5,0,0,1,1.82,1.57V95Zm-4.67,10a3.75,3.75,0,0,0,1.4-1.45,4.26,4.26,0,0,0,.52-2.11,4.18,4.18,0,0,0-.54-2.17,3.79,3.79,0,0,0-1.43-1.41,4,4,0,0,0-1.89-.47,3.75,3.75,0,0,0-2,.53,3.66,3.66,0,0,0-1.39,1.45,4.28,4.28,0,0,0-.49,2.07,4.08,4.08,0,0,0,1.09,2.92,3.9,3.9,0,0,0,4.72.64Z"/><path class="cls-9" d="M393.9,232.29a4.92,4.92,0,0,1,.9,2.88,5.43,5.43,0,0,1-.72,2.75,5.26,5.26,0,0,1-2.05,2,6.2,6.2,0,0,1-3.09.75,6.92,6.92,0,0,1-4.12-1.19,5.24,5.24,0,0,1-2.15-3l1.2-.45a5,5,0,0,0,1.76,2.47,5.26,5.26,0,0,0,3.28,1,4.91,4.91,0,0,0,2.43-.59,4,4,0,0,0,1.58-1.56,4.19,4.19,0,0,0,.55-2.12,3.86,3.86,0,0,0-.57-2,4.16,4.16,0,0,0-1.6-1.48,5,5,0,0,0-2.39-.55h-.85V230h.85a4.26,4.26,0,0,0,2.11-.52,3.72,3.72,0,0,0,1.4-1.41,3.81,3.81,0,0,0,.49-1.92,3.28,3.28,0,0,0-.47-1.71,3.34,3.34,0,0,0-1.38-1.27,4.67,4.67,0,0,0-2.18-.48,4.2,4.2,0,0,0-2.82.89,5.51,5.51,0,0,0-1.58,2.39l-1.2-.43a6.35,6.35,0,0,1,2-2.93,5.49,5.49,0,0,1,3.6-1.15,5.91,5.91,0,0,1,2.83.64,4.78,4.78,0,0,1,1.85,1.71,4.35,4.35,0,0,1,.65,2.34,4.68,4.68,0,0,1-.77,2.63,4.5,4.5,0,0,1-2.19,1.75A4.87,4.87,0,0,1,393.9,232.29Z"/><path class="cls-9" d="M402.64,221.44h1.28L397.07,243h-1.28Z"/><path class="cls-9" d="M405.91,236.56a10.05,10.05,0,0,1,3.32-3.39l1.9-1.3c1-.7,1.79-1.28,2.34-1.75a5.77,5.77,0,0,0,1.32-1.61,4.42,4.42,0,0,0,.5-2.14,3.48,3.48,0,0,0-1.11-2.61,4.23,4.23,0,0,0-3.05-1.07,4.34,4.34,0,0,0-3,1,5.86,5.86,0,0,0-1.68,2.63l-1.2-.43a6.32,6.32,0,0,1,2.1-3.19,5.88,5.88,0,0,1,3.84-1.27,6.11,6.11,0,0,1,2.9.67,4.85,4.85,0,0,1,1.9,1.8,4.75,4.75,0,0,1,.67,2.47,5.28,5.28,0,0,1-.6,2.53,7.47,7.47,0,0,1-1.59,2,26.41,26.41,0,0,1-2.58,2L410,234.21c-2.26,1.57-3.5,3.2-3.71,4.91h10.61v1.25H405A8.06,8.06,0,0,1,405.91,236.56Z"/><path class="cls-9" d="M139.23,257.51h4.17l-5.21,25.12h-7l-5-23.26-5,23.26h-7.07L109,257.51h4.16l4.74,23.55,5-23.55h6.71l4.92,23.4Z"/><path class="cls-9" d="M160,266.32a6.25,6.25,0,0,1,1.81,4.79v11.52H158V272a4.41,4.41,0,0,0-.86-3,3.58,3.58,0,0,0-2.73-.93,4.74,4.74,0,0,0-3.48,1.31,4.82,4.82,0,0,0-1.33,3.61v9.65h-3.81V257.51h3.81v10a5.53,5.53,0,0,1,2.35-2.17,7.39,7.39,0,0,1,3.32-.74A6.6,6.6,0,0,1,160,266.32Z"/><path class="cls-9" d="M182.7,265v17.66H179V280a6.94,6.94,0,0,1-5.93,3,8.1,8.1,0,0,1-4.4-1.22,8.52,8.52,0,0,1-3.06-3.32,10.21,10.21,0,0,1,0-9.3,8.59,8.59,0,0,1,3.06-3.32,8.18,8.18,0,0,1,4.4-1.22,7.29,7.29,0,0,1,3.43.79,7.19,7.19,0,0,1,2.5,2.23V265Zm-6.35,13.79a5.28,5.28,0,0,0,1.94-2,6.49,6.49,0,0,0,0-6,5.13,5.13,0,0,0-2-2,5.3,5.3,0,0,0-2.62-.68,5.11,5.11,0,0,0-2.69.74,5.06,5.06,0,0,0-1.9,2,6.48,6.48,0,0,0,0,5.78,5,5,0,0,0,1.9,2.05,5.27,5.27,0,0,0,5.35,0Z"/><path class="cls-9" d="M197.38,265v3.09h-5.49v9.3a2.09,2.09,0,0,0,.65,1.67,2.54,2.54,0,0,0,1.72.55,5.89,5.89,0,0,0,2.66-.64v3.37a6.78,6.78,0,0,1-1.53.47,8.66,8.66,0,0,1-1.67.18,4.91,4.91,0,0,1-5.63-5.6v-9.3h-2.55V265h2.55v-4.34l3.8-2.91V265Z"/><path class="cls-9" d="M201.15,257.54h3.67l-2.23,7.22h-3.41Z"/><path class="cls-9" d="M207.54,282.06a6.56,6.56,0,0,1-3.12-3.16l2.73-1.87a5.25,5.25,0,0,0,2,2,6,6,0,0,0,3.05.81,4,4,0,0,0,2.33-.59,1.88,1.88,0,0,0,.83-1.6,1.55,1.55,0,0,0-.76-1.33,8.09,8.09,0,0,0-2.26-.9l-1.83-.46a9.55,9.55,0,0,1-4.2-2,4.08,4.08,0,0,1-1.29-3,4.82,4.82,0,0,1,.79-2.67,5.39,5.39,0,0,1,2.31-2,8.45,8.45,0,0,1,3.68-.73,8.61,8.61,0,0,1,4.47,1.09,6.68,6.68,0,0,1,2.64,2.64L216,270.07a4.66,4.66,0,0,0-1.75-1.69,5.07,5.07,0,0,0-2.56-.64,3.21,3.21,0,0,0-2,.55,1.71,1.71,0,0,0-.7,1.39,1.39,1.39,0,0,0,.74,1.23,8.93,8.93,0,0,0,2.31.85l2,.5a8.43,8.43,0,0,1,3.94,1.92,4.26,4.26,0,0,1,1.26,3.18,5,5,0,0,1-.92,3,5.94,5.94,0,0,1-2.51,2,8.56,8.56,0,0,1-3.57.72A10.52,10.52,0,0,1,207.54,282.06Z"/><path class="cls-9" d="M239.64,265v3.09h-5.5v9.3a2.09,2.09,0,0,0,.65,1.67,2.54,2.54,0,0,0,1.72.55,5.89,5.89,0,0,0,2.66-.64v3.37a6.78,6.78,0,0,1-1.53.47A8.66,8.66,0,0,1,236,283a4.91,4.91,0,0,1-5.63-5.6v-9.3h-2.55V265h2.55v-4.34l3.8-2.91V265Z"/><path class="cls-9" d="M256.56,266.32a6.25,6.25,0,0,1,1.81,4.79v11.52h-3.8V272a4.41,4.41,0,0,0-.86-3,3.58,3.58,0,0,0-2.73-.93,4.74,4.74,0,0,0-3.48,1.31,4.82,4.82,0,0,0-1.33,3.61v9.65h-3.81V257.51h3.81v10a5.53,5.53,0,0,1,2.35-2.17,7.39,7.39,0,0,1,3.32-.74A6.6,6.6,0,0,1,256.56,266.32Z"/><path class="cls-9" d="M275.14,265.8a8.64,8.64,0,0,1,3.3,3.35,9.76,9.76,0,0,1,1.18,4.8L265.23,276a5.26,5.26,0,0,0,2,2.57,5.59,5.59,0,0,0,3.18.95,5.69,5.69,0,0,0,3.12-.88,5.4,5.4,0,0,0,2-2.43l3.49,1.19a9.14,9.14,0,0,1-3.41,4.06,9.78,9.78,0,0,1-10,.32,8.91,8.91,0,0,1-3.36-3.34,9.57,9.57,0,0,1,0-9.35,9,9,0,0,1,3.34-3.32,9.82,9.82,0,0,1,9.48,0Zm-8.49,3.59a5.6,5.6,0,0,0-1.78,3.55l10.41-1.43A4.65,4.65,0,0,0,270.4,268,5.33,5.33,0,0,0,266.65,269.39Z"/><path class="cls-9" d="M303.3,266.32a6.25,6.25,0,0,1,1.81,4.79v11.52h-3.8V272a4.41,4.41,0,0,0-.86-3,3.58,3.58,0,0,0-2.73-.93,4.78,4.78,0,0,0-3.49,1.31,4.86,4.86,0,0,0-1.32,3.61v9.65H289.1V265h3.81v2.55a5.47,5.47,0,0,1,2.35-2.17,7.39,7.39,0,0,1,3.32-.74A6.6,6.6,0,0,1,303.3,266.32Z"/><path class="cls-9" d="M321.88,265.8a8.64,8.64,0,0,1,3.3,3.35,9.76,9.76,0,0,1,1.18,4.8L312,276a5.21,5.21,0,0,0,2,2.57,5.58,5.58,0,0,0,3.17.95,5.7,5.7,0,0,0,3.13-.88,5.4,5.4,0,0,0,2-2.43l3.48,1.19a9,9,0,0,1-3.41,4.06,9.77,9.77,0,0,1-10,.32,8.83,8.83,0,0,1-3.36-3.34,9.57,9.57,0,0,1,0-9.35,8.94,8.94,0,0,1,3.34-3.32,9.82,9.82,0,0,1,9.48,0Zm-8.49,3.59a5.6,5.6,0,0,0-1.78,3.55L322,271.51a4.65,4.65,0,0,0-4.88-3.49A5.33,5.33,0,0,0,313.39,269.39Z"/><path class="cls-9" d="M345.67,282.63h-4.48l-4.6-6.31L332,282.63h-4.49l6.54-9L327.76,265h4.45l4.38,5.93,4.35-5.93h4.45l-6.32,8.65Z"/><path class="cls-9" d="M358.78,265v3.09h-5.49v9.3a2.09,2.09,0,0,0,.64,1.67,2.56,2.56,0,0,0,1.72.55,5.89,5.89,0,0,0,2.66-.64v3.37a6.84,6.84,0,0,1-1.52.47,8.82,8.82,0,0,1-1.67.18,4.92,4.92,0,0,1-5.64-5.6v-9.3h-2.55V265h2.55v-4.34l3.81-2.91V265Z"/><path class="cls-9" d="M382.49,266.32a6.25,6.25,0,0,1,1.81,4.79v11.52h-3.81V272a4.36,4.36,0,0,0-.86-3,3.55,3.55,0,0,0-2.73-.93,4.77,4.77,0,0,0-3.48,1.31,4.86,4.86,0,0,0-1.33,3.61v9.65h-3.8V257.51h3.8v10a5.55,5.55,0,0,1,2.36-2.17,7.39,7.39,0,0,1,3.32-.74A6.6,6.6,0,0,1,382.49,266.32Z"/><path class="cls-9" d="M405.23,265v17.66h-3.7V280A7,7,0,0,1,399,282.2a7.2,7.2,0,0,1-3.43.79,8.07,8.07,0,0,1-4.4-1.22,8.55,8.55,0,0,1-3.07-3.32,10.29,10.29,0,0,1,0-9.3,8.62,8.62,0,0,1,3.07-3.32,8.16,8.16,0,0,1,4.4-1.22,7.32,7.32,0,0,1,3.43.79,7.08,7.08,0,0,1,2.49,2.23V265Zm-6.36,13.79a5.21,5.21,0,0,0,1.94-2,6,6,0,0,0,.72-2.95,5.87,5.87,0,0,0-.74-3,5.17,5.17,0,0,0-2-2,5.36,5.36,0,0,0-2.62-.68,5.14,5.14,0,0,0-4.6,2.78,6.48,6.48,0,0,0,0,5.78,5,5,0,0,0,1.91,2.05,5.25,5.25,0,0,0,5.34,0Z"/><path class="cls-9" d="M412.75,281.84a8.79,8.79,0,0,1-3.3-3.33,9.75,9.75,0,0,1,0-9.41,8.89,8.89,0,0,1,3.3-3.34,9.69,9.69,0,0,1,9.87.27,8.59,8.59,0,0,1,3.28,4l-3.59,1.18a5.57,5.57,0,0,0-1.95-2.33,5.15,5.15,0,0,0-2.93-.86,4.94,4.94,0,0,0-2.67.75,5.35,5.35,0,0,0-1.9,2.07,6.46,6.46,0,0,0,0,5.85,5.32,5.32,0,0,0,1.9,2.06,4.86,4.86,0,0,0,2.67.76,5.15,5.15,0,0,0,2.93-.86,5.59,5.59,0,0,0,1.95-2.34l3.59,1.19a8.86,8.86,0,0,1-3.3,4,9.68,9.68,0,0,1-9.85.26Z"/><path class="cls-9" d="M445,282.63h-4.88l-8-9.51v9.51h-3.81V257.51h3.81v15.54l7.53-8.08h4.71l-7.65,8Z"/><path class="cls-9" d="M463,265v17.66h-3.7V280a7,7,0,0,1-2.49,2.22,7.2,7.2,0,0,1-3.43.79,8.1,8.1,0,0,1-4.4-1.22,8.55,8.55,0,0,1-3.07-3.32,10.29,10.29,0,0,1,0-9.3,8.62,8.62,0,0,1,3.07-3.32,8.18,8.18,0,0,1,4.4-1.22,7.32,7.32,0,0,1,3.43.79,7.08,7.08,0,0,1,2.49,2.23V265Zm-6.35,13.79a5.19,5.19,0,0,0,1.93-2,6.53,6.53,0,0,0,0-6,5.19,5.19,0,0,0-2-2,5.33,5.33,0,0,0-2.62-.68,5.14,5.14,0,0,0-4.6,2.78,6.48,6.48,0,0,0,0,5.78,5,5,0,0,0,1.91,2.05,5.27,5.27,0,0,0,5.35,0Z"/><path class="cls-9" d="M477.63,265v3.09h-5.49v9.3a2.06,2.06,0,0,0,.65,1.67,2.54,2.54,0,0,0,1.72.55,5.84,5.84,0,0,0,2.65-.64v3.37a6.52,6.52,0,0,1-1.52.47A8.74,8.74,0,0,1,474,283a5.79,5.79,0,0,1-4.25-1.38,5.72,5.72,0,0,1-1.39-4.22v-9.3h-2.54V265h2.54v-4.34l3.81-2.91V265Z"/><path class="cls-9" d="M494.56,266.32a6.25,6.25,0,0,1,1.81,4.79v11.52h-3.81V272a4.36,4.36,0,0,0-.86-3,3.54,3.54,0,0,0-2.72-.93,4.78,4.78,0,0,0-3.49,1.31,4.86,4.86,0,0,0-1.33,3.61v9.65h-3.8V257.51h3.8v10a5.55,5.55,0,0,1,2.36-2.17,7.39,7.39,0,0,1,3.32-.74A6.6,6.6,0,0,1,494.56,266.32Z"/><path class="cls-9" d="M503.66,281.86a8.73,8.73,0,0,1-3.34-3.32,9.82,9.82,0,0,1,0-9.48,8.8,8.8,0,0,1,3.34-3.32,10,10,0,0,1,9.49,0,8.85,8.85,0,0,1,3.36,3.32,9.82,9.82,0,0,1,0,9.48,8.78,8.78,0,0,1-3.36,3.32,10,10,0,0,1-9.49,0Zm7.48-3.12a5.31,5.31,0,0,0,2-2,6.22,6.22,0,0,0,0-5.81,5.41,5.41,0,0,0-7.45-2,5.12,5.12,0,0,0-1.94,2,6.38,6.38,0,0,0,0,5.81,5.19,5.19,0,0,0,1.94,2,5.46,5.46,0,0,0,5.49,0Z"/><path class="cls-9" d="M534.94,266.32a6.25,6.25,0,0,1,1.81,4.79v11.52H533V272a4.41,4.41,0,0,0-.86-3,3.58,3.58,0,0,0-2.73-.93,4.74,4.74,0,0,0-3.48,1.31,4.82,4.82,0,0,0-1.33,3.61v9.65h-3.81V265h3.81v2.55a5.53,5.53,0,0,1,2.35-2.17,7.39,7.39,0,0,1,3.32-.74A6.6,6.6,0,0,1,534.94,266.32Z"/><path class="cls-9" d="M547.13,257.51h3.8v25.12h-3.8Z"/><path class="cls-9" d="M558.47,281.86a8.87,8.87,0,0,1-3.34-3.32,9.82,9.82,0,0,1,0-9.48,8.94,8.94,0,0,1,3.34-3.32,9.43,9.43,0,0,1,4.74-1.2,9.56,9.56,0,0,1,4.76,1.2,8.83,8.83,0,0,1,3.35,3.32,9.82,9.82,0,0,1,0,9.48,8.76,8.76,0,0,1-3.35,3.32,9.56,9.56,0,0,1-4.76,1.2A9.43,9.43,0,0,1,558.47,281.86Zm7.49-3.12a5.36,5.36,0,0,0,1.95-2,6.22,6.22,0,0,0,0-5.81,5.41,5.41,0,0,0-7.45-2,5.1,5.1,0,0,0-1.93,2,6.38,6.38,0,0,0,0,5.81,5.17,5.17,0,0,0,1.93,2,5.48,5.48,0,0,0,5.5,0Z"/><path class="cls-9" d="M579.2,281.84a8.79,8.79,0,0,1-3.3-3.33,9.82,9.82,0,0,1,0-9.41,8.89,8.89,0,0,1,3.3-3.34,9.69,9.69,0,0,1,9.87.27,8.67,8.67,0,0,1,3.29,4l-3.59,1.18a5.66,5.66,0,0,0-2-2.33,5.12,5.12,0,0,0-2.92-.86,5,5,0,0,0-2.68.75,5.43,5.43,0,0,0-1.9,2.07,6.46,6.46,0,0,0,0,5.85,5.4,5.4,0,0,0,1.9,2.06,4.89,4.89,0,0,0,2.68.76,5.12,5.12,0,0,0,2.92-.86,5.69,5.69,0,0,0,2-2.34l3.59,1.19a9,9,0,0,1-3.3,4,9.7,9.7,0,0,1-9.86.26Z"/><path class="cls-9" d="M612,265v17.66h-3.7V280a7,7,0,0,1-2.49,2.22,7.2,7.2,0,0,1-3.43.79,8.1,8.1,0,0,1-4.4-1.22,8.55,8.55,0,0,1-3.07-3.32,10.29,10.29,0,0,1,0-9.3,8.62,8.62,0,0,1,3.07-3.32,8.18,8.18,0,0,1,4.4-1.22,7.32,7.32,0,0,1,3.43.79,7.08,7.08,0,0,1,2.49,2.23V265Zm-6.35,13.79a5.19,5.19,0,0,0,1.93-2,6.53,6.53,0,0,0,0-6,5.19,5.19,0,0,0-2-2,5.33,5.33,0,0,0-2.62-.68,5.14,5.14,0,0,0-4.6,2.78,6.48,6.48,0,0,0,0,5.78,5,5,0,0,0,1.91,2.05,5.27,5.27,0,0,0,5.35,0Z"/><path class="cls-9" d="M626.71,265v3.09h-5.49v9.3a2.06,2.06,0,0,0,.65,1.67,2.54,2.54,0,0,0,1.72.55,5.84,5.84,0,0,0,2.65-.64v3.37a6.52,6.52,0,0,1-1.52.47,8.74,8.74,0,0,1-1.67.18,4.93,4.93,0,0,1-5.64-5.6v-9.3h-2.54V265h2.54v-4.34l3.81-2.91V265Z"/><path class="cls-9" d="M629.69,262.14a2.34,2.34,0,0,1,1.65-4,2.34,2.34,0,1,1-1.65,4Zm-.25,2.83h3.8v17.66h-3.8Z"/><path class="cls-9" d="M640.78,281.86a8.87,8.87,0,0,1-3.34-3.32,9.82,9.82,0,0,1,0-9.48,8.94,8.94,0,0,1,3.34-3.32,9.43,9.43,0,0,1,4.74-1.2,9.56,9.56,0,0,1,4.76,1.2,8.83,8.83,0,0,1,3.35,3.32,9.82,9.82,0,0,1,0,9.48,8.76,8.76,0,0,1-3.35,3.32,9.56,9.56,0,0,1-4.76,1.2A9.43,9.43,0,0,1,640.78,281.86Zm7.49-3.12a5.29,5.29,0,0,0,2-2,6.22,6.22,0,0,0,0-5.81,5.22,5.22,0,0,0-2-2,5.46,5.46,0,0,0-5.49,0,5.06,5.06,0,0,0-1.94,2,6.38,6.38,0,0,0,0,5.81,5.12,5.12,0,0,0,1.94,2,5.46,5.46,0,0,0,5.49,0Z"/><path class="cls-9" d="M672.07,266.32a6.25,6.25,0,0,1,1.81,4.79v11.52h-3.8V272a4.36,4.36,0,0,0-.87-3,3.54,3.54,0,0,0-2.72-.93,4.78,4.78,0,0,0-3.49,1.31,4.86,4.86,0,0,0-1.32,3.61v9.65h-3.81V265h3.81v2.55a5.47,5.47,0,0,1,2.35-2.17,7.39,7.39,0,0,1,3.32-.74A6.6,6.6,0,0,1,672.07,266.32Z"/><path class="cls-9" d="M680.88,271.77a7.91,7.91,0,0,1,2.23-2.88l1-.87a12.87,12.87,0,0,0,2-2,3.45,3.45,0,0,0,.66-2.07,3,3,0,0,0-.93-2.28,3.66,3.66,0,0,0-2.59-.88,4.07,4.07,0,0,0-2.81,1,5.42,5.42,0,0,0-1.6,2.83L675,263.5a8.71,8.71,0,0,1,2.8-4.49,8,8,0,0,1,5.42-1.83,8.92,8.92,0,0,1,4,.86,6.33,6.33,0,0,1,2.64,2.36,6.27,6.27,0,0,1,.92,3.35,6.05,6.05,0,0,1-1,3.56,17.47,17.47,0,0,1-2.85,3.08l-1,.9a5.06,5.06,0,0,0-1.35,1.71,4.67,4.67,0,0,0-.38,1.92v.86h-3.77A10.9,10.9,0,0,1,680.88,271.77Zm-.18,10.49a2.39,2.39,0,0,1,0-3.4,2.42,2.42,0,0,1,1.74-.68,2.39,2.39,0,0,1,1.74.68,2.26,2.26,0,0,1,.7,1.69,2.3,2.3,0,0,1-.71,1.71,2.48,2.48,0,0,1-3.45,0Z"/><path class="cls-8" d="M410,322.2a5.35,5.35,0,1,0-9.13,3.78l9.13,9.13,9.13-9.13A5.35,5.35,0,1,0,410,322.2Z"/><path class="cls-9" d="M392.5,329.36v1.15h-3v4.8h-1.34v-4.8h-8.88v-1.15l7.84-12.72h2.38v12.72Zm-11.81,0h7.46V317.28Z"/></svg>