<svg id="Layer_1" data-name="Layer 1" xmlns="http://www.w3.org/2000/svg" xmlns:xlink="http://www.w3.org/1999/xlink" viewBox="0 0 800 492.31"><defs><style>.cls-1{fill:none;}.cls-2{fill:#e6e6e6;}.cls-3{fill:#fff;}.cls-4{fill:#ffb8cf;}.cls-5{fill:#005cff;}.cls-6{clip-path:url(#clip-path);}.cls-7{fill:#ff80aa;}.cls-8{fill:#ff403d;}.cls-9{fill:#101834;}.cls-10{fill:#b3cbe4;}.cls-11{fill:#196cff;}.cls-12{fill:#ff80ab;}.cls-13{fill:#ffc738;}.cls-14{fill:#6e54bd;}.cls-15{fill:#969cf5;}.cls-16{fill:#00db91;}.cls-17{fill:#cc660a;}.cls-18{fill:#0d6b45;}.cls-19{fill:#ffb9d0;}</style><clipPath id="clip-path"><rect class="cls-1" x="709.04" y="83.84" width="18.11" height="18.11"/></clipPath></defs><polygon class="cls-2" points="800 20.76 800 471.55 779.24 471.55 779.24 492.31 20.76 492.31 20.76 471.55 0 471.55 0 20.76 20.76 20.76 20.76 0 779.24 0 779.24 20.76 800 20.76"/><path class="cls-2" d="M800,20.76H779.24V0A20.77,20.77,0,0,1,800,20.76Z"/><path class="cls-2" d="M779.24,471.55H800a20.77,20.77,0,0,1-20.76,20.76Z"/><path class="cls-2" d="M20.76,471.55v20.76A20.76,20.76,0,0,1,0,471.55Z"/><path class="cls-2" d="M20.76,0V20.76H0A20.76,20.76,0,0,1,20.76,0Z"/><rect class="cls-3" x="20.75" y="20.76" width="758.48" height="451.04"/><polygon class="cls-4" points="729.99 101.8 709.04 101.8 709.04 71.96 715.03 71.96 729.99 101.8"/><polygon class="cls-5" points="733.03 71.97 733.03 77.95 727.03 77.96 727.03 83.96 721.04 83.96 721.04 101.96 727.1 101.95 727.1 101.96 739.03 101.94 739.03 71.96 733.03 71.97"/><g class="cls-6"><circle class="cls-7" cx="709.04" cy="101.95" r="17.93"/><circle class="cls-8" cx="709.04" cy="101.95" r="8.94"/></g><rect x="706.01" y="101.96" width="36" height="0.6"/><path class="cls-3" d="M724.34,435.88A7.28,7.28,0,1,0,711.91,441l12.43,12.43L736.76,441a7.28,7.28,0,1,0-12.42-5.14Z"/><path class="cls-9" d="M84.34,83.89h3.09l-3.86,18.67H78.34L74.63,85.28,71,102.56H65.7L61.86,83.89H65l3.52,17.49,3.68-17.49h5l3.65,17.39Z"/><path class="cls-9" d="M99.74,90.44A4.64,4.64,0,0,1,101.09,94v8.56H98.26v-7.9a3.24,3.24,0,0,0-.64-2.24,2.65,2.65,0,0,0-2-.69,3.5,3.5,0,0,0-2.58,1,3.6,3.6,0,0,0-1,2.68v7.18H89.19V83.89H92v7.44a4.12,4.12,0,0,1,1.75-1.61,5.39,5.39,0,0,1,2.46-.55A4.9,4.9,0,0,1,99.74,90.44Z"/><path class="cls-9" d="M116.64,89.44v13.12h-2.75v-2a5.23,5.23,0,0,1-1.85,1.66,5.39,5.39,0,0,1-2.55.58,6.09,6.09,0,0,1-3.27-.9,6.39,6.39,0,0,1-2.28-2.47,7.61,7.61,0,0,1,0-6.91,6.29,6.29,0,0,1,2.28-2.46,6,6,0,0,1,3.27-.91,5.39,5.39,0,0,1,2.55.59,5.3,5.3,0,0,1,1.85,1.65v-2Zm-4.72,10.24a4,4,0,0,0,1.44-1.5,4.48,4.48,0,0,0,.53-2.18,4.4,4.4,0,0,0-.55-2.26,3.81,3.81,0,0,0-1.45-1.45,3.92,3.92,0,0,0-2-.51,3.86,3.86,0,0,0-2,.55,3.77,3.77,0,0,0-1.41,1.52,4.77,4.77,0,0,0,0,4.29,3.79,3.79,0,0,0,3.41,2.07A3.92,3.92,0,0,0,111.92,99.68Z"/><path class="cls-9" d="M127.54,89.44v2.29h-4.08v6.91a1.55,1.55,0,0,0,.48,1.24,1.93,1.93,0,0,0,1.28.41,4.38,4.38,0,0,0,2-.48v2.51a4.69,4.69,0,0,1-1.14.34,6.36,6.36,0,0,1-1.24.14,3.65,3.65,0,0,1-4.18-4.16V91.73h-1.9V89.44h1.9V86.21l2.82-2.16v5.39Z"/><path class="cls-9" d="M137.32,102a6.58,6.58,0,0,1-2.46-2.48,7.31,7.31,0,0,1,0-7A6.65,6.65,0,0,1,137.32,90a7.24,7.24,0,0,1,7.33.2,6.43,6.43,0,0,1,2.44,3l-2.66.88A4.19,4.19,0,0,0,143,92.37a3.91,3.91,0,0,0-4.16-.08,3.93,3.93,0,0,0-1.41,1.53,4.81,4.81,0,0,0,0,4.35,3.93,3.93,0,0,0,1.41,1.53,3.63,3.63,0,0,0,2,.56,3.75,3.75,0,0,0,2.17-.64,4.13,4.13,0,0,0,1.46-1.73l2.66.88a6.64,6.64,0,0,1-2.45,3,7.16,7.16,0,0,1-7.32.2Z"/><path class="cls-9" d="M160.75,89.44v13.12H158v-2.19a4.28,4.28,0,0,1-1.79,1.81,5.31,5.31,0,0,1-2.61.64,4.39,4.39,0,0,1-4.78-4.8V89.44h2.83v7.73c0,2,.92,3,2.75,3a3.31,3.31,0,0,0,2.49-1,4.06,4.06,0,0,0,1-2.92V89.44Z"/><path class="cls-9" d="M170.88,89.22v2.59a7,7,0,0,0-1-.08,3.25,3.25,0,0,0-2.51,1,4,4,0,0,0-.94,2.79v7h-2.82V89.44h2.77v2a3.52,3.52,0,0,1,1.44-1.64,4.24,4.24,0,0,1,2.24-.6A5.07,5.07,0,0,1,170.88,89.22Z"/><path class="cls-9" d="M180.06,89.22v2.59a7.3,7.3,0,0,0-1-.08,3.25,3.25,0,0,0-2.51,1,4,4,0,0,0-.93,2.79v7H172.8V89.44h2.78v2A3.52,3.52,0,0,1,177,89.77a4.19,4.19,0,0,1,2.24-.6A5.16,5.16,0,0,1,180.06,89.22Z"/><path class="cls-9" d="M191.07,90.05a6.37,6.37,0,0,1,2.45,2.49,7.21,7.21,0,0,1,.89,3.56l-10.7,1.55a3.85,3.85,0,0,0,1.51,1.91,4.39,4.39,0,0,0,4.68,0,4.07,4.07,0,0,0,1.52-1.8l2.58.88a6.61,6.61,0,0,1-2.53,3,7.24,7.24,0,0,1-7.43.24,6.59,6.59,0,0,1-2.49-2.48,7.07,7.07,0,0,1,0-6.94A6.61,6.61,0,0,1,184,90.05a7.26,7.26,0,0,1,7,0Zm-6.31,2.67a4.24,4.24,0,0,0-1.32,2.64l7.74-1.07a3.46,3.46,0,0,0-3.63-2.59A4,4,0,0,0,184.76,92.72Z"/><path class="cls-9" d="M207,90.44A4.64,4.64,0,0,1,208.3,94v8.56h-2.83v-7.9a3.24,3.24,0,0,0-.64-2.24,2.63,2.63,0,0,0-2-.69,3.52,3.52,0,0,0-2.59,1,3.6,3.6,0,0,0-1,2.68v7.18h-2.82V89.44h2.82v1.89A4.12,4.12,0,0,1,201,89.72a5.43,5.43,0,0,1,2.47-.55A4.86,4.86,0,0,1,207,90.44Z"/><path class="cls-9" d="M218.27,89.44v2.29h-4.08v6.91a1.55,1.55,0,0,0,.48,1.24,1.93,1.93,0,0,0,1.28.41,4.38,4.38,0,0,0,2-.48v2.51a4.56,4.56,0,0,1-1.14.34,6.36,6.36,0,0,1-1.24.14,3.65,3.65,0,0,1-4.18-4.16V91.73h-1.9V89.44h1.9V86.21l2.82-2.16v5.39Z"/><path class="cls-9" d="M228.17,103.86a4.12,4.12,0,0,1-.88,2.9,3.45,3.45,0,0,1-2.64.95,5.27,5.27,0,0,1-1.12-.14,5.15,5.15,0,0,1-1-.32v-2.51a2.89,2.89,0,0,0,1.57.43,1.18,1.18,0,0,0,1-.39,2.11,2.11,0,0,0,.3-1.29v-14h2.83Zm-2.64-16.53A1.68,1.68,0,0,1,225,86.1a1.64,1.64,0,0,1,.51-1.22,1.68,1.68,0,0,1,1.23-.51,1.74,1.74,0,0,1,1.73,1.73,1.68,1.68,0,0,1-.51,1.23,1.65,1.65,0,0,1-1.22.51A1.68,1.68,0,0,1,225.53,87.33Z"/><path class="cls-9" d="M233.77,102a6.44,6.44,0,0,1-2.48-2.46,7.26,7.26,0,0,1,0-7A6.54,6.54,0,0,1,233.77,90a7.43,7.43,0,0,1,7,0,6.59,6.59,0,0,1,2.5,2.47,7.33,7.33,0,0,1,0,7,6.49,6.49,0,0,1-2.5,2.46,7.35,7.35,0,0,1-7,0Zm5.56-2.32a3.87,3.87,0,0,0,1.45-1.5,4.59,4.59,0,0,0,0-4.32,3.9,3.9,0,0,0-1.45-1.51,4.06,4.06,0,0,0-4.08,0,3.88,3.88,0,0,0-1.44,1.51,4.75,4.75,0,0,0,0,4.32,4,4,0,0,0,5.52,1.5Z"/><path class="cls-9" d="M256.88,90.08a6.29,6.29,0,0,1,2.28,2.46,7.61,7.61,0,0,1,0,6.91,6.39,6.39,0,0,1-2.28,2.47,6.09,6.09,0,0,1-3.27.9,5.32,5.32,0,0,1-2.54-.58,5.18,5.18,0,0,1-1.86-1.66v2h-2.75V83.89h2.83V91.3a5.24,5.24,0,0,1,1.84-1.57,5.42,5.42,0,0,1,2.48-.56A6,6,0,0,1,256.88,90.08Zm-1.72,9.58a3.77,3.77,0,0,0,1.41-1.52,4.77,4.77,0,0,0,0-4.29,3.77,3.77,0,0,0-1.41-1.52,3.86,3.86,0,0,0-2-.55,3.94,3.94,0,0,0-1.95.51,3.81,3.81,0,0,0-1.45,1.45,4.79,4.79,0,0,0,0,4.44,3.84,3.84,0,0,0,3.41,2A3.76,3.76,0,0,0,255.16,99.66Z"/><path class="cls-9" d="M275.29,89.44v2.29h-4.08v6.91a1.55,1.55,0,0,0,.48,1.24,1.93,1.93,0,0,0,1.28.41,4.38,4.38,0,0,0,2-.48v2.51a4.56,4.56,0,0,1-1.14.34,6.36,6.36,0,0,1-1.24.14,3.65,3.65,0,0,1-4.18-4.16V91.73h-1.9V89.44h1.9V86.21l2.82-2.16v5.39Z"/><path class="cls-9" d="M277.51,87.33A1.68,1.68,0,0,1,277,86.1a1.74,1.74,0,0,1,1.73-1.73,1.66,1.66,0,0,1,1.23.51,1.64,1.64,0,0,1,.51,1.22,1.74,1.74,0,0,1-1.74,1.74A1.65,1.65,0,0,1,277.51,87.33Zm-.19,2.11h2.83v13.12h-2.83Z"/><path class="cls-9" d="M291,89.44v2.29H287v6.91a1.55,1.55,0,0,0,.48,1.24,1.93,1.93,0,0,0,1.28.41,4.34,4.34,0,0,0,2-.48v2.51a4.6,4.6,0,0,1-1.13.34,6.45,6.45,0,0,1-1.24.14,4.28,4.28,0,0,1-3.16-1,4.23,4.23,0,0,1-1-3.13V91.73h-1.89V89.44h1.89V86.21L287,84.05v5.39Z"/><path class="cls-9" d="M293.06,83.89h2.82v18.67h-2.82Z"/><path class="cls-9" d="M308.53,90.05A6.51,6.51,0,0,1,311,92.54a7.2,7.2,0,0,1,.88,3.56l-10.7,1.55a4,4,0,0,0,1.51,1.91,4.39,4.39,0,0,0,4.68,0,4,4,0,0,0,1.52-1.8l2.59.88a6.67,6.67,0,0,1-2.53,3,7.24,7.24,0,0,1-7.43.24,6.61,6.61,0,0,1-2.5-2.48,6.87,6.87,0,0,1,2.48-9.41,7.28,7.28,0,0,1,7,0Zm-6.31,2.67a4.14,4.14,0,0,0-1.32,2.64l7.73-1.07A3.46,3.46,0,0,0,305,91.7,3.94,3.94,0,0,0,302.22,92.72Z"/><path class="cls-9" d="M331.78,83.89v18.67H329v-2a5.07,5.07,0,0,1-1.85,1.66,5.39,5.39,0,0,1-2.55.58,6.06,6.06,0,0,1-3.26-.9,6.39,6.39,0,0,1-2.28-2.47,7.61,7.61,0,0,1,0-6.91,6.29,6.29,0,0,1,2.28-2.46,6,6,0,0,1,3.26-.91,5.39,5.39,0,0,1,2.48.56A5.15,5.15,0,0,1,329,91.3V83.89Zm-4.72,15.79a3.85,3.85,0,0,0,1.44-1.5A4.37,4.37,0,0,0,329,96a4.5,4.5,0,0,0-.54-2.26A3.83,3.83,0,0,0,327,92.29a3.88,3.88,0,0,0-1.94-.51,3.83,3.83,0,0,0-2,.55,3.72,3.72,0,0,0-1.42,1.52,4.85,4.85,0,0,0,0,4.29,3.82,3.82,0,0,0,3.42,2.07A3.85,3.85,0,0,0,327.06,99.68Z"/><path class="cls-9" d="M337.41,102a6.44,6.44,0,0,1-2.48-2.46,7.26,7.26,0,0,1,0-7A6.54,6.54,0,0,1,337.41,90a7.43,7.43,0,0,1,7,0,6.59,6.59,0,0,1,2.5,2.47,7.33,7.33,0,0,1,0,7,6.49,6.49,0,0,1-2.5,2.46,7.35,7.35,0,0,1-7,0ZM343,99.66a3.87,3.87,0,0,0,1.45-1.5,4.59,4.59,0,0,0,0-4.32A3.9,3.9,0,0,0,343,92.33a4.06,4.06,0,0,0-4.08,0,3.81,3.81,0,0,0-1.44,1.51,4.75,4.75,0,0,0,0,4.32,3.78,3.78,0,0,0,1.44,1.5,4.06,4.06,0,0,0,4.08,0Z"/><path class="cls-9" d="M364,89.44h3l-5.23,17.92H358.8l1.38-4.8h-2.56l-3.81-13.12h2.93l3.6,12.58Z"/><path class="cls-9" d="M370.93,102a6.51,6.51,0,0,1-2.48-2.46,7.33,7.33,0,0,1,0-7A6.61,6.61,0,0,1,370.93,90a7,7,0,0,1,3.52-.89A7.05,7.05,0,0,1,378,90a6.56,6.56,0,0,1,2.49,2.47,7.26,7.26,0,0,1,0,7A6.47,6.47,0,0,1,378,102a7.06,7.06,0,0,1-3.54.9A7,7,0,0,1,370.93,102Zm5.56-2.32a3.9,3.9,0,0,0,1.46-1.5,4.67,4.67,0,0,0,0-4.32,4,4,0,0,0-3.5-2.06,4,4,0,0,0-2,.55A3.88,3.88,0,0,0,371,93.84a4.75,4.75,0,0,0,0,4.32,3.85,3.85,0,0,0,1.44,1.5,3.9,3.9,0,0,0,2,.55A3.85,3.85,0,0,0,376.49,99.66Z"/><path class="cls-9" d="M395.44,89.44v13.12h-2.72v-2.19a4.26,4.26,0,0,1-1.78,1.81,5.38,5.38,0,0,1-2.62.64,4.39,4.39,0,0,1-4.77-4.8V89.44h2.82v7.73c0,2,.92,3,2.75,3a3.31,3.31,0,0,0,2.5-1,4.1,4.1,0,0,0,1-2.92V89.44Z"/><path class="cls-9" d="M413.91,90.44A4.64,4.64,0,0,1,415.26,94v8.56h-2.83v-7.9a3.24,3.24,0,0,0-.64-2.24,2.65,2.65,0,0,0-2-.69,3.5,3.5,0,0,0-2.58,1,3.6,3.6,0,0,0-1,2.68v7.18h-2.83V83.89h2.83v7.44a4.12,4.12,0,0,1,1.75-1.61,5.39,5.39,0,0,1,2.46-.55A4.9,4.9,0,0,1,413.91,90.44Z"/><path class="cls-9" d="M430.81,89.44v13.12h-2.75v-2a5.23,5.23,0,0,1-1.85,1.66,5.39,5.39,0,0,1-2.55.58,6.09,6.09,0,0,1-3.27-.9,6.39,6.39,0,0,1-2.28-2.47,7.61,7.61,0,0,1,0-6.91,6.29,6.29,0,0,1,2.28-2.46,6,6,0,0,1,3.27-.91,5.39,5.39,0,0,1,2.55.59,5.3,5.3,0,0,1,1.85,1.65v-2Zm-4.72,10.24a4,4,0,0,0,1.44-1.5,4.48,4.48,0,0,0,.53-2.18,4.4,4.4,0,0,0-.55-2.26,3.81,3.81,0,0,0-1.45-1.45,3.92,3.92,0,0,0-1.95-.51,3.86,3.86,0,0,0-2,.55,3.77,3.77,0,0,0-1.41,1.52,4.77,4.77,0,0,0,0,4.29,3.79,3.79,0,0,0,3.41,2.07A3.92,3.92,0,0,0,426.09,99.68Z"/><path class="cls-9" d="M443,89.44h3l-4,13.12h-5.22l-4-13.12h3l3.63,12.21Z"/><path class="cls-9" d="M457,90.05a6.51,6.51,0,0,1,2.45,2.49,7.2,7.2,0,0,1,.88,3.56l-10.69,1.55a3.89,3.89,0,0,0,1.5,1.91,4.39,4.39,0,0,0,4.68,0,4,4,0,0,0,1.52-1.8l2.59.88a6.67,6.67,0,0,1-2.53,3,7.24,7.24,0,0,1-7.43.24,6.52,6.52,0,0,1-2.49-2.48,7.07,7.07,0,0,1,0-6.94A6.61,6.61,0,0,1,450,90.05a7.26,7.26,0,0,1,7,0Zm-6.31,2.67a4.14,4.14,0,0,0-1.32,2.64l7.73-1.07a3.46,3.46,0,0,0-3.62-2.59A4,4,0,0,0,450.69,92.72Z"/><path class="cls-9" d="M465.66,95.82a4.8,4.8,0,0,1,.55-1.61,6.61,6.61,0,0,1,1.29-1.55l.83-.74a10.25,10.25,0,0,0,1.53-1.7,3,3,0,0,0,.55-1.77,2.63,2.63,0,0,0-.84-2,3.22,3.22,0,0,0-2.25-.77,3.58,3.58,0,0,0-2.42.83,4.73,4.73,0,0,0-1.42,2.34l-2.06-.66a6.47,6.47,0,0,1,2-3.22,5.73,5.73,0,0,1,3.86-1.29,6.15,6.15,0,0,1,2.81.61A4.57,4.57,0,0,1,472,86a4.64,4.64,0,0,1,.25,4.33,6.11,6.11,0,0,1-1,1.52c-.38.43-.88.92-1.48,1.49l-.83.78a3.88,3.88,0,0,0-1.05,1.44,4.72,4.72,0,0,0-.28,1.73v.83h-2.06A12.74,12.74,0,0,1,465.66,95.82Zm0,6.54a1.35,1.35,0,0,1-.41-1,1.3,1.3,0,0,1,.4-1,1.53,1.53,0,0,1,2,0,1.3,1.3,0,0,1,.4,1,1.38,1.38,0,0,1-.4,1,1.35,1.35,0,0,1-1,.41A1.39,1.39,0,0,1,465.65,102.36Z"/><path class="cls-10" d="M715.9,438.79h-7.49a2.5,2.5,0,0,0-2.5,2.5h0v10H718.4v-10A2.5,2.5,0,0,0,715.9,438.79Z"/><circle class="cls-11" cx="712.12" cy="436.71" r="4.16"/><path d="M729.81,438.21V451.1h-2v-9.45a4.68,4.68,0,0,1-1.52,1.13,4.1,4.1,0,0,1-1.72.4v-1.82a3.25,3.25,0,0,0,1.49-.39,3.3,3.3,0,0,0,1.25-1.1,2.86,2.86,0,0,0,.5-1.66Z"/><path d="M741.84,446.42v1.77H740v2.91h-2v-2.91h-6v-1.77l5.16-8.21H740v8.21Zm-7.88,0h4V440Z"/><path class="cls-12" d="M319.23,265.61v24.11h-5v-4A7.81,7.81,0,0,1,311,289a9.81,9.81,0,0,1-4.8,1.18,8.08,8.08,0,0,1-8.78-8.82V265.61h5.2v14.21q0,5.44,5.05,5.44a6,6,0,0,0,4.58-1.94A7.48,7.48,0,0,0,314,278V265.61Z"/><path class="cls-12" d="M347.22,289.72h-6.13l-6.27-8.63-6.33,8.63h-6.12l8.92-12.35-8.53-11.76h6.08l6,8.08,5.93-8.08h6.07l-8.62,11.81Z"/><path class="cls-12" d="M383.29,255.41v34.31h-5.05v-3.63a9.62,9.62,0,0,1-3.41,3,9.8,9.8,0,0,1-4.68,1.08,11.11,11.11,0,0,1-6-1.67A11.66,11.66,0,0,1,360,284a14,14,0,0,1,0-12.69,11.69,11.69,0,0,1,4.19-4.54,11.1,11.1,0,0,1,6-1.66,9.81,9.81,0,0,1,4.56,1,9.48,9.48,0,0,1,3.38,2.89V255.41Zm-8.68,29a7.23,7.23,0,0,0,2.65-2.75,8.86,8.86,0,0,0,0-8.16,7,7,0,0,0-2.67-2.67,7.21,7.21,0,0,0-3.58-.93,7,7,0,0,0-3.67,1,7,7,0,0,0-2.6,2.8,8.83,8.83,0,0,0,0,7.89,7,7,0,0,0,6.27,3.8A7.06,7.06,0,0,0,374.61,284.43Z"/><path class="cls-12" d="M406.56,266.73a11.77,11.77,0,0,1,4.51,4.59,13.21,13.21,0,0,1,1.62,6.54L393,280.7a7.17,7.17,0,0,0,2.77,3.51,8,8,0,0,0,8.6.09,7.39,7.39,0,0,0,2.79-3.3l4.76,1.61a12.36,12.36,0,0,1-4.66,5.54,13.32,13.32,0,0,1-13.65.44,12.2,12.2,0,0,1-4.58-4.55,13,13,0,0,1,0-12.77,12.34,12.34,0,0,1,4.56-4.54,13.42,13.42,0,0,1,12.93,0ZM395,271.64a7.72,7.72,0,0,0-2.42,4.85l14.21-2q-1.51-4.75-6.66-4.76A7.29,7.29,0,0,0,395,271.64Z"/><path class="cls-12" d="M418.57,288.94a8.94,8.94,0,0,1-4.26-4.32l3.72-2.55a7.25,7.25,0,0,0,2.8,2.68,8.22,8.22,0,0,0,4.16,1.1,5.43,5.43,0,0,0,3.19-.81,2.55,2.55,0,0,0,1.12-2.18,2.07,2.07,0,0,0-1-1.81,10.38,10.38,0,0,0-3.08-1.23l-2.5-.64a12.84,12.84,0,0,1-5.74-2.74,5.56,5.56,0,0,1-1.76-4.12,6.65,6.65,0,0,1,1.08-3.65,7.47,7.47,0,0,1,3.16-2.7,11.61,11.61,0,0,1,5-1,11.81,11.81,0,0,1,6.1,1.49,9.06,9.06,0,0,1,3.61,3.61l-4,2.5a6.37,6.37,0,0,0-2.38-2.31,6.92,6.92,0,0,0-3.5-.88,4.33,4.33,0,0,0-2.77.76,2.33,2.33,0,0,0-1,1.89,1.9,1.9,0,0,0,1,1.69,11.91,11.91,0,0,0,3.16,1.15l2.69.69a11.64,11.64,0,0,1,5.39,2.62,5.81,5.81,0,0,1,1.72,4.34,6.94,6.94,0,0,1-1.25,4.11,8.26,8.26,0,0,1-3.43,2.75,11.85,11.85,0,0,1-4.88,1A14.35,14.35,0,0,1,418.57,288.94Z"/><path class="cls-12" d="M438.71,261.74a3.2,3.2,0,1,1,2.26.93A3.09,3.09,0,0,1,438.71,261.74Zm-.34,3.87h5.2v24.11h-5.2Z"/><path class="cls-12" d="M472.24,265.61v22a11.89,11.89,0,0,1-1.47,5.91,10.58,10.58,0,0,1-4.22,4.14,12.88,12.88,0,0,1-6.32,1.52,14.49,14.49,0,0,1-7-1.62,9.89,9.89,0,0,1-4.36-4.46l4.56-2.2a7.13,7.13,0,0,0,2.69,2.62,8.19,8.19,0,0,0,4.12,1,6.47,6.47,0,0,0,5-2,7.12,7.12,0,0,0,1.81-5.05V285.9a9.36,9.36,0,0,1-3.31,2.77,9.87,9.87,0,0,1-4.53,1,11,11,0,0,1-5.95-1.64,11.5,11.5,0,0,1-4.12-4.46,13.56,13.56,0,0,1,0-12.4,11.31,11.31,0,0,1,4.12-4.44,11.15,11.15,0,0,1,5.95-1.61,10.08,10.08,0,0,1,4.63,1,9,9,0,0,1,3.36,2.89v-3.43Zm-8.58,18.3a6.88,6.88,0,0,0,2.57-2.67,7.77,7.77,0,0,0,1-3.87,7.63,7.63,0,0,0-1-4,6.83,6.83,0,0,0-2.62-2.58,7.14,7.14,0,0,0-3.48-.88,7,7,0,0,0-3.65,1,6.82,6.82,0,0,0-2.55,2.67,8,8,0,0,0-.9,3.8,7.52,7.52,0,0,0,2,5.37,6.71,6.71,0,0,0,5.1,2.13A6.88,6.88,0,0,0,463.66,283.91Z"/><path class="cls-12" d="M496.91,267.45a8.54,8.54,0,0,1,2.48,6.54v15.73h-5.2V275.21A6,6,0,0,0,493,271.1a4.87,4.87,0,0,0-3.73-1.28,6.48,6.48,0,0,0-4.75,1.79,6.61,6.61,0,0,0-1.82,4.93v13.18h-5.19V265.61h5.19v3.48a7.66,7.66,0,0,1,3.21-3,10.12,10.12,0,0,1,4.54-1A9,9,0,0,1,496.91,267.45Z"/><path class="cls-12" d="M522.27,266.73a11.84,11.84,0,0,1,4.51,4.59,13.21,13.21,0,0,1,1.62,6.54l-19.65,2.84a7.17,7.17,0,0,0,2.77,3.51,8,8,0,0,0,8.6.09,7.39,7.39,0,0,0,2.79-3.3l4.75,1.61a12.34,12.34,0,0,1-4.65,5.54,13.32,13.32,0,0,1-13.65.44,12.2,12.2,0,0,1-4.58-4.55,13,13,0,0,1,0-12.77,12.34,12.34,0,0,1,4.56-4.54,13.42,13.42,0,0,1,12.93,0Zm-11.59,4.91a7.72,7.72,0,0,0-2.42,4.85l14.21-2c-1-3.17-3.24-4.76-6.67-4.76A7.28,7.28,0,0,0,510.68,271.64Z"/><path class="cls-12" d="M545.41,265.21V270a12.15,12.15,0,0,0-1.82-.15,6,6,0,0,0-4.61,1.84,7.22,7.22,0,0,0-1.71,5.12v12.94h-5.2V265.61h5.1v3.62a6.55,6.55,0,0,1,2.65-3,7.72,7.72,0,0,1,4.12-1.1A8.88,8.88,0,0,1,545.41,265.21Z"/><path class="cls-13" d="M427.43,225.33v23.35H424v-2.47a6.48,6.48,0,0,1-2.32,2.07,6.66,6.66,0,0,1-3.18.74,7.52,7.52,0,0,1-4.09-1.14,7.91,7.91,0,0,1-2.85-3.08,9.51,9.51,0,0,1,0-8.65,7.91,7.91,0,0,1,2.85-3.08,7.52,7.52,0,0,1,4.09-1.14,6.8,6.8,0,0,1,3.1.7,6.6,6.6,0,0,1,2.3,2v-9.27Zm-5.91,19.75a4.93,4.93,0,0,0,1.81-1.87,6.08,6.08,0,0,0,0-5.55,4.75,4.75,0,0,0-1.82-1.82,5,5,0,0,0-2.44-.64,4.77,4.77,0,0,0-4.27,2.59,6,6,0,0,0,0,5.37,4.84,4.84,0,0,0,6.74,1.92Z"/><path class="cls-13" d="M443.28,233a8.14,8.14,0,0,1,3.07,3.12,9.1,9.1,0,0,1,1.1,4.46l-13.38,1.93a4.9,4.9,0,0,0,1.88,2.39,5.2,5.2,0,0,0,3,.88,5.28,5.28,0,0,0,2.9-.81,5,5,0,0,0,1.9-2.26l3.24,1.11a8.46,8.46,0,0,1-3.17,3.77,9.1,9.1,0,0,1-9.29.3,8.18,8.18,0,0,1-3.12-3.11,8.85,8.85,0,0,1,0-8.69,8.36,8.36,0,0,1,3.1-3.09,9.15,9.15,0,0,1,8.81,0Zm-7.89,3.34a5.19,5.19,0,0,0-1.65,3.3l9.67-1.33a4.33,4.33,0,0,0-4.54-3.24A5,5,0,0,0,435.39,236.37Z"/><path class="cls-13" d="M451.45,248.15a6,6,0,0,1-2.9-2.94l2.54-1.73a4.91,4.91,0,0,0,1.9,1.82,5.58,5.58,0,0,0,2.84.75,3.7,3.7,0,0,0,2.16-.55,1.73,1.73,0,0,0,.77-1.49,1.41,1.41,0,0,0-.7-1.23,7.44,7.44,0,0,0-2.1-.84l-1.7-.43a8.79,8.79,0,0,1-3.91-1.87,3.77,3.77,0,0,1-1.2-2.8,4.56,4.56,0,0,1,.74-2.49,5,5,0,0,1,2.15-1.83,7.72,7.72,0,0,1,3.42-.69,8,8,0,0,1,4.15,1,6.22,6.22,0,0,1,2.46,2.45L459.33,237a4.29,4.29,0,0,0-1.62-1.57,4.74,4.74,0,0,0-2.39-.6,3,3,0,0,0-1.88.51,1.61,1.61,0,0,0-.65,1.29,1.3,1.3,0,0,0,.68,1.15,8.05,8.05,0,0,0,2.16.78l1.83.47a7.91,7.91,0,0,1,3.67,1.79,4,4,0,0,1,1.17,2.95,4.76,4.76,0,0,1-.85,2.8,5.6,5.6,0,0,1-2.34,1.87,8.1,8.1,0,0,1-3.32.67A9.67,9.67,0,0,1,451.45,248.15Z"/><path class="cls-13" d="M465.17,229.63a2.09,2.09,0,0,1-.64-1.53,2.11,2.11,0,0,1,.64-1.54,2.08,2.08,0,0,1,1.53-.63,2.15,2.15,0,0,1,2.17,2.17,2.08,2.08,0,0,1-.63,1.53,2.11,2.11,0,0,1-1.54.63A2.08,2.08,0,0,1,465.17,229.63Zm-.24,2.64h3.54v16.41h-3.54Z"/><path class="cls-13" d="M488,232.27v15a8,8,0,0,1-1,4,7.21,7.21,0,0,1-2.87,2.82,8.74,8.74,0,0,1-4.3,1A9.84,9.84,0,0,1,475,254a6.72,6.72,0,0,1-3-3l3.1-1.51a4.77,4.77,0,0,0,1.83,1.79,5.54,5.54,0,0,0,2.81.68,4.4,4.4,0,0,0,3.4-1.33,4.88,4.88,0,0,0,1.23-3.44v-1.1A6.43,6.43,0,0,1,482.2,248a6.81,6.81,0,0,1-3.08.68,7.44,7.44,0,0,1-4.06-1.12,7.79,7.79,0,0,1-2.8-3,9.26,9.26,0,0,1,0-8.45,7.77,7.77,0,0,1,2.8-3,7.6,7.6,0,0,1,4.06-1.1,7,7,0,0,1,3.15.7,6.28,6.28,0,0,1,2.28,2v-2.33Zm-5.84,12.46a4.65,4.65,0,0,0,1.75-1.82,5.27,5.27,0,0,0,.65-2.64,5.15,5.15,0,0,0-.68-2.71,4.69,4.69,0,0,0-1.78-1.76,4.91,4.91,0,0,0-2.37-.6,4.81,4.81,0,0,0-2.49.67,4.59,4.59,0,0,0-1.73,1.82,5.29,5.29,0,0,0-.62,2.58,5.1,5.1,0,0,0,1.37,3.66,4.55,4.55,0,0,0,3.47,1.45A4.7,4.7,0,0,0,482.15,244.73Z"/><path class="cls-13" d="M504.79,233.52a5.78,5.78,0,0,1,1.69,4.45v10.71h-3.54v-9.87a4.1,4.1,0,0,0-.8-2.81,3.33,3.33,0,0,0-2.54-.86,4.4,4.4,0,0,0-3.23,1.21,4.49,4.49,0,0,0-1.24,3.36v9H491.6V232.27h3.53v2.37a5.14,5.14,0,0,1,2.19-2,6.8,6.8,0,0,1,3.08-.69A6.12,6.12,0,0,1,504.79,233.52Z"/><path class="cls-13" d="M522.06,233a8.07,8.07,0,0,1,3.07,3.12,9.1,9.1,0,0,1,1.1,4.46l-13.38,1.93a4.86,4.86,0,0,0,1.89,2.39,5.15,5.15,0,0,0,3,.88,5.25,5.25,0,0,0,2.9-.81,5,5,0,0,0,1.9-2.26l3.24,1.11a8.46,8.46,0,0,1-3.17,3.77,9.1,9.1,0,0,1-9.29.3,8.18,8.18,0,0,1-3.12-3.11,8.85,8.85,0,0,1,0-8.69,8.36,8.36,0,0,1,3.1-3.09,9.15,9.15,0,0,1,8.81,0Zm-7.89,3.34a5.19,5.19,0,0,0-1.65,3.3l9.67-1.33a4.32,4.32,0,0,0-4.53-3.24A5,5,0,0,0,514.17,236.37Z"/><path class="cls-13" d="M537.81,232v3.24a8,8,0,0,0-1.24-.1,4.05,4.05,0,0,0-3.13,1.25,4.88,4.88,0,0,0-1.17,3.48v8.81h-3.54V232.27h3.47v2.47a4.41,4.41,0,0,1,1.81-2.06,5.26,5.26,0,0,1,2.8-.75A5.91,5.91,0,0,1,537.81,232Z"/><path class="cls-14" d="M191.05,319.64h15.6v3.26H204.3a6.3,6.3,0,0,1,2,2.21,6.38,6.38,0,0,1,.7,3,7.19,7.19,0,0,1-1.08,3.89,7.65,7.65,0,0,1-2.93,2.71,9.09,9.09,0,0,1-8.21,0,7.51,7.51,0,0,1-2.93-2.71,7.19,7.19,0,0,1-1.08-3.89,6.38,6.38,0,0,1,.69-3,6.3,6.3,0,0,1,2-2.21h-2.35Zm12.18,5.61a4.65,4.65,0,0,0-1.78-1.71,5.72,5.72,0,0,0-5.28,0,4.53,4.53,0,0,0-1.72,1.73,4.6,4.6,0,0,0-.61,2.32,4.5,4.5,0,0,0,2.46,4,5.63,5.63,0,0,0,5.1,0,4.45,4.45,0,0,0,1.81-1.68,4.52,4.52,0,0,0,.65-2.37A4.57,4.57,0,0,0,203.23,325.25Z"/><path class="cls-14" d="M190.8,307.59h3.08a7.32,7.32,0,0,0-.1,1.18,3.9,3.9,0,0,0,1.19,3,4.66,4.66,0,0,0,3.31,1.11h8.37v3.36h-15.6v-3.3h2.35a4.25,4.25,0,0,1-2-1.71,5,5,0,0,1-.71-2.66A5.68,5.68,0,0,1,190.8,307.59Z"/><path class="cls-14" d="M191.05,295.77h2.73v4.85H202a1.81,1.81,0,0,0,1.47-.57,2.24,2.24,0,0,0,.5-1.52,5.23,5.23,0,0,0-.58-2.35h3a6,6,0,0,1,.42,1.35,8.15,8.15,0,0,1,.15,1.48,4.34,4.34,0,0,1-4.94,5h-8.21v2.25h-2.73V304h-3.83l-2.57-3.36h6.4Z"/><path class="cls-14" d="M184.46,272.06h22.19v3.27H204.3a6.19,6.19,0,0,1,2,2.2,6.45,6.45,0,0,1,.7,3,7.18,7.18,0,0,1-1.08,3.88,7.58,7.58,0,0,1-2.93,2.71,9.09,9.09,0,0,1-8.21,0,7.44,7.44,0,0,1-2.93-2.71,7.18,7.18,0,0,1-1.08-3.88,6.41,6.41,0,0,1,.66-2.95,6.25,6.25,0,0,1,1.87-2.19h-8.81Zm18.77,5.61a4.65,4.65,0,0,0-1.78-1.71,5.29,5.29,0,0,0-2.6-.63,5.22,5.22,0,0,0-2.68.65,4.51,4.51,0,0,0-1.72,1.72,4.6,4.6,0,0,0-.61,2.32,4.5,4.5,0,0,0,2.46,4.05,5.63,5.63,0,0,0,5.1,0,4.45,4.45,0,0,0,1.81-1.68,4.52,4.52,0,0,0,.65-2.37A4.57,4.57,0,0,0,203.23,277.67Z"/><path class="cls-14" d="M188.55,268.42a2.08,2.08,0,1,1,.6-1.46A2,2,0,0,1,188.55,268.42Zm2.5.22v-3.36h15.6v3.36Z"/><path class="cls-14" d="M190.8,253.26h3.08a7.32,7.32,0,0,0-.1,1.18,3.9,3.9,0,0,0,1.19,3,4.66,4.66,0,0,0,3.31,1.11h8.37v3.36h-15.6v-3.3h2.35a4.25,4.25,0,0,1-2-1.71,5,5,0,0,1-.71-2.66A5.68,5.68,0,0,1,190.8,253.26Z"/><path class="cls-14" d="M191.78,240.17a7.62,7.62,0,0,1,3-2.91,8.53,8.53,0,0,1,4.23-1l1.84,12.71a4.6,4.6,0,0,0,2.26-1.79,5.2,5.2,0,0,0,.07-5.56,4.74,4.74,0,0,0-2.14-1.81l1-3.07a8,8,0,0,1,3.59,3,8.63,8.63,0,0,1,.28,8.83,7.91,7.91,0,0,1-2.95,3,8.44,8.44,0,0,1-8.26,0,8,8,0,0,1-2.93-3,8.72,8.72,0,0,1,0-8.37Zm3.17,7.5a5,5,0,0,0,3.14,1.57l-1.27-9.19a4.1,4.1,0,0,0-3.07,4.31A4.73,4.73,0,0,0,195,247.67Z"/><path class="cls-14" d="M206,230.62a7.78,7.78,0,0,1-2.95,2.91,8.65,8.65,0,0,1-8.3,0,7.78,7.78,0,0,1-2.95-2.91,8.54,8.54,0,0,1,.24-8.72,7.61,7.61,0,0,1,3.57-2.9l1,3.17a4.92,4.92,0,0,0-2.06,1.73,4.48,4.48,0,0,0-.76,2.58,4.3,4.3,0,0,0,.67,2.36,4.69,4.69,0,0,0,1.82,1.68,5.41,5.41,0,0,0,2.58.62,5.47,5.47,0,0,0,2.59-.62,4.76,4.76,0,0,0,1.82-1.68,4.37,4.37,0,0,0,.66-2.36,4.48,4.48,0,0,0-.76-2.58,4.86,4.86,0,0,0-2.06-1.73l1.05-3.17a7.81,7.81,0,0,1,3.56,2.92,8,8,0,0,1,1.32,4.56A8.09,8.09,0,0,1,206,230.62Z"/><path class="cls-14" d="M191.05,207.46h2.73v4.85H202a1.81,1.81,0,0,0,1.47-.57,2.24,2.24,0,0,0,.5-1.52,5.23,5.23,0,0,0-.58-2.35h3a6,6,0,0,1,.42,1.35,8.14,8.14,0,0,1,.15,1.47,4.34,4.34,0,0,1-4.94,5h-8.21v2.25h-2.73v-2.25h-3.83l-2.57-3.36h6.4Z"/><path class="cls-14" d="M206,202.55A7.83,7.83,0,0,1,203,205.5a8.72,8.72,0,0,1-8.37,0,7.69,7.69,0,0,1-2.93-2.95,8.32,8.32,0,0,1-1.07-4.19,8.41,8.41,0,0,1,1.07-4.2,7.71,7.71,0,0,1,2.93-3,8.65,8.65,0,0,1,8.37,0,7.85,7.85,0,0,1,2.93,3,8.4,8.4,0,0,1,1.06,4.2A8.31,8.31,0,0,1,206,202.55Zm-2.76-6.61a4.65,4.65,0,0,0-1.79-1.73,5.56,5.56,0,0,0-5.14,0,4.79,4.79,0,0,0-1.79,6.58,4.6,4.6,0,0,0,1.79,1.71,5.64,5.64,0,0,0,5.14,0,4.53,4.53,0,0,0,1.79-1.71,4.85,4.85,0,0,0,0-4.85Z"/><path class="cls-14" d="M190.8,178.84h3.08a7.11,7.11,0,0,0-.1,1.17,3.89,3.89,0,0,0,1.19,3,4.66,4.66,0,0,0,3.31,1.11h8.37v3.36h-15.6v-3.3h2.35a4.25,4.25,0,0,1-2-1.71,5,5,0,0,1-.71-2.66A5.54,5.54,0,0,1,190.8,178.84Z"/><path class="cls-9" d="M279.58,307.15a8.07,8.07,0,0,1,3.07,3.12,9,9,0,0,1,1.1,4.45l-13.38,1.94a4.91,4.91,0,0,0,1.89,2.39,5.24,5.24,0,0,0,2.95.88,5.18,5.18,0,0,0,2.9-.82,5,5,0,0,0,1.91-2.25l3.23,1.1a8.41,8.41,0,0,1-3.17,3.77,9,9,0,0,1-9.29.3,8.15,8.15,0,0,1-3.12-3.1,8.85,8.85,0,0,1,0-8.69,8.28,8.28,0,0,1,3.1-3.09,9.08,9.08,0,0,1,8.81,0Zm-7.89,3.34a5.24,5.24,0,0,0-1.65,3.3l9.67-1.33a4.32,4.32,0,0,0-4.53-3.24A4.93,4.93,0,0,0,271.69,310.49Z"/><path class="cls-9" d="M299.45,307.63a5.84,5.84,0,0,1,1.69,4.46V322.8H297.6v-9.88a4.07,4.07,0,0,0-.8-2.8,3.31,3.31,0,0,0-2.54-.87,4.41,4.41,0,0,0-3.23,1.22,4.47,4.47,0,0,0-1.24,3.35v9h-3.54V306.38h3.54v2.37a5.15,5.15,0,0,1,2.19-2,6.93,6.93,0,0,1,3.08-.68A6.16,6.16,0,0,1,299.45,307.63Z"/><path class="cls-9" d="M320.42,306.38v15a8,8,0,0,1-1,4,7.21,7.21,0,0,1-2.87,2.82,8.72,8.72,0,0,1-4.3,1,9.88,9.88,0,0,1-4.77-1.1,6.76,6.76,0,0,1-3-3l3.1-1.5a4.75,4.75,0,0,0,1.83,1.78,5.57,5.57,0,0,0,2.81.69,4.41,4.41,0,0,0,3.4-1.34,4.86,4.86,0,0,0,1.24-3.43v-1.1a6.34,6.34,0,0,1-2.26,1.88,6.68,6.68,0,0,1-3.08.69,7.53,7.53,0,0,1-4.06-1.12,7.89,7.89,0,0,1-2.8-3,9.24,9.24,0,0,1,0-8.44,7.7,7.7,0,0,1,2.8-3,7.6,7.6,0,0,1,4.06-1.1,6.83,6.83,0,0,1,3.15.7,6.22,6.22,0,0,1,2.29,2v-2.34Zm-5.84,12.46a4.78,4.78,0,0,0,1.76-1.81,5.38,5.38,0,0,0,.65-2.64,5.19,5.19,0,0,0-.69-2.72,4.6,4.6,0,0,0-1.78-1.75,4.91,4.91,0,0,0-2.37-.6,4.72,4.72,0,0,0-2.49.67,4.63,4.63,0,0,0-1.73,1.81,5.3,5.3,0,0,0-.62,2.59,5.06,5.06,0,0,0,1.37,3.65,4.56,4.56,0,0,0,3.47,1.46A4.62,4.62,0,0,0,314.58,318.84Z"/><path class="cls-9" d="M324.26,303.75a2.12,2.12,0,0,1-.63-1.54,2.08,2.08,0,0,1,.63-1.53,2.16,2.16,0,0,1,3.07,0,2.08,2.08,0,0,1,.63,1.53,2.12,2.12,0,0,1-.63,1.54,2.19,2.19,0,0,1-3.07,0Zm-.23,2.63h3.53V322.8H324Z"/><path class="cls-9" d="M344.33,307.63a5.84,5.84,0,0,1,1.69,4.46V322.8h-3.54v-9.88a4.07,4.07,0,0,0-.8-2.8,3.31,3.31,0,0,0-2.54-.87,4.41,4.41,0,0,0-3.23,1.22,4.47,4.47,0,0,0-1.24,3.35v9h-3.54V306.38h3.54v2.37a5.15,5.15,0,0,1,2.19-2,6.93,6.93,0,0,1,3.08-.68A6.16,6.16,0,0,1,344.33,307.63Z"/><path class="cls-9" d="M361.6,307.15a8.14,8.14,0,0,1,3.07,3.12,9.06,9.06,0,0,1,1.1,4.45l-13.38,1.94a5,5,0,0,0,1.88,2.39,5.28,5.28,0,0,0,3,.88,5.2,5.2,0,0,0,2.9-.82,4.93,4.93,0,0,0,1.9-2.25l3.24,1.1a8.47,8.47,0,0,1-3.17,3.77,9,9,0,0,1-9.29.3,8.15,8.15,0,0,1-3.12-3.1,8.85,8.85,0,0,1,0-8.69,8.28,8.28,0,0,1,3.1-3.09,9.08,9.08,0,0,1,8.81,0Zm-7.89,3.34a5.14,5.14,0,0,0-1.65,3.3l9.67-1.33a4.33,4.33,0,0,0-4.54-3.24A4.93,4.93,0,0,0,353.71,310.49Z"/><path class="cls-9" d="M380.52,307.15a8.14,8.14,0,0,1,3.07,3.12,9.06,9.06,0,0,1,1.1,4.45l-13.38,1.94a4.89,4.89,0,0,0,1.88,2.39,5.28,5.28,0,0,0,3,.88,5.2,5.2,0,0,0,2.9-.82,5,5,0,0,0,1.9-2.25l3.24,1.1a8.47,8.47,0,0,1-3.17,3.77,9,9,0,0,1-9.29.3,8.15,8.15,0,0,1-3.12-3.1,8.85,8.85,0,0,1,0-8.69,8.28,8.28,0,0,1,3.1-3.09,9.08,9.08,0,0,1,8.81,0Zm-7.89,3.34a5.2,5.2,0,0,0-1.66,3.3l9.68-1.33a4.33,4.33,0,0,0-4.54-3.24A4.93,4.93,0,0,0,372.63,310.49Z"/><path class="cls-9" d="M396.27,306.12v3.23a9.51,9.51,0,0,0-1.24-.1,4.07,4.07,0,0,0-3.13,1.25,4.93,4.93,0,0,0-1.17,3.49v8.81h-3.54V306.38h3.47v2.47a4.42,4.42,0,0,1,1.8-2.05,5.32,5.32,0,0,1,2.81-.75A5.08,5.08,0,0,1,396.27,306.12Z"/><path class="cls-15" d="M474.75,168.17v16.44h-2.42v-1.73a4.61,4.61,0,0,1-1.63,1.45,4.78,4.78,0,0,1-2.24.52,5.33,5.33,0,0,1-2.88-.8,5.68,5.68,0,0,1-2-2.17,6.78,6.78,0,0,1,0-6.08,5.64,5.64,0,0,1,2-2.18,5.33,5.33,0,0,1,2.88-.8,4.59,4.59,0,0,1,3.8,1.88v-6.53Zm-4.16,13.91a3.36,3.36,0,0,0,1.27-1.32,3.8,3.8,0,0,0,.47-1.92,3.94,3.94,0,0,0-.48-2,3.39,3.39,0,0,0-3-1.72,3.32,3.32,0,0,0-1.76.48,3.24,3.24,0,0,0-1.25,1.34,4,4,0,0,0-.45,1.89,4.05,4.05,0,0,0,.45,1.89,3.39,3.39,0,0,0,3,1.82A3.38,3.38,0,0,0,470.59,182.08Z"/><path class="cls-15" d="M485.9,173.6a5.6,5.6,0,0,1,2.17,2.2,6.39,6.39,0,0,1,.77,3.13l-9.42,1.36a3.41,3.41,0,0,0,1.33,1.68,3.61,3.61,0,0,0,2.08.62,3.68,3.68,0,0,0,2-.57,3.54,3.54,0,0,0,1.34-1.59l2.28.78a6,6,0,0,1-2.23,2.65,6.38,6.38,0,0,1-6.54.21,5.83,5.83,0,0,1-2.2-2.18,6.25,6.25,0,0,1,0-6.12,5.85,5.85,0,0,1,2.19-2.17,6.39,6.39,0,0,1,6.19,0ZM480.35,176a3.65,3.65,0,0,0-1.16,2.32l6.81-.94a3,3,0,0,0-3.19-2.28A3.49,3.49,0,0,0,480.35,176Z"/><path class="cls-15" d="M498.23,173.06h2.66l-3.55,11.55h-4.6l-3.52-11.55h2.63L495,183.81Z"/><path class="cls-15" d="M510.59,173.6a5.64,5.64,0,0,1,2.16,2.2,6.39,6.39,0,0,1,.77,3.13l-9.42,1.36a3.41,3.41,0,0,0,1.33,1.68,3.61,3.61,0,0,0,2.08.62,3.68,3.68,0,0,0,2-.57,3.54,3.54,0,0,0,1.34-1.59l2.28.78a6,6,0,0,1-2.23,2.65,6.38,6.38,0,0,1-6.54.21,5.83,5.83,0,0,1-2.2-2.18,6.25,6.25,0,0,1,0-6.12,5.85,5.85,0,0,1,2.19-2.17,6.41,6.41,0,0,1,6.2,0ZM505,176a3.65,3.65,0,0,0-1.16,2.32l6.81-.94a3,3,0,0,0-3.19-2.28A3.49,3.49,0,0,0,505,176Z"/><path class="cls-15" d="M515.28,168.17h2.49v16.44h-2.49Z"/><path class="cls-15" d="M522.7,184.11a5.82,5.82,0,0,1-2.18-2.17,6.41,6.41,0,0,1,0-6.2,5.78,5.78,0,0,1,2.18-2.18,6.57,6.57,0,0,1,6.21,0,5.76,5.76,0,0,1,2.2,2.18,6.41,6.41,0,0,1,0,6.2,5.8,5.8,0,0,1-2.2,2.17,6.57,6.57,0,0,1-6.21,0Zm4.9-2.05a3.53,3.53,0,0,0,1.28-1.32,4.1,4.1,0,0,0,0-3.81,3.53,3.53,0,0,0-1.28-1.32,3.46,3.46,0,0,0-1.8-.48,3.43,3.43,0,0,0-1.79.48,3.36,3.36,0,0,0-1.27,1.32,4.17,4.17,0,0,0,0,3.81,3.51,3.51,0,0,0,4.86,1.32Z"/><path class="cls-15" d="M542.93,173.62a5.56,5.56,0,0,1,2,2.18,6.69,6.69,0,0,1,0,6.08,5.6,5.6,0,0,1-2,2.17,5.32,5.32,0,0,1-2.87.8,4.71,4.71,0,0,1-2.19-.5,4.61,4.61,0,0,1-1.62-1.36v5.85h-2.49V173.06h2.42v1.74a4.64,4.64,0,0,1,1.63-1.46,4.79,4.79,0,0,1,2.25-.52A5.32,5.32,0,0,1,542.93,173.62Zm-1.51,8.44a3.32,3.32,0,0,0,1.24-1.33,4.05,4.05,0,0,0,.45-1.89,4,4,0,0,0-.45-1.89,3.28,3.28,0,0,0-1.24-1.34,3.49,3.49,0,0,0-3.5,0,3.5,3.5,0,0,0-1.27,1.32,4.26,4.26,0,0,0,0,3.91,3.35,3.35,0,0,0,1.28,1.28,3.45,3.45,0,0,0,1.72.45A3.29,3.29,0,0,0,541.42,182.06Z"/><path class="cls-15" d="M556.26,173.6a5.64,5.64,0,0,1,2.16,2.2,6.29,6.29,0,0,1,.77,3.13l-9.41,1.36A3.39,3.39,0,0,0,551.1,182a3.63,3.63,0,0,0,2.08.62,3.74,3.74,0,0,0,2.05-.57,3.52,3.52,0,0,0,1.33-1.59l2.28.78a5.91,5.91,0,0,1-2.23,2.65,6.38,6.38,0,0,1-6.54.21,5.8,5.8,0,0,1-2.19-2.18,6.25,6.25,0,0,1,0-6.12,5.82,5.82,0,0,1,2.18-2.17,6.41,6.41,0,0,1,6.2,0ZM550.7,176a3.7,3.7,0,0,0-1.16,2.32l6.81-.94a3,3,0,0,0-3.19-2.28A3.49,3.49,0,0,0,550.7,176Z"/><path class="cls-15" d="M567.34,172.87v2.28a5.45,5.45,0,0,0-.87-.07,2.84,2.84,0,0,0-2.2.88,3.44,3.44,0,0,0-.83,2.45v6.2H561V173.06h2.45v1.74a3.08,3.08,0,0,1,1.27-1.45,3.7,3.7,0,0,1,2-.53A3.87,3.87,0,0,1,567.34,172.87Z"/><path class="cls-16" d="M234.91,198.87a8,8,0,0,1,2.85,3.09,9.49,9.49,0,0,1,0,8.64,8,8,0,0,1-2.85,3.09,7.62,7.62,0,0,1-4.09,1.13,6.55,6.55,0,0,1-5.4-2.63v8.3h-3.54V198.07h3.44v2.47a6.48,6.48,0,0,1,2.32-2.07,6.66,6.66,0,0,1,3.18-.73A7.62,7.62,0,0,1,234.91,198.87Zm-2.15,12a4.84,4.84,0,0,0,1.77-1.9,6.06,6.06,0,0,0,0-5.38,4.73,4.73,0,0,0-4.28-2.58,4.77,4.77,0,0,0-2.46.66,4.93,4.93,0,0,0-1.81,1.87,5.61,5.61,0,0,0-.66,2.74,5.51,5.51,0,0,0,.68,2.82,4.75,4.75,0,0,0,1.82,1.82,4.92,4.92,0,0,0,2.43.63A4.82,4.82,0,0,0,232.76,210.87Z"/><path class="cls-16" d="M250.68,197.8V201a8,8,0,0,0-1.24-.1,4.11,4.11,0,0,0-3.14,1.25,5,5,0,0,0-1.16,3.49v8.81H241.6V198.07h3.47v2.47a4.42,4.42,0,0,1,1.8-2,5.29,5.29,0,0,1,2.8-.75A6.28,6.28,0,0,1,250.68,197.8Z"/><path class="cls-16" d="M255.65,213.77a8.17,8.17,0,0,1-3.11-3.09,9.13,9.13,0,0,1,0-8.8,8.17,8.17,0,0,1,3.11-3.09,9.24,9.24,0,0,1,8.82,0,8,8,0,0,1,3.12,3.09,9.06,9.06,0,0,1,0,8.8,8,8,0,0,1-3.12,3.09,9.24,9.24,0,0,1-8.82,0Zm7-2.9a5,5,0,0,0,1.81-1.89,5.78,5.78,0,0,0,0-5.4,5,5,0,0,0-6.92-1.89,4.81,4.81,0,0,0-1.8,1.89,5.93,5.93,0,0,0,0,5.4,4.81,4.81,0,0,0,1.8,1.89,5.14,5.14,0,0,0,5.11,0Z"/><path class="cls-16" d="M287.65,191.13v23.36h-3.44V212a6.56,6.56,0,0,1-2.32,2.07,6.66,6.66,0,0,1-3.18.73,7.6,7.6,0,0,1-4.09-1.13,8,8,0,0,1-2.86-3.09,9.57,9.57,0,0,1,0-8.64,8,8,0,0,1,2.86-3.09,7.6,7.6,0,0,1,4.09-1.13,6.67,6.67,0,0,1,3.1.7,6.49,6.49,0,0,1,2.3,2v-9.28Zm-5.91,19.75a4.74,4.74,0,0,0,1.8-1.86,5.53,5.53,0,0,0,.67-2.74,5.61,5.61,0,0,0-.68-2.82,4.82,4.82,0,0,0-1.82-1.82,5,5,0,0,0-2.44-.63,4.81,4.81,0,0,0-2.5.68,4.7,4.7,0,0,0-1.77,1.9,6.06,6.06,0,0,0,0,5.38,4.7,4.7,0,0,0,1.77,1.9,4.81,4.81,0,0,0,2.5.68A4.75,4.75,0,0,0,281.74,210.88Z"/><path class="cls-16" d="M306,198.07v16.42h-3.4v-2.74a5.33,5.33,0,0,1-2.24,2.27,6.74,6.74,0,0,1-3.27.8,5.49,5.49,0,0,1-6-6V198.07h3.54v9.68c0,2.47,1.14,3.7,3.44,3.7a4.1,4.1,0,0,0,3.11-1.32,5,5,0,0,0,1.26-3.65v-8.41Z"/><path class="cls-16" d="M313,213.75a8.23,8.23,0,0,1-3.07-3.1,9.16,9.16,0,0,1,0-8.74,8.23,8.23,0,0,1,3.07-3.1,9,9,0,0,1,9.18.25,8,8,0,0,1,3.05,3.75l-3.33,1.1a5.3,5.3,0,0,0-1.82-2.17,4.78,4.78,0,0,0-2.72-.8,4.59,4.59,0,0,0-2.49.7,5.12,5.12,0,0,0-1.77,1.92,6,6,0,0,0,0,5.44,5.12,5.12,0,0,0,1.77,1.92,4.68,4.68,0,0,0,2.49.7,4.78,4.78,0,0,0,2.72-.8,5.3,5.3,0,0,0,1.82-2.17l3.33,1.1a8.21,8.21,0,0,1-3.07,3.75,8.38,8.38,0,0,1-4.8,1.39A8.5,8.5,0,0,1,313,213.75Z"/><path class="cls-16" d="M337.4,198.07v2.87h-5.11v8.64a1.93,1.93,0,0,0,.6,1.55,2.36,2.36,0,0,0,1.61.52,5.44,5.44,0,0,0,2.46-.6v3.14a5.9,5.9,0,0,1-1.41.43,8.33,8.33,0,0,1-1.56.17A5.37,5.37,0,0,1,330,213.5a5.3,5.3,0,0,1-1.28-3.92v-8.64h-2.37v-2.87h2.37v-4l3.53-2.7v6.74Z"/><path class="cls-16" d="M362.36,191.13v23.36h-3.44V212a6.56,6.56,0,0,1-2.32,2.07,6.67,6.67,0,0,1-3.19.73,7.59,7.59,0,0,1-4.08-1.13,8,8,0,0,1-2.86-3.09,9.57,9.57,0,0,1,0-8.64,8,8,0,0,1,2.86-3.09,7.59,7.59,0,0,1,4.08-1.13,6.69,6.69,0,0,1,3.11.7,6.49,6.49,0,0,1,2.3,2v-9.28Zm-5.91,19.75a4.74,4.74,0,0,0,1.8-1.86,5.53,5.53,0,0,0,.67-2.74,5.61,5.61,0,0,0-.68-2.82,4.82,4.82,0,0,0-1.82-1.82A5,5,0,0,0,354,201a4.81,4.81,0,0,0-2.5.68,4.7,4.7,0,0,0-1.77,1.9,6.06,6.06,0,0,0,0,5.38,4.7,4.7,0,0,0,1.77,1.9,4.81,4.81,0,0,0,2.5.68A4.75,4.75,0,0,0,356.45,210.88Z"/><path class="cls-16" d="M378.21,198.84a8.07,8.07,0,0,1,3.07,3.12,9.06,9.06,0,0,1,1.1,4.45L369,208.35a4.82,4.82,0,0,0,1.88,2.38,5.45,5.45,0,0,0,5.86.07,5,5,0,0,0,1.9-2.25l3.24,1.1a8.47,8.47,0,0,1-3.17,3.77,9.06,9.06,0,0,1-9.3.3,8.36,8.36,0,0,1-3.12-3.1,8.94,8.94,0,0,1,0-8.7,8.28,8.28,0,0,1,3.11-3.08,9.08,9.08,0,0,1,8.81,0Zm-7.89,3.34a5.2,5.2,0,0,0-1.66,3.3l9.68-1.34a4.33,4.33,0,0,0-4.54-3.23A4.93,4.93,0,0,0,370.32,202.18Z"/><path class="cls-16" d="M386.38,214a6.07,6.07,0,0,1-2.9-2.93l2.53-1.74a5,5,0,0,0,1.91,1.82,5.55,5.55,0,0,0,2.83.75,3.64,3.64,0,0,0,2.17-.55,1.74,1.74,0,0,0,.77-1.48,1.43,1.43,0,0,0-.7-1.24,7.17,7.17,0,0,0-2.1-.83l-1.71-.44a8.74,8.74,0,0,1-3.9-1.86,3.79,3.79,0,0,1-1.2-2.81,4.49,4.49,0,0,1,.73-2.48,5.12,5.12,0,0,1,2.16-1.84,7.87,7.87,0,0,1,3.42-.68,8,8,0,0,1,4.15,1,6.06,6.06,0,0,1,2.45,2.45l-2.73,1.7a4.29,4.29,0,0,0-1.62-1.57,4.74,4.74,0,0,0-2.39-.6,2.92,2.92,0,0,0-1.88.52,1.55,1.55,0,0,0-.65,1.28,1.27,1.27,0,0,0,.68,1.15,8.26,8.26,0,0,0,2.15.79l1.84.46a8,8,0,0,1,3.67,1.79,4,4,0,0,1,1.17,3,4.79,4.79,0,0,1-.85,2.81,5.68,5.68,0,0,1-2.34,1.87,8.1,8.1,0,0,1-3.32.66A9.64,9.64,0,0,1,386.38,214Z"/><path class="cls-16" d="M400.1,195.44a2.09,2.09,0,0,1-.64-1.54,2.19,2.19,0,0,1,2.17-2.17,2.17,2.17,0,0,1,2.17,2.17,2.15,2.15,0,0,1-2.17,2.17A2.08,2.08,0,0,1,400.1,195.44Zm-.24,2.63h3.54v16.42h-3.54Z"/><path class="cls-16" d="M422.92,198.07v15a8,8,0,0,1-1,4,7.28,7.28,0,0,1-2.87,2.82,8.76,8.76,0,0,1-4.31,1,9.94,9.94,0,0,1-4.77-1.1,6.86,6.86,0,0,1-3-3l3.11-1.5a4.75,4.75,0,0,0,1.83,1.78,5.54,5.54,0,0,0,2.8.69,4.43,4.43,0,0,0,3.41-1.34,4.86,4.86,0,0,0,1.23-3.43v-1.1a6.3,6.3,0,0,1-2.25,1.88,6.7,6.7,0,0,1-3.09.69,7.52,7.52,0,0,1-4.05-1.12,7.82,7.82,0,0,1-2.8-3,9.24,9.24,0,0,1,0-8.44,7.63,7.63,0,0,1,2.8-3,7.5,7.5,0,0,1,4.05-1.1,6.9,6.9,0,0,1,3.16.7,6.19,6.19,0,0,1,2.28,2v-2.34Zm-5.84,12.46a4.76,4.76,0,0,0,1.75-1.81,5.73,5.73,0,0,0,0-5.36,4.62,4.62,0,0,0-1.79-1.75,4.85,4.85,0,0,0-2.37-.6,4.77,4.77,0,0,0-2.48.66,4.68,4.68,0,0,0-1.74,1.82,5.41,5.41,0,0,0-.61,2.59,5.1,5.1,0,0,0,1.36,3.65,4.57,4.57,0,0,0,3.47,1.45A4.64,4.64,0,0,0,417.08,210.53Z"/><path class="cls-16" d="M439.72,199.32a5.84,5.84,0,0,1,1.69,4.46v10.71h-3.54v-9.88a4.07,4.07,0,0,0-.8-2.8,3.31,3.31,0,0,0-2.54-.87,4.45,4.45,0,0,0-3.24,1.22,4.5,4.5,0,0,0-1.23,3.35v9h-3.54V198.07h3.54v2.37a5.15,5.15,0,0,1,2.19-2,6.93,6.93,0,0,1,3.08-.68A6.17,6.17,0,0,1,439.72,199.32Z"/><path class="cls-16" d="M457,198.84a8.07,8.07,0,0,1,3.07,3.12,9.06,9.06,0,0,1,1.1,4.45l-13.38,1.94a4.82,4.82,0,0,0,1.88,2.38,5.45,5.45,0,0,0,5.86.07,5,5,0,0,0,1.9-2.25l3.24,1.1a8.47,8.47,0,0,1-3.17,3.77,9,9,0,0,1-9.29.3,8.22,8.22,0,0,1-3.12-3.1,8.87,8.87,0,0,1,0-8.7,8.26,8.26,0,0,1,3.1-3.08,9.08,9.08,0,0,1,8.81,0Zm-7.89,3.34a5.2,5.2,0,0,0-1.66,3.3l9.68-1.34a4.33,4.33,0,0,0-4.54-3.23A4.93,4.93,0,0,0,449.1,202.18Z"/><path class="cls-16" d="M472.74,197.8V201a8,8,0,0,0-1.24-.1,4.07,4.07,0,0,0-3.13,1.25,4.93,4.93,0,0,0-1.17,3.49v8.81h-3.54V198.07h3.47v2.47a4.42,4.42,0,0,1,1.8-2,5.32,5.32,0,0,1,2.81-.75A6.23,6.23,0,0,1,472.74,197.8Z"/><path class="cls-17" d="M431.46,306.38h3.77l-5,16.42h-6.54l-5-16.42h3.74l4.53,15.28Z"/><path class="cls-17" d="M437.84,303.75a2.09,2.09,0,0,1-.64-1.54,2.17,2.17,0,0,1,4.34,0,2.17,2.17,0,0,1-3.7,1.54Zm-.24,2.63h3.54V322.8H437.6Z"/><path class="cls-17" d="M446.31,322.26a6.07,6.07,0,0,1-2.9-2.93l2.53-1.74a4.88,4.88,0,0,0,1.91,1.82,5.55,5.55,0,0,0,2.83.75,3.64,3.64,0,0,0,2.17-.55,1.73,1.73,0,0,0,.77-1.48,1.45,1.45,0,0,0-.7-1.24,7.17,7.17,0,0,0-2.1-.83l-1.71-.43a8.74,8.74,0,0,1-3.9-1.87A3.79,3.79,0,0,1,444,311a4.49,4.49,0,0,1,.73-2.48,5.15,5.15,0,0,1,2.15-1.84,7.93,7.93,0,0,1,3.42-.68,8,8,0,0,1,4.16,1,6.13,6.13,0,0,1,2.45,2.45l-2.73,1.7a4.29,4.29,0,0,0-1.62-1.57,4.74,4.74,0,0,0-2.39-.6,2.92,2.92,0,0,0-1.88.52,1.55,1.55,0,0,0-.65,1.28,1.27,1.27,0,0,0,.68,1.15,8.12,8.12,0,0,0,2.15.79l1.84.47a8,8,0,0,1,3.67,1.78,4,4,0,0,1,1.16,2.95,4.72,4.72,0,0,1-.85,2.81,5.59,5.59,0,0,1-2.33,1.87,8.1,8.1,0,0,1-3.32.66A9.64,9.64,0,0,1,446.31,322.26Z"/><path class="cls-17" d="M474.57,306.38V322.8h-3.4v-2.74a5.33,5.33,0,0,1-2.24,2.27,6.66,6.66,0,0,1-3.27.8,6,6,0,0,1-4.37-1.57,5.9,5.9,0,0,1-1.6-4.43V306.38h3.54v9.68q0,3.7,3.43,3.7a4.11,4.11,0,0,0,3.12-1.32,5,5,0,0,0,1.26-3.65v-8.41Z"/><path class="cls-17" d="M494.29,306.38V322.8h-3.43v-2.47a6.65,6.65,0,0,1-2.32,2.07,6.73,6.73,0,0,1-3.19.73,7.56,7.56,0,0,1-4.09-1.13,8,8,0,0,1-2.85-3.09,9.57,9.57,0,0,1,0-8.64,8,8,0,0,1,2.85-3.09,7.65,7.65,0,0,1,4.09-1.13,6.73,6.73,0,0,1,3.19.73,6.65,6.65,0,0,1,2.32,2.07v-2.47Zm-5.9,12.82a5,5,0,0,0,1.8-1.87,5.61,5.61,0,0,0,.67-2.74,5.51,5.51,0,0,0-.69-2.82,4.75,4.75,0,0,0-1.82-1.82,4.89,4.89,0,0,0-2.43-.63,4.79,4.79,0,0,0-2.5.68,4.7,4.7,0,0,0-1.77,1.9,6,6,0,0,0,0,5.38,4.7,4.7,0,0,0,1.77,1.9,4.79,4.79,0,0,0,2.5.68A4.84,4.84,0,0,0,488.39,319.2Z"/><path class="cls-17" d="M497.9,299.44h3.53V322.8H497.9Z"/><path class="cls-17" d="M527.43,299.44V322.8H524v-2.47a6.56,6.56,0,0,1-2.32,2.07,6.67,6.67,0,0,1-3.19.73A7.5,7.5,0,0,1,514.4,322a8,8,0,0,1-2.86-3.09,9.57,9.57,0,0,1,0-8.64,8,8,0,0,1,2.86-3.09,7.59,7.59,0,0,1,4.08-1.13,6.69,6.69,0,0,1,3.11.7,6.49,6.49,0,0,1,2.3,2v-9.28Zm-5.91,19.76a4.83,4.83,0,0,0,1.8-1.87,5.51,5.51,0,0,0,.67-2.74,5.61,5.61,0,0,0-.68-2.82,4.89,4.89,0,0,0-1.82-1.82,5,5,0,0,0-2.44-.63,4.81,4.81,0,0,0-2.5.68,4.7,4.7,0,0,0-1.77,1.9,6.06,6.06,0,0,0,0,5.38,4.7,4.7,0,0,0,1.77,1.9,4.94,4.94,0,0,0,5,0Z"/><path class="cls-17" d="M543.28,307.15a8.14,8.14,0,0,1,3.07,3.12,9.06,9.06,0,0,1,1.1,4.45l-13.38,1.94a4.83,4.83,0,0,0,1.88,2.39,5.28,5.28,0,0,0,3,.88,5.2,5.2,0,0,0,2.9-.82,5,5,0,0,0,1.9-2.25L547,318a8.47,8.47,0,0,1-3.17,3.77,9.06,9.06,0,0,1-9.3.3,8.29,8.29,0,0,1-3.12-3.1,8.92,8.92,0,0,1,0-8.69,8.31,8.31,0,0,1,3.11-3.09,9.08,9.08,0,0,1,8.81,0Zm-7.9,3.34a5.24,5.24,0,0,0-1.65,3.3l9.68-1.33a4.33,4.33,0,0,0-4.54-3.24A5,5,0,0,0,535.38,310.49Z"/><path class="cls-17" d="M551.45,322.26a6.07,6.07,0,0,1-2.9-2.93l2.53-1.74a4.88,4.88,0,0,0,1.91,1.82,5.55,5.55,0,0,0,2.83.75,3.64,3.64,0,0,0,2.17-.55,1.73,1.73,0,0,0,.77-1.48,1.43,1.43,0,0,0-.7-1.24,7.17,7.17,0,0,0-2.1-.83l-1.71-.43a8.74,8.74,0,0,1-3.9-1.87,3.79,3.79,0,0,1-1.2-2.81,4.49,4.49,0,0,1,.73-2.48,5.12,5.12,0,0,1,2.16-1.84,7.87,7.87,0,0,1,3.42-.68,8,8,0,0,1,4.15,1,6.06,6.06,0,0,1,2.45,2.45l-2.73,1.7a4.29,4.29,0,0,0-1.62-1.57,4.74,4.74,0,0,0-2.39-.6,2.92,2.92,0,0,0-1.88.52,1.55,1.55,0,0,0-.65,1.28,1.27,1.27,0,0,0,.68,1.15,8.26,8.26,0,0,0,2.15.79l1.84.47a7.91,7.91,0,0,1,3.67,1.78,4,4,0,0,1,1.17,2.95,4.79,4.79,0,0,1-.85,2.81,5.68,5.68,0,0,1-2.34,1.87,8.1,8.1,0,0,1-3.32.66A9.64,9.64,0,0,1,551.45,322.26Z"/><path class="cls-17" d="M565.17,303.75a2.09,2.09,0,0,1-.64-1.54A2.19,2.19,0,0,1,566.7,300a2.17,2.17,0,0,1,2.17,2.17,2.15,2.15,0,0,1-2.17,2.17A2.08,2.08,0,0,1,565.17,303.75Zm-.24,2.63h3.54V322.8h-3.54Z"/><path class="cls-17" d="M588,306.38v15a8,8,0,0,1-1,4,7.28,7.28,0,0,1-2.87,2.82,8.76,8.76,0,0,1-4.31,1,9.94,9.94,0,0,1-4.77-1.1,6.81,6.81,0,0,1-3-3l3.11-1.5a4.75,4.75,0,0,0,1.83,1.78,5.54,5.54,0,0,0,2.8.69,4.43,4.43,0,0,0,3.41-1.34,4.86,4.86,0,0,0,1.23-3.43v-1.1a6.3,6.3,0,0,1-2.25,1.88,6.7,6.7,0,0,1-3.09.69,7.52,7.52,0,0,1-4.05-1.12,7.82,7.82,0,0,1-2.8-3,9.24,9.24,0,0,1,0-8.44,7.55,7.55,0,0,1,6.85-4.12,6.9,6.9,0,0,1,3.16.7,6.19,6.19,0,0,1,2.28,2v-2.34Zm-5.84,12.46A4.76,4.76,0,0,0,583.9,317a5.73,5.73,0,0,0,0-5.36,4.62,4.62,0,0,0-1.79-1.75,4.85,4.85,0,0,0-2.37-.6,4.68,4.68,0,0,0-2.48.67,4.59,4.59,0,0,0-1.74,1.81,5.41,5.41,0,0,0-.61,2.59,5.1,5.1,0,0,0,1.36,3.65,4.58,4.58,0,0,0,3.47,1.46A4.65,4.65,0,0,0,582.15,318.84Z"/><path class="cls-17" d="M604.79,307.63a5.84,5.84,0,0,1,1.69,4.46V322.8h-3.54v-9.88a4.07,4.07,0,0,0-.8-2.8,3.31,3.31,0,0,0-2.54-.87,4.45,4.45,0,0,0-3.24,1.22,4.5,4.5,0,0,0-1.23,3.35v9h-3.54V306.38h3.54v2.37a5.15,5.15,0,0,1,2.19-2,6.93,6.93,0,0,1,3.08-.68A6.17,6.17,0,0,1,604.79,307.63Z"/><path class="cls-17" d="M622.06,307.15a8.14,8.14,0,0,1,3.07,3.12,9.06,9.06,0,0,1,1.1,4.45l-13.38,1.94a4.89,4.89,0,0,0,1.88,2.39,5.28,5.28,0,0,0,3,.88,5.2,5.2,0,0,0,2.9-.82,5,5,0,0,0,1.9-2.25l3.24,1.1a8.47,8.47,0,0,1-3.17,3.77,9.06,9.06,0,0,1-9.3.3,8.19,8.19,0,0,1-3.11-3.1,8.85,8.85,0,0,1,0-8.69,8.28,8.28,0,0,1,3.1-3.09,9.08,9.08,0,0,1,8.81,0Zm-7.89,3.34a5.2,5.2,0,0,0-1.66,3.3l9.68-1.33a4.33,4.33,0,0,0-4.54-3.24A4.93,4.93,0,0,0,614.17,310.49Z"/><path class="cls-17" d="M637.81,306.12v3.23a9.51,9.51,0,0,0-1.24-.1,4.07,4.07,0,0,0-3.13,1.25,4.93,4.93,0,0,0-1.17,3.49v8.81h-3.54V306.38h3.47v2.47a4.42,4.42,0,0,1,1.8-2.05,5.32,5.32,0,0,1,2.81-.75A5.08,5.08,0,0,1,637.81,306.12Z"/><path class="cls-18" d="M360.5,342.32v9.95a5.46,5.46,0,0,1-.66,2.68,4.78,4.78,0,0,1-1.91,1.87,5.75,5.75,0,0,1-2.85.69,6.51,6.51,0,0,1-3.17-.74,4.47,4.47,0,0,1-2-2l2.06-1a3.32,3.32,0,0,0,1.22,1.19,3.78,3.78,0,0,0,1.87.45,2.94,2.94,0,0,0,2.26-.89,3.25,3.25,0,0,0,.82-2.28v-.73a4.23,4.23,0,0,1-1.5,1.25,4.52,4.52,0,0,1-2.05.46,4.93,4.93,0,0,1-2.69-.75,5.15,5.15,0,0,1-1.86-2,6.13,6.13,0,0,1,0-5.61,5.15,5.15,0,0,1,1.86-2,5.09,5.09,0,0,1,2.69-.73,4.56,4.56,0,0,1,2.09.47,4,4,0,0,1,1.52,1.31v-1.56Zm-3.87,8.28a3.22,3.22,0,0,0,1.16-1.21,3.8,3.8,0,0,0,0-3.55,3.18,3.18,0,0,0-1.19-1.17,3.3,3.3,0,0,0-1.57-.4,3.1,3.1,0,0,0-1.65.45,3,3,0,0,0-1.15,1.21,3.49,3.49,0,0,0-.41,1.71,3.41,3.41,0,0,0,.9,2.43,3.06,3.06,0,0,0,2.31,1A3.12,3.12,0,0,0,356.63,350.6Z"/><path class="cls-18" d="M368.93,342.15v2.15a5,5,0,0,0-.82-.07,2.73,2.73,0,0,0-2.09.83,3.31,3.31,0,0,0-.77,2.32v5.85H362.9V342.32h2.3V344a2.93,2.93,0,0,1,1.2-1.36,3.88,3.88,0,0,1,2.53-.45Z"/><path class="cls-18" d="M380.65,342.32v10.91h-2.28v-1.64a4.28,4.28,0,0,1-3.66,1.86,5,5,0,0,1-2.71-.75,5.36,5.36,0,0,1-1.9-2.05,6.31,6.31,0,0,1,0-5.74,5.22,5.22,0,0,1,1.9-2.05,5,5,0,0,1,2.71-.76,4.54,4.54,0,0,1,2.12.49,4.48,4.48,0,0,1,1.54,1.37v-1.64Zm-3.92,8.51a3.09,3.09,0,0,0,1.19-1.24,3.6,3.6,0,0,0,.45-1.81,3.74,3.74,0,0,0-.46-1.88,3.1,3.1,0,0,0-1.21-1.2,3.26,3.26,0,0,0-1.61-.43,3.23,3.23,0,0,0-1.67.46,3.1,3.1,0,0,0-1.17,1.26,3.84,3.84,0,0,0-.42,1.79,3.8,3.8,0,0,0,.42,1.78,3.1,3.1,0,0,0,1.17,1.26,3.24,3.24,0,0,0,3.31,0Z"/><path class="cls-18" d="M391.59,342.86a5.27,5.27,0,0,1,1.89,2.05,6.31,6.31,0,0,1,0,5.74,5.41,5.41,0,0,1-1.89,2.05,5.06,5.06,0,0,1-2.72.75,4.46,4.46,0,0,1-2.06-.47,4.3,4.3,0,0,1-1.53-1.28v5.52h-2.35v-14.9h2.28V344a4.48,4.48,0,0,1,1.54-1.37,4.54,4.54,0,0,1,2.12-.49A5,5,0,0,1,391.59,342.86Zm-1.43,8a3.1,3.1,0,0,0,1.17-1.26,3.8,3.8,0,0,0,.42-1.78,3.84,3.84,0,0,0-.42-1.79,3.1,3.1,0,0,0-1.17-1.26,3.23,3.23,0,0,0-1.67-.46,3.22,3.22,0,0,0-2.83,1.69,3.64,3.64,0,0,0-.45,1.82,3.73,3.73,0,0,0,.46,1.87,3.13,3.13,0,0,0,1.21,1.21,3.25,3.25,0,0,0,1.61.42A3.13,3.13,0,0,0,390.16,350.82Z"/><path class="cls-18" d="M404.79,343.16a3.83,3.83,0,0,1,1.12,2.95v7.12h-2.35v-6.56a2.65,2.65,0,0,0-.53-1.86,2.15,2.15,0,0,0-1.68-.58,2.91,2.91,0,0,0-2.15.81,3,3,0,0,0-.82,2.23v6H396V337.71h2.35v6.19a3.41,3.41,0,0,1,1.45-1.34,4.48,4.48,0,0,1,2.05-.46A4,4,0,0,1,404.79,343.16Z"/><path class="cls-18" d="M408.28,340.57a1.44,1.44,0,0,1,0-2,1.42,1.42,0,0,1,2,0,1.44,1.44,0,0,1-2,2Zm-.15,1.75h2.35v10.91h-2.35Z"/><path class="cls-18" d="M415.1,352.74a5.38,5.38,0,0,1-2-2.06,6.07,6.07,0,0,1,0-5.81,5.38,5.38,0,0,1,2-2.06,6,6,0,0,1,6.09.17,5.29,5.29,0,0,1,2,2.49l-2.22.73a3.53,3.53,0,0,0-1.2-1.44,3.21,3.21,0,0,0-1.81-.53,3,3,0,0,0-1.65.47,3.29,3.29,0,0,0-1.18,1.27,4,4,0,0,0,0,3.61,3.31,3.31,0,0,0,1.18,1.28,3,3,0,0,0,1.65.46,3.21,3.21,0,0,0,1.81-.53,3.4,3.4,0,0,0,1.2-1.44l2.22.73a5.43,5.43,0,0,1-2,2.49,5.54,5.54,0,0,1-3.19.92A5.66,5.66,0,0,1,415.1,352.74Z"/><path class="cls-18" d="M439.64,337.71v15.52h-2.28v-1.64a4.28,4.28,0,0,1-3.66,1.86,5,5,0,0,1-2.71-.75,5.36,5.36,0,0,1-1.9-2.05,6.4,6.4,0,0,1,0-5.74,5.22,5.22,0,0,1,1.9-2.05,5,5,0,0,1,2.71-.76,4.44,4.44,0,0,1,2.06.47,4.19,4.19,0,0,1,1.53,1.31v-6.17Zm-3.92,13.12a3.18,3.18,0,0,0,1.2-1.24,3.7,3.7,0,0,0,.44-1.81,3.64,3.64,0,0,0-.46-1.88,3.14,3.14,0,0,0-1.2-1.2,3.33,3.33,0,0,0-1.62-.43,3.16,3.16,0,0,0-1.66.46,3.05,3.05,0,0,0-1.18,1.26,3.84,3.84,0,0,0-.42,1.79,3.8,3.8,0,0,0,.42,1.78,3.19,3.19,0,0,0,2.84,1.72A3.14,3.14,0,0,0,435.72,350.83Z"/><path class="cls-18" d="M450.17,342.83a5.43,5.43,0,0,1,2,2.08,6.06,6.06,0,0,1,.73,2.95l-8.89,1.29a3.25,3.25,0,0,0,1.25,1.58,3.4,3.4,0,0,0,2,.59,3.48,3.48,0,0,0,1.93-.54,3.4,3.4,0,0,0,1.27-1.5l2.15.73a5.65,5.65,0,0,1-2.11,2.51,6,6,0,0,1-6.17.2,5.46,5.46,0,0,1-2.07-2.06,5.71,5.71,0,0,1,2.06-7.83,6.08,6.08,0,0,1,5.85,0Zm-5.24,2.22a3.45,3.45,0,0,0-1.1,2.19l6.43-.88a2.88,2.88,0,0,0-3-2.15A3.28,3.28,0,0,0,444.93,345.05Z"/><path class="cls-18" d="M455.6,352.87a4,4,0,0,1-1.93-1.95l1.68-1.15a3.3,3.3,0,0,0,1.27,1.21,3.7,3.7,0,0,0,1.88.5,2.47,2.47,0,0,0,1.44-.37,1.14,1.14,0,0,0,.51-1,1,1,0,0,0-.47-.83,4.86,4.86,0,0,0-1.39-.55l-1.13-.29a5.73,5.73,0,0,1-2.59-1.24,2.47,2.47,0,0,1-.8-1.86,3,3,0,0,1,.48-1.65,3.45,3.45,0,0,1,1.43-1.22,6,6,0,0,1,5,.22,4,4,0,0,1,1.63,1.63l-1.81,1.13a2.85,2.85,0,0,0-1.08-1,3.07,3.07,0,0,0-1.58-.4,2,2,0,0,0-1.25.34,1.07,1.07,0,0,0-.44.86.84.84,0,0,0,.46.76,5.12,5.12,0,0,0,1.43.52l1.22.31A5.25,5.25,0,0,1,462,348a2.62,2.62,0,0,1,.78,2,3.11,3.11,0,0,1-.57,1.86,3.63,3.63,0,0,1-1.55,1.24,5.24,5.24,0,0,1-2.2.45A6.41,6.41,0,0,1,455.6,352.87Z"/><path class="cls-18" d="M464.7,340.57a1.44,1.44,0,0,1,0-2,1.42,1.42,0,0,1,2,0,1.44,1.44,0,0,1-2,2Zm-.15,1.75h2.35v10.91h-2.35Z"/><path class="cls-18" d="M479.86,342.32v9.95a5.46,5.46,0,0,1-.66,2.68,4.84,4.84,0,0,1-1.91,1.87,5.79,5.79,0,0,1-2.86.69,6.57,6.57,0,0,1-3.17-.74,4.5,4.5,0,0,1-2-2l2.06-1a3.25,3.25,0,0,0,1.22,1.19,3.71,3.71,0,0,0,1.86.45,2.92,2.92,0,0,0,2.26-.89,3.21,3.21,0,0,0,.82-2.28v-.73a4.19,4.19,0,0,1-1.49,1.25,4.52,4.52,0,0,1-2,.46,4.91,4.91,0,0,1-2.69-.75,5.1,5.1,0,0,1-1.87-2,6.21,6.21,0,0,1,0-5.61A5,5,0,0,1,474,342.1a4.56,4.56,0,0,1,2.09.47,4,4,0,0,1,1.52,1.31v-1.56ZM476,350.6a3.17,3.17,0,0,0,1.17-1.21,3.8,3.8,0,0,0,0-3.55,3.18,3.18,0,0,0-1.19-1.17,3.3,3.3,0,0,0-1.57-.4,3.17,3.17,0,0,0-2.81,1.66,3.6,3.6,0,0,0-.41,1.71,3.42,3.42,0,0,0,.91,2.43,3.25,3.25,0,0,0,3.92.53Z"/><path class="cls-18" d="M491,343.16a3.83,3.83,0,0,1,1.12,2.95v7.12h-2.35v-6.56a2.7,2.7,0,0,0-.53-1.86,2.19,2.19,0,0,0-1.69-.58,2.9,2.9,0,0,0-2.14.81,3,3,0,0,0-.82,2.23v6h-2.35V342.32h2.35v1.58a3.35,3.35,0,0,1,1.45-1.34,4.45,4.45,0,0,1,2.05-.46A4.06,4.06,0,0,1,491,343.16Z"/><path class="cls-18" d="M502.49,342.83a5.43,5.43,0,0,1,2,2.08,6,6,0,0,1,.73,2.95l-8.89,1.29a3.25,3.25,0,0,0,1.25,1.58,3.41,3.41,0,0,0,2,.59,3.47,3.47,0,0,0,1.92-.54,3.28,3.28,0,0,0,1.27-1.5l2.15.73a5.65,5.65,0,0,1-2.11,2.51,6,6,0,0,1-6.17.2,5.46,5.46,0,0,1-2.07-2.06,5.87,5.87,0,0,1,0-5.78,5.63,5.63,0,0,1,2.06-2.05,6.08,6.08,0,0,1,5.85,0Zm-5.24,2.22a3.45,3.45,0,0,0-1.1,2.19l6.43-.88a2.87,2.87,0,0,0-3-2.15A3.28,3.28,0,0,0,497.25,345.05Z"/><path class="cls-18" d="M513,342.15v2.15a5,5,0,0,0-.82-.07,2.71,2.71,0,0,0-2.08.83,3.27,3.27,0,0,0-.78,2.32v5.85h-2.35V342.32h2.31V344a3,3,0,0,1,1.19-1.36,3.88,3.88,0,0,1,2.53-.45Z"/><path class="cls-11" d="M229.63,234.75a5.09,5.09,0,0,1,1.82,2,6,6,0,0,1,0,5.53,5.19,5.19,0,0,1-1.82,2A4.89,4.89,0,0,1,227,245a4.22,4.22,0,0,1-3.46-1.69v5.32h-2.26V234.23h2.2v1.58a4.15,4.15,0,0,1,1.48-1.32,4.32,4.32,0,0,1,2-.47A4.81,4.81,0,0,1,229.63,234.75Zm-1.38,7.67a3,3,0,0,0,1.13-1.22,3.79,3.79,0,0,0,0-3.43,3,3,0,0,0-1.13-1.22,3.06,3.06,0,0,0-1.6-.44,3,3,0,0,0-1.58.43,3.06,3.06,0,0,0-1.15,1.19,3.53,3.53,0,0,0-.43,1.76,3.58,3.58,0,0,0,.44,1.8,3,3,0,0,0,1.16,1.16,3.16,3.16,0,0,0,1.56.41A3.06,3.06,0,0,0,228.25,242.42Z"/><path class="cls-11" d="M239.72,234.06v2.07a5.79,5.79,0,0,0-.79-.06,2.64,2.64,0,0,0-2,.8,3.13,3.13,0,0,0-.75,2.23v5.64h-2.26V234.23h2.22v1.58a2.86,2.86,0,0,1,1.15-1.31,3.41,3.41,0,0,1,1.8-.48A3.46,3.46,0,0,1,239.72,234.06Z"/><path class="cls-11" d="M242.9,244.28a5.33,5.33,0,0,1-2-2,5.86,5.86,0,0,1,0-5.63,5.33,5.33,0,0,1,2-2,5.58,5.58,0,0,1,2.82-.71,5.64,5.64,0,0,1,2.83.71,5.26,5.26,0,0,1,2,2,5.79,5.79,0,0,1,0,5.63,5.26,5.26,0,0,1-2,2,5.64,5.64,0,0,1-2.83.71A5.58,5.58,0,0,1,242.9,244.28Zm4.45-1.86a3.17,3.17,0,0,0,1.17-1.21,3.75,3.75,0,0,0,0-3.45,3.21,3.21,0,0,0-4.43-1.21,3,3,0,0,0-1.16,1.21,3.83,3.83,0,0,0,0,3.45,3,3,0,0,0,1.16,1.21,3.24,3.24,0,0,0,3.26,0Z"/><path class="cls-11" d="M255.33,245.78a3.3,3.3,0,0,1-.71,2.32,2.72,2.72,0,0,1-2.11.76,4.4,4.4,0,0,1-.9-.11,4.34,4.34,0,0,1-.83-.25v-2a2.33,2.33,0,0,0,1.26.34.94.94,0,0,0,.78-.31,1.72,1.72,0,0,0,.24-1V234.23h2.27Zm-2.12-13.23a1.41,1.41,0,1,1,1,.4A1.34,1.34,0,0,1,253.21,232.55Z"/><path class="cls-11" d="M265.45,234.72a5.16,5.16,0,0,1,2,2,5.79,5.79,0,0,1,.71,2.85l-8.57,1.24a3.21,3.21,0,0,0,1.21,1.53,3.53,3.53,0,0,0,3.75,0,3.24,3.24,0,0,0,1.22-1.44l2.07.7a5.4,5.4,0,0,1-2,2.41,5.51,5.51,0,0,1-3.14.92,5.6,5.6,0,0,1-2.81-.72,5.28,5.28,0,0,1-2-2,5.51,5.51,0,0,1,2-7.54,5.88,5.88,0,0,1,5.64,0Zm-5.05,2.14a3.38,3.38,0,0,0-1.06,2.11l6.19-.85a2.77,2.77,0,0,0-2.9-2.07A3.17,3.17,0,0,0,260.4,236.86Z"/><path class="cls-11" d="M271.89,244.27a5.23,5.23,0,0,1-2-2,5.86,5.86,0,0,1,0-5.59,5.3,5.3,0,0,1,2-2,5.8,5.8,0,0,1,5.87.16,5.12,5.12,0,0,1,1.95,2.4l-2.13.71a3.32,3.32,0,0,0-1.17-1.39,3,3,0,0,0-1.74-.51,2.94,2.94,0,0,0-1.59.45,3.2,3.2,0,0,0-1.13,1.23,3.56,3.56,0,0,0-.42,1.74,3.61,3.61,0,0,0,.42,1.74,3.17,3.17,0,0,0,1.13,1.22,2.94,2.94,0,0,0,1.59.45,3,3,0,0,0,1.74-.51,3.26,3.26,0,0,0,1.17-1.39l2.13.71a5.33,5.33,0,0,1-2,2.4,5.78,5.78,0,0,1-5.86.16Z"/><path class="cls-11" d="M287.48,234.23v1.84h-3.26v5.53a1.25,1.25,0,0,0,.38,1,1.53,1.53,0,0,0,1,.33,3.47,3.47,0,0,0,1.58-.38v2a4.3,4.3,0,0,1-.91.27,5.25,5.25,0,0,1-1,.11A2.93,2.93,0,0,1,282,241.6v-5.53h-1.51v-1.84H282v-2.58l2.27-1.73v4.31Z"/><path class="cls-11" d="M307.21,235a3.6,3.6,0,0,1,1,2.69v7.09h-2.26V238a2.09,2.09,0,0,0-.45-1.49,1.77,1.77,0,0,0-1.34-.47,2.23,2.23,0,0,0-1.62.69,2.52,2.52,0,0,0-.71,1.89v6.09h-2.26V238a2.09,2.09,0,0,0-.45-1.49,1.8,1.8,0,0,0-1.35-.47,2.21,2.21,0,0,0-1.63.7,2.61,2.61,0,0,0-.69,1.9v6.07h-2.27V234.23h2.27v1.43a2.91,2.91,0,0,1,1.21-1.22,3.75,3.75,0,0,1,3.56.06,2.74,2.74,0,0,1,1.16,1.42,4.13,4.13,0,0,1,1.42-1.4,3.89,3.89,0,0,1,2-.5A3.39,3.39,0,0,1,307.21,235Z"/><path class="cls-11" d="M320.62,234.23v10.51h-2.2v-1.58a4.07,4.07,0,0,1-1.48,1.32,4.21,4.21,0,0,1-2,.47,4.83,4.83,0,0,1-2.61-.72,5.13,5.13,0,0,1-1.83-2,6.12,6.12,0,0,1,0-5.53,5,5,0,0,1,1.83-2,4.75,4.75,0,0,1,2.61-.73,4.32,4.32,0,0,1,2,.47,4.07,4.07,0,0,1,1.48,1.32v-1.58Zm-3.78,8.2a3.09,3.09,0,0,0,1.16-1.19,3.94,3.94,0,0,0,0-3.56,3.1,3.1,0,0,0-1.17-1.16,3.13,3.13,0,0,0-1.56-.41,3.08,3.08,0,0,0-1.6.44,3,3,0,0,0-1.13,1.22,3.88,3.88,0,0,0,0,3.43,3,3,0,0,0,1.13,1.22,3.08,3.08,0,0,0,1.6.44A3,3,0,0,0,316.84,242.43Z"/><path class="cls-11" d="M331.37,235a3.73,3.73,0,0,1,1.08,2.85v6.86h-2.26v-6.32a2.62,2.62,0,0,0-.51-1.8,2.13,2.13,0,0,0-1.63-.55,2.83,2.83,0,0,0-2.07.78,2.89,2.89,0,0,0-.79,2.14v5.75h-2.26V234.23h2.26v1.52a3.29,3.29,0,0,1,1.4-1.29,4.43,4.43,0,0,1,2-.44A3.94,3.94,0,0,1,331.37,235Z"/><path class="cls-11" d="M344.9,234.23v10.51h-2.2v-1.58a4.15,4.15,0,0,1-1.48,1.32,4.21,4.21,0,0,1-2,.47,4.89,4.89,0,0,1-2.62-.72,5.19,5.19,0,0,1-1.82-2,6.12,6.12,0,0,1,0-5.53,5.09,5.09,0,0,1,1.82-2,4.81,4.81,0,0,1,2.62-.73,4.32,4.32,0,0,1,2,.47,4.15,4.15,0,0,1,1.48,1.32v-1.58Zm-3.78,8.2a3,3,0,0,0,1.15-1.19,3.86,3.86,0,0,0,0-3.56,3.08,3.08,0,0,0-1.16-1.16,3.13,3.13,0,0,0-1.56-.41,3,3,0,0,0-2.73,1.66,3.79,3.79,0,0,0,0,3.43,3.09,3.09,0,0,0,4.31,1.23Z"/><path class="cls-11" d="M357.41,234.23v9.59a5.13,5.13,0,0,1-.64,2.57,4.62,4.62,0,0,1-1.83,1.81,5.63,5.63,0,0,1-2.76.66,6.3,6.3,0,0,1-3.05-.71,4.29,4.29,0,0,1-1.9-1.94l2-1a3.08,3.08,0,0,0,1.18,1.14,3.57,3.57,0,0,0,1.79.44,2.82,2.82,0,0,0,2.18-.85,3.11,3.11,0,0,0,.79-2.2v-.71a3.93,3.93,0,0,1-1.44,1.21,4.37,4.37,0,0,1-2,.44,4.76,4.76,0,0,1-2.59-.72,5,5,0,0,1-1.79-1.94,5.85,5.85,0,0,1,0-5.4,4.93,4.93,0,0,1,1.79-1.94,4.84,4.84,0,0,1,2.59-.7,4.39,4.39,0,0,1,2,.45,4,4,0,0,1,1.46,1.26v-1.5Zm-3.73,8A3.08,3.08,0,0,0,354.8,241a3.69,3.69,0,0,0,0-3.42,3,3,0,0,0-1.15-1.12,3.06,3.06,0,0,0-1.51-.39,3,3,0,0,0-1.59.43,2.88,2.88,0,0,0-1.11,1.16,3.4,3.4,0,0,0-.4,1.66,3.26,3.26,0,0,0,.88,2.34,2.93,2.93,0,0,0,2.22.92A3,3,0,0,0,353.68,242.21Z"/><path class="cls-11" d="M367.56,234.72a5.16,5.16,0,0,1,2,2,5.79,5.79,0,0,1,.71,2.85l-8.57,1.24a3.15,3.15,0,0,0,1.21,1.53,3.53,3.53,0,0,0,3.75,0,3.22,3.22,0,0,0,1.21-1.44l2.07.7a5.32,5.32,0,0,1-2,2.41,5.53,5.53,0,0,1-3.14.92,5.6,5.6,0,0,1-2.81-.72,5.38,5.38,0,0,1-2-2,5.5,5.5,0,0,1,2-7.54,5.88,5.88,0,0,1,5.64,0Zm-5.05,2.14a3.33,3.33,0,0,0-1.06,2.11l6.19-.85a2.77,2.77,0,0,0-2.9-2.07A3.17,3.17,0,0,0,362.51,236.86Z"/><path class="cls-11" d="M377.63,234.06v2.07a5.56,5.56,0,0,0-.79-.06,2.61,2.61,0,0,0-2,.8,3.13,3.13,0,0,0-.75,2.23v5.64h-2.26V234.23h2.22v1.58a2.81,2.81,0,0,1,1.15-1.31,3.87,3.87,0,0,1,2.43-.44Z"/><path class="cls-19" d="M184.32,344.8v9.12h-1.91v-1.37a3.63,3.63,0,0,1-1.29,1.15,3.79,3.79,0,0,1-1.77.41,4.23,4.23,0,0,1-2.28-.63,4.37,4.37,0,0,1-1.58-1.72,5.26,5.26,0,0,1,0-4.8,4.37,4.37,0,0,1,1.58-1.72,4.23,4.23,0,0,1,2.28-.63,3.79,3.79,0,0,1,1.77.41,3.63,3.63,0,0,1,1.29,1.15V344.8ZM181,351.92a2.73,2.73,0,0,0,1-1,3.37,3.37,0,0,0,0-3.09,2.72,2.72,0,0,0-1-1,2.84,2.84,0,0,0-1.36-.35,2.66,2.66,0,0,0-1.39.38,2.57,2.57,0,0,0-1,1.06,3.26,3.26,0,0,0,0,3,2.57,2.57,0,0,0,1,1.06,2.66,2.66,0,0,0,1.39.38A2.61,2.61,0,0,0,181,351.92Z"/><path class="cls-19" d="M188.2,353.52a4.56,4.56,0,0,1-1.7-1.73,5.07,5.07,0,0,1,0-4.86,4.63,4.63,0,0,1,1.7-1.73,5,5,0,0,1,5.11.14,4.52,4.52,0,0,1,1.69,2.09l-1.85.61a2.9,2.9,0,0,0-1-1.2,2.63,2.63,0,0,0-1.51-.45,2.58,2.58,0,0,0-1.39.39,2.81,2.81,0,0,0-1,1.07,3.35,3.35,0,0,0,0,3,2.81,2.81,0,0,0,1,1.07,2.58,2.58,0,0,0,1.39.39,2.63,2.63,0,0,0,1.51-.45,2.9,2.9,0,0,0,1-1.2l1.85.61a4.67,4.67,0,0,1-1.7,2.09,5,5,0,0,1-5.1.14Z"/><path class="cls-19" d="M198.09,353.52a4.56,4.56,0,0,1-1.7-1.73,5,5,0,0,1,0-4.86,4.63,4.63,0,0,1,1.7-1.73,5,5,0,0,1,5.1.14,4.48,4.48,0,0,1,1.7,2.09L203,348a3,3,0,0,0-1-1.2,2.64,2.64,0,0,0-1.52-.45,2.57,2.57,0,0,0-1.38.39,2.81,2.81,0,0,0-1,1.07,3.35,3.35,0,0,0,0,3,2.81,2.81,0,0,0,1,1.07,2.57,2.57,0,0,0,1.38.39,2.64,2.64,0,0,0,1.52-.45,3,3,0,0,0,1-1.2l1.85.61a4.67,4.67,0,0,1-1.7,2.09,5,5,0,0,1-5.1.14Z"/><path class="cls-19" d="M208,353.53a4.61,4.61,0,0,1-1.73-1.72,5.08,5.08,0,0,1,0-4.9,4.61,4.61,0,0,1,1.73-1.72,4.93,4.93,0,0,1,2.45-.62,5,5,0,0,1,2.46.62,4.61,4.61,0,0,1,1.73,1.72,5.08,5.08,0,0,1,0,4.9,4.61,4.61,0,0,1-1.73,1.72,5,5,0,0,1-2.46.62A4.93,4.93,0,0,1,208,353.53Zm3.87-1.62a2.76,2.76,0,0,0,1-1.05,3.23,3.23,0,0,0,0-3,2.8,2.8,0,0,0-3.85-1.05,2.6,2.6,0,0,0-1,1.05,3.23,3.23,0,0,0,0,3,2.6,2.6,0,0,0,1,1.05,2.84,2.84,0,0,0,2.84,0Z"/><path class="cls-19" d="M225.06,344.8v9.12h-1.89V352.4a2.92,2.92,0,0,1-1.25,1.26,3.68,3.68,0,0,1-1.81.45,3.36,3.36,0,0,1-2.44-.87,3.32,3.32,0,0,1-.89-2.47v-6h2v5.38c0,1.37.64,2.06,1.91,2.06a2.32,2.32,0,0,0,1.74-.74,2.84,2.84,0,0,0,.69-2V344.8Z"/><path class="cls-19" d="M234.4,345.49a3.26,3.26,0,0,1,.94,2.48v5.95h-2v-5.49a2.31,2.31,0,0,0-.44-1.56,1.85,1.85,0,0,0-1.41-.48,2.44,2.44,0,0,0-1.8.68,2.48,2.48,0,0,0-.69,1.86v5h-2V344.8h2v1.31a2.9,2.9,0,0,1,1.21-1.12,3.91,3.91,0,0,1,1.72-.38A3.4,3.4,0,0,1,234.4,345.49Z"/><path class="cls-19" d="M242.28,344.8v1.59h-2.84v4.81a1.08,1.08,0,0,0,.33.86,1.32,1.32,0,0,0,.89.29A2.92,2.92,0,0,0,242,352v1.75a3.28,3.28,0,0,1-.78.24,4.76,4.76,0,0,1-.87.09,2.54,2.54,0,0,1-2.91-2.89v-4.81h-1.32V344.8h1.32v-2.25l2-1.5v3.75Z"/><path class="cls-19" d="M254,345.22a4.47,4.47,0,0,1,1.71,1.74,5,5,0,0,1,.61,2.47l-7.44,1.08a2.71,2.71,0,0,0,1.05,1.33,2.93,2.93,0,0,0,1.64.49,2.89,2.89,0,0,0,1.62-.46,2.8,2.8,0,0,0,1.05-1.25l1.8.61a4.67,4.67,0,0,1-1.76,2.1,5,5,0,0,1-5.17.17,4.63,4.63,0,0,1-1.73-1.73,4.94,4.94,0,0,1,0-4.83,4.58,4.58,0,0,1,1.72-1.72,5.08,5.08,0,0,1,4.9,0Zm-4.39,1.86a2.87,2.87,0,0,0-.91,1.83l5.38-.74a2.42,2.42,0,0,0-2.53-1.8A2.78,2.78,0,0,0,249.61,347.08Z"/><path class="cls-19" d="M266.3,353.92H264l-2.37-3.26-2.4,3.26H256.9l3.37-4.67L257,344.8h2.3l2.27,3.06,2.24-3.06h2.3l-3.26,4.47Z"/><path class="cls-19" d="M273.63,345.22a4.47,4.47,0,0,1,1.71,1.74,5.08,5.08,0,0,1,.61,2.47l-7.44,1.08a2.71,2.71,0,0,0,1.05,1.33,2.93,2.93,0,0,0,1.64.49,2.84,2.84,0,0,0,1.61-.46,2.76,2.76,0,0,0,1.06-1.25l1.8.61a4.67,4.67,0,0,1-1.76,2.1,5,5,0,0,1-5.17.17,4.56,4.56,0,0,1-1.73-1.73,4.94,4.94,0,0,1,0-4.83,4.58,4.58,0,0,1,1.72-1.72,5.08,5.08,0,0,1,4.9,0Zm-4.39,1.86a2.93,2.93,0,0,0-.92,1.83l5.38-.74a2.4,2.4,0,0,0-2.52-1.8A2.76,2.76,0,0,0,269.24,347.08Z"/><path class="cls-19" d="M279.22,353.52a4.56,4.56,0,0,1-1.7-1.73,5.07,5.07,0,0,1,0-4.86,4.63,4.63,0,0,1,1.7-1.73,5,5,0,0,1,5.11.14,4.52,4.52,0,0,1,1.69,2.09l-1.85.61a2.9,2.9,0,0,0-1-1.2,2.64,2.64,0,0,0-1.52-.45,2.57,2.57,0,0,0-1.38.39,2.81,2.81,0,0,0-1,1.07,3.35,3.35,0,0,0,0,3,2.81,2.81,0,0,0,1,1.07,2.57,2.57,0,0,0,1.38.39,2.64,2.64,0,0,0,1.52-.45,2.9,2.9,0,0,0,1-1.2l1.85.61a4.67,4.67,0,0,1-1.7,2.09,5,5,0,0,1-5.1.14Z"/><path class="cls-19" d="M295.52,344.8v9.12h-1.89V352.4a3,3,0,0,1-1.24,1.26,3.72,3.72,0,0,1-1.82.45,3.32,3.32,0,0,1-2.43-.87,3.28,3.28,0,0,1-.89-2.47v-6h2v5.38c0,1.37.64,2.06,1.91,2.06a2.29,2.29,0,0,0,1.74-.74,2.84,2.84,0,0,0,.7-2V344.8Z"/><path class="cls-19" d="M303.11,344.8v1.59h-2.84v4.81a1.05,1.05,0,0,0,.34.86,1.31,1.31,0,0,0,.89.29,3,3,0,0,0,1.37-.34v1.75a3.22,3.22,0,0,1-.79.24,4.66,4.66,0,0,1-.86.09,3,3,0,0,1-2.2-.71,3,3,0,0,1-.72-2.18v-4.81H297V344.8h1.31v-2.25l2-1.5v3.75Z"/><path class="cls-19" d="M304.65,343.33a1.13,1.13,0,0,1-.35-.85,1.15,1.15,0,0,1,.35-.86,1.17,1.17,0,0,1,.85-.35,1.2,1.2,0,0,1,1.21,1.21,1.17,1.17,0,0,1-.35.85,1.15,1.15,0,0,1-.86.35A1.13,1.13,0,0,1,304.65,343.33Zm-.13,1.47h2v9.12h-2Z"/><path class="cls-19" d="M314.93,344.8H317l-2.8,9.12h-3.63l-2.79-9.12h2.08l2.52,8.49Z"/><path class="cls-19" d="M324.69,345.22a4.38,4.38,0,0,1,1.7,1.74,5,5,0,0,1,.62,2.47l-7.44,1.08a2.75,2.75,0,0,0,1,1.33,3,3,0,0,0,1.65.49,2.86,2.86,0,0,0,1.61-.46,2.82,2.82,0,0,0,1.06-1.25l1.8.61a4.63,4.63,0,0,1-1.77,2.1,5,5,0,0,1-5.16.17,4.59,4.59,0,0,1-1.74-1.73,4.94,4.94,0,0,1,0-4.83,4.61,4.61,0,0,1,1.73-1.72,5.08,5.08,0,0,1,4.9,0Zm-4.39,1.86a2.93,2.93,0,0,0-.92,1.83l5.38-.74a2.4,2.4,0,0,0-2.52-1.8A2.76,2.76,0,0,0,320.3,347.08Z"/><path class="cls-8" d="M563.15,287h11.21v2.35h-1.69a4.35,4.35,0,0,1,1.41,1.58,4.48,4.48,0,0,1,.5,2.17,5.12,5.12,0,0,1-.77,2.79,5.43,5.43,0,0,1-2.11,2,6.55,6.55,0,0,1-5.89,0,5.43,5.43,0,0,1-2.11-2,5.2,5.2,0,0,1-.77-2.79,4.48,4.48,0,0,1,.5-2.17,4.35,4.35,0,0,1,1.41-1.58h-1.69Zm8.75,4a3.37,3.37,0,0,0-1.28-1.23,4.17,4.17,0,0,0-3.79,0,3.28,3.28,0,0,0-1.24,1.24,3.35,3.35,0,0,0-.43,1.67,3.13,3.13,0,0,0,.47,1.7,3.2,3.2,0,0,0,1.29,1.21,4.13,4.13,0,0,0,3.67,0,3.3,3.3,0,0,0,1.3-1.21,3.21,3.21,0,0,0,.46-1.7A3.32,3.32,0,0,0,571.9,291Z"/><path class="cls-8" d="M573.85,282.18a5.6,5.6,0,0,1-2.11,2.1,6.24,6.24,0,0,1-6,0,5.6,5.6,0,0,1-2.11-2.1,5.75,5.75,0,0,1-.78-3,5.83,5.83,0,0,1,1-3.29,5.46,5.46,0,0,1,2.56-2.08l.75,2.28a3.46,3.46,0,0,0-1.48,1.24,3.18,3.18,0,0,0-.55,1.85,3.14,3.14,0,0,0,.48,1.7,3.37,3.37,0,0,0,1.31,1.2,4,4,0,0,0,3.71,0,3.37,3.37,0,0,0,1.31-1.2,3.14,3.14,0,0,0,.48-1.7,3.18,3.18,0,0,0-.55-1.85,3.46,3.46,0,0,0-1.48-1.24l.75-2.28a5.61,5.61,0,0,1,2.56,2.09,6.09,6.09,0,0,1,.17,6.25Z"/><path class="cls-8" d="M573.85,270.05a5.57,5.57,0,0,1-2.11,2.09,6.17,6.17,0,0,1-6,0,5.57,5.57,0,0,1-2.11-2.09,6.11,6.11,0,0,1,.17-6.26,5.46,5.46,0,0,1,2.56-2.08l.75,2.27a3.53,3.53,0,0,0-1.48,1.24,3.21,3.21,0,0,0-.55,1.86,3.08,3.08,0,0,0,.48,1.69A3.47,3.47,0,0,0,566.9,270a4.13,4.13,0,0,0,3.71,0,3.47,3.47,0,0,0,1.31-1.21,3.08,3.08,0,0,0,.48-1.69,3.21,3.21,0,0,0-.55-1.86,3.53,3.53,0,0,0-1.48-1.24l.75-2.27a5.61,5.61,0,0,1,2.56,2.09,6.09,6.09,0,0,1,.17,6.25Z"/><path class="cls-8" d="M573.87,257.88a5.58,5.58,0,0,1-2.11,2.12,6.25,6.25,0,0,1-6,0,5.58,5.58,0,0,1-2.11-2.12,6.34,6.34,0,0,1,0-6,5.6,5.6,0,0,1,2.11-2.13,6.25,6.25,0,0,1,6,0,5.6,5.6,0,0,1,2.11,2.13,6.34,6.34,0,0,1,0,6Zm-2-4.75a3.49,3.49,0,0,0-1.29-1.24,4,4,0,0,0-3.69,0,3.39,3.39,0,0,0-1.28,1.24,3.39,3.39,0,0,0,1.28,4.72,4.09,4.09,0,0,0,3.69,0,3.45,3.45,0,0,0,1.29-4.72Z"/><path class="cls-8" d="M563.15,237h11.21v2.32h-1.87a3.69,3.69,0,0,1,1.55,1.53,4.6,4.6,0,0,1,.54,2.23,3.74,3.74,0,0,1-4.09,4.07h-7.34V244.7h6.61c1.68,0,2.52-.78,2.52-2.35a2.81,2.81,0,0,0-.9-2.12,3.45,3.45,0,0,0-2.49-.86h-5.74Z"/><path class="cls-8" d="M564,225.5a4,4,0,0,1,3-1.15h7.31v2.41h-6.74a2.77,2.77,0,0,0-1.92.55,2.26,2.26,0,0,0-.59,1.73,3,3,0,0,0,.83,2.2,3.06,3.06,0,0,0,2.29.85h6.13v2.41H563.15v-2.41h1.62a3.6,3.6,0,0,1-1.38-1.49,4.73,4.73,0,0,1-.46-2.11A4.17,4.17,0,0,1,564,225.5Z"/><path class="cls-8" d="M563.15,215.83h2v3.49H571a1.34,1.34,0,0,0,1.06-.41,1.67,1.67,0,0,0,.35-1.1,3.75,3.75,0,0,0-.41-1.68h2.14a4.47,4.47,0,0,1,.3,1,6,6,0,0,1,.11,1.05,3.64,3.64,0,0,1-.88,2.7,3.6,3.6,0,0,1-2.67.88h-5.9v1.61h-2v-1.61H560.4l-1.84-2.41h4.59Z"/><path class="cls-13" d="M234.57,272.86V286h-2.75v-2a5.33,5.33,0,0,1-1.85,1.66,5.39,5.39,0,0,1-2.55.58,6.09,6.09,0,0,1-3.27-.9,6.39,6.39,0,0,1-2.28-2.47,7.61,7.61,0,0,1,0-6.91,6.29,6.29,0,0,1,2.28-2.46,6,6,0,0,1,3.27-.91,5.08,5.08,0,0,1,4.4,2.24v-2Zm-4.72,10.25a4,4,0,0,0,1.44-1.5,4.48,4.48,0,0,0,.53-2.18,4.38,4.38,0,0,0-.55-2.26,3.81,3.81,0,0,0-1.45-1.45,3.92,3.92,0,0,0-1.95-.51,3.79,3.79,0,0,0-3.41,2.07,4.77,4.77,0,0,0,0,4.29,3.79,3.79,0,0,0,3.41,2.07A3.92,3.92,0,0,0,229.85,283.11Z"/><path class="cls-13" d="M244.7,272.65v2.59a5.9,5.9,0,0,0-1-.08,3.23,3.23,0,0,0-2.5,1,3.91,3.91,0,0,0-.94,2.79v7h-2.82V272.86h2.77v2a3.48,3.48,0,0,1,1.44-1.64,4.22,4.22,0,0,1,2.24-.6A5.07,5.07,0,0,1,244.7,272.65Z"/><path class="cls-13" d="M254.65,272.86v2.3h-4.08v6.91a1.55,1.55,0,0,0,.48,1.24,1.91,1.91,0,0,0,1.28.41,4.37,4.37,0,0,0,2-.48v2.51a5.08,5.08,0,0,1-1.13.34,6.53,6.53,0,0,1-1.24.14,4.3,4.3,0,0,1-3.16-1,4.23,4.23,0,0,1-1-3.13v-6.91h-1.89v-2.3h1.89v-3.22l2.83-2.16v5.38Z"/><path class="cls-13" d="M256.86,270.76a1.76,1.76,0,0,1,0-2.46,1.74,1.74,0,0,1,2.46,2.46,1.76,1.76,0,0,1-2.46,0Zm-.18,2.1h2.82V286h-2.82Z"/><path class="cls-13" d="M263.64,285.56a4.86,4.86,0,0,1-2.32-2.35l2-1.38a4,4,0,0,0,1.52,1.45,4.48,4.48,0,0,0,2.27.6,3,3,0,0,0,1.73-.44,1.39,1.39,0,0,0,.62-1.19,1.12,1.12,0,0,0-.56-1,6,6,0,0,0-1.68-.67l-1.36-.35a7,7,0,0,1-3.12-1.49,3,3,0,0,1-1-2.24,3.63,3.63,0,0,1,.58-2,4.17,4.17,0,0,1,1.72-1.47,6.35,6.35,0,0,1,2.74-.54,6.46,6.46,0,0,1,3.32.81,5,5,0,0,1,2,2l-2.19,1.36a3.45,3.45,0,0,0-1.29-1.25,3.79,3.79,0,0,0-1.91-.48,2.42,2.42,0,0,0-1.51.41,1.29,1.29,0,0,0-.52,1,1,1,0,0,0,.55.92,6.71,6.71,0,0,0,1.72.63l1.47.37a6.31,6.31,0,0,1,2.93,1.43,3.17,3.17,0,0,1,.93,2.36,3.74,3.74,0,0,1-.68,2.24,4.47,4.47,0,0,1-1.86,1.49,6.35,6.35,0,0,1-2.66.53A7.64,7.64,0,0,1,263.64,285.56Z"/><path class="cls-13" d="M282,272.86v2.3H278v6.91a1.55,1.55,0,0,0,.48,1.24,1.91,1.91,0,0,0,1.28.41,4.37,4.37,0,0,0,2-.48v2.51a5.08,5.08,0,0,1-1.13.34,6.53,6.53,0,0,1-1.24.14,4.32,4.32,0,0,1-3.16-1,4.23,4.23,0,0,1-1-3.13v-6.91h-1.89v-2.3h1.89v-3.22l2.83-2.16v5.38Z"/><path class="cls-11" d="M589.47,293.15a3.19,3.19,0,0,1,1.27-1.17,3.74,3.74,0,0,1,1.77-.43,3.81,3.81,0,0,1,1.78.43,3.26,3.26,0,0,1,1.27,1.17,3.12,3.12,0,0,1,.46,1.68,2.62,2.62,0,0,1-1.08,2.22h3.42v1.46h-9.22v-1.42h1a2.58,2.58,0,0,1-.85-.95,2.67,2.67,0,0,1-.31-1.31A3.13,3.13,0,0,1,589.47,293.15Zm4.93.89a1.89,1.89,0,0,0-.78-.73,2.3,2.3,0,0,0-1.11-.26,2.26,2.26,0,0,0-1.1.26,2,2,0,0,0-1.06,1.75,2,2,0,0,0,.27,1,2,2,0,0,0,.77.74,2.29,2.29,0,0,0,1.12.27,2.24,2.24,0,0,0,1.16-.28,1.87,1.87,0,0,0,.75-.75,2,2,0,0,0,.26-1A1.91,1.91,0,0,0,594.4,294Z"/><path class="cls-11" d="M589.46,285.37a3.23,3.23,0,0,1,1.28-1.26,3.7,3.7,0,0,1,1.83-.45l.79,5.49a2,2,0,0,0,1-.77,2.08,2.08,0,0,0,.37-1.21,2.13,2.13,0,0,0-.34-1.2,2.07,2.07,0,0,0-.92-.78l.45-1.33a3.44,3.44,0,0,1,1.55,1.3,3.62,3.62,0,0,1,.59,2,3.55,3.55,0,0,1-.47,1.8,3.32,3.32,0,0,1-1.27,1.28,3.52,3.52,0,0,1-4.84-1.27,3.72,3.72,0,0,1,0-3.62Zm1.37,3.24a2.12,2.12,0,0,0,1.35.68l-.54-4a1.78,1.78,0,0,0-1.33,1.87A2,2,0,0,0,590.83,288.61Z"/><path class="cls-11" d="M589,278.9h1.33a3,3,0,0,0,0,.5,1.69,1.69,0,0,0,.51,1.29,2,2,0,0,0,1.44.48h3.62v1.46h-6.75V281.2h1a1.8,1.8,0,0,1-.85-.74,2.22,2.22,0,0,1-.31-1.15A2.07,2.07,0,0,1,589,278.9Z"/><path class="cls-11" d="M590.32,277.34v1h-1.18v-1h-.9a1.87,1.87,0,0,1-2.14-2.16,3,3,0,0,1,.07-.63,2.46,2.46,0,0,1,.17-.59h1.29a2.31,2.31,0,0,0-.24,1,1,1,0,0,0,.21.65.77.77,0,0,0,.64.25h.9V274h1.18v1.92h5.57v1.46Z"/><path class="cls-11" d="M595.59,272.07a3.3,3.3,0,0,1-1.27,1.27,3.72,3.72,0,0,1-3.62,0,3.27,3.27,0,0,1-1.26-1.27,3.56,3.56,0,0,1-.46-1.81,3.62,3.62,0,0,1,.46-1.82,3.3,3.3,0,0,1,1.26-1.28,3.72,3.72,0,0,1,3.62,0,3.32,3.32,0,0,1,1.27,1.28,3.62,3.62,0,0,1,.46,1.82A3.56,3.56,0,0,1,595.59,272.07Zm-1.19-2.86a2.08,2.08,0,0,0-.78-.75,2.25,2.25,0,0,0-1.11-.27,2.28,2.28,0,0,0-1.11.27,2.05,2.05,0,0,0-.77.75,2,2,0,0,0,.77,2.84,2.28,2.28,0,0,0,1.11.27,2.25,2.25,0,0,0,1.11-.27,2.06,2.06,0,0,0,.78-.74,2.11,2.11,0,0,0,0-2.1Z"/><path class="cls-11" d="M589,261.81h1.33a3.25,3.25,0,0,0,0,.51,1.69,1.69,0,0,0,.51,1.29,2,2,0,0,0,1.44.48h3.62v1.45h-6.75v-1.42h1a1.91,1.91,0,0,1-.85-.74,2.26,2.26,0,0,1-.31-1.16A2.07,2.07,0,0,1,589,261.81Z"/><path class="cls-11" d="M589.61,251.79a2.31,2.31,0,0,1,1.72-.62h4.56v1.46h-4.31a1.36,1.36,0,0,0-1,.28,1.16,1.16,0,0,0-.3.87,1.43,1.43,0,0,0,.45,1,1.61,1.61,0,0,0,1.21.45h3.91v1.46h-4.31a1.36,1.36,0,0,0-1,.28,1.16,1.16,0,0,0-.3.87,1.44,1.44,0,0,0,.45,1.05,1.69,1.69,0,0,0,1.22.44h3.9v1.46h-6.75v-1.46h.92a1.92,1.92,0,0,1-.79-.78,2.24,2.24,0,0,1-.27-1.1,2.31,2.31,0,0,1,.31-1.18,1.78,1.78,0,0,1,.91-.75,2.58,2.58,0,0,1-.89-.91,2.42,2.42,0,0,1-.33-1.26A2.17,2.17,0,0,1,589.61,251.79Z"/><path class="cls-11" d="M589.14,243.18h6.75v1.41h-1a2.65,2.65,0,0,1,1.15,2.26,3.07,3.07,0,0,1-.46,1.68,3.36,3.36,0,0,1-1.27,1.18,3.8,3.8,0,0,1-1.78.42,3.73,3.73,0,0,1-1.77-.42,3.29,3.29,0,0,1-1.27-1.18,3.08,3.08,0,0,1-.47-1.68,2.6,2.6,0,0,1,.31-1.3,2.69,2.69,0,0,1,.85-1h-1Zm5.27,2.43a2,2,0,0,0-.77-.74,2.23,2.23,0,0,0-1.13-.28,2.33,2.33,0,0,0-1.15.28,2,2,0,0,0-.73,2.78,2,2,0,0,0,.78.73,2.38,2.38,0,0,0,1.1.26,2.42,2.42,0,0,0,1.11-.26,2,2,0,0,0,.78-.73,1.92,1.92,0,0,0,.28-1A2,2,0,0,0,594.41,245.61Z"/><path class="cls-11" d="M589.65,236.28a2.39,2.39,0,0,1,1.84-.7h4.4V237h-4.06a1.65,1.65,0,0,0-1.15.33,1.34,1.34,0,0,0-.36,1,1.74,1.74,0,0,0,1.88,1.84h3.69v1.45h-6.75v-1.45h1a2.18,2.18,0,0,1-.83-.9,2.92,2.92,0,0,1-.28-1.27A2.53,2.53,0,0,1,589.65,236.28Z"/><path class="cls-11" d="M595.59,232.82a3.37,3.37,0,0,1-1.28,1.26,3.73,3.73,0,0,1-3.59,0,3.3,3.3,0,0,1-1.28-1.26A3.48,3.48,0,0,1,589,231a3.56,3.56,0,0,1,.56-2,3.29,3.29,0,0,1,1.55-1.25l.45,1.37a2.15,2.15,0,0,0-.89.74,2,2,0,0,0-.33,1.12,1.87,1.87,0,0,0,.29,1,2,2,0,0,0,.79.73,2.28,2.28,0,0,0,1.11.27,2.32,2.32,0,0,0,1.12-.27,2.06,2.06,0,0,0,.79-.73,1.87,1.87,0,0,0,.29-1,2,2,0,0,0-.33-1.12,2.15,2.15,0,0,0-.89-.74l.45-1.37a3.35,3.35,0,0,1,1.54,1.26,3.43,3.43,0,0,1,.57,2A3.48,3.48,0,0,1,595.59,232.82Z"/><path class="cls-11" d="M589.46,221.87a3.23,3.23,0,0,1,1.28-1.26,3.7,3.7,0,0,1,1.83-.45l.79,5.5a2.12,2.12,0,0,0,1.35-2,2.13,2.13,0,0,0-1.26-2l.45-1.33a3.46,3.46,0,0,1,1.55,1.31,3.57,3.57,0,0,1,.59,2,3.62,3.62,0,0,1-.47,1.81,3.39,3.39,0,0,1-1.27,1.28,3.71,3.71,0,0,1-3.58,0,3.44,3.44,0,0,1-1.26-1.28,3.72,3.72,0,0,1,0-3.62Zm1.37,3.25a2.16,2.16,0,0,0,1.35.67l-.54-4a1.77,1.77,0,0,0-1.33,1.86A2,2,0,0,0,590.83,225.12Z"/><path class="cls-11" d="M589.61,207.5a2.3,2.3,0,0,1,1.72-.61h4.56v1.45h-4.31a1.36,1.36,0,0,0-1,.29,1.14,1.14,0,0,0-.3.86,1.43,1.43,0,0,0,.45,1A1.58,1.58,0,0,0,592,211h3.91v1.45h-4.31a1.36,1.36,0,0,0-1,.29,1.14,1.14,0,0,0-.3.86,1.44,1.44,0,0,0,.45,1,1.65,1.65,0,0,0,1.22.45h3.9v1.45h-6.75v-1.45h.92a2,2,0,0,1-.79-.79,2.23,2.23,0,0,1-.27-1.09,2.32,2.32,0,0,1,.31-1.19,1.83,1.83,0,0,1,.91-.75,2.5,2.5,0,0,1-.89-.91,2.41,2.41,0,0,1-.33-1.25A2.18,2.18,0,0,1,589.61,207.5Z"/><path class="cls-11" d="M589.14,198.89h6.75v1.41h-1a2.69,2.69,0,0,1,.85,1,2.75,2.75,0,0,1,.3,1.31,3.12,3.12,0,0,1-.46,1.68,3.41,3.41,0,0,1-1.27,1.17,3.8,3.8,0,0,1-1.78.42,3.73,3.73,0,0,1-1.77-.42,3.34,3.34,0,0,1-1.27-1.17,3.13,3.13,0,0,1-.47-1.68,2.64,2.64,0,0,1,.31-1.31,2.69,2.69,0,0,1,.85-1h-1Zm5.27,2.43a2,2,0,0,0-.77-.74,2.34,2.34,0,0,0-1.13-.28,2.23,2.23,0,0,0-1.15.29,1.84,1.84,0,0,0-.75.74,2,2,0,0,0-.26,1,1.92,1.92,0,0,0,.28,1,2,2,0,0,0,.78.73,2.38,2.38,0,0,0,1.1.26,2.42,2.42,0,0,0,1.11-.26,2,2,0,0,0,.78-.73,1.92,1.92,0,0,0,.28-1A2,2,0,0,0,594.41,201.32Z"/><path class="cls-11" d="M589.65,192a2.42,2.42,0,0,1,1.84-.69h4.4v1.45h-4.06a1.65,1.65,0,0,0-1.15.33,1.35,1.35,0,0,0-.36,1A1.74,1.74,0,0,0,592.2,196h3.69v1.45h-6.75V196h1a2.18,2.18,0,0,1-.83-.9,2.92,2.92,0,0,1-.28-1.27A2.53,2.53,0,0,1,589.65,192Z"/><path class="cls-11" d="M589.14,183.3h6.75v1.41h-1a2.69,2.69,0,0,1,.85,1A2.75,2.75,0,0,1,596,187a3.12,3.12,0,0,1-.46,1.68,3.26,3.26,0,0,1-1.27,1.17,3.81,3.81,0,0,1-1.78.43,3.74,3.74,0,0,1-1.77-.43,3.19,3.19,0,0,1-1.27-1.17A3.13,3.13,0,0,1,589,187a2.64,2.64,0,0,1,.31-1.31,2.69,2.69,0,0,1,.85-1h-1Zm5.27,2.43a2,2,0,0,0-.77-.74,2.34,2.34,0,0,0-1.13-.28,2.23,2.23,0,0,0-1.15.29,1.84,1.84,0,0,0-.75.74,2,2,0,0,0-.26,1,1.92,1.92,0,0,0,.28,1,2,2,0,0,0,.78.73,2.38,2.38,0,0,0,1.1.26,2.42,2.42,0,0,0,1.11-.26,2,2,0,0,0,.78-.73,1.92,1.92,0,0,0,.28-1A2,2,0,0,0,594.41,185.73Z"/><path class="cls-11" d="M589.14,175.27h6.16a3.36,3.36,0,0,1,1.65.41,3,3,0,0,1,1.16,1.18,3.62,3.62,0,0,1,.42,1.77,4.08,4.08,0,0,1-.45,2,2.78,2.78,0,0,1-1.25,1.22l-.61-1.28a2,2,0,0,0,.73-.75,2.25,2.25,0,0,0,.28-1.15,1.79,1.79,0,0,0-.55-1.4,2,2,0,0,0-1.41-.51h-.45a2.67,2.67,0,0,1,.77.93,2.73,2.73,0,0,1,.28,1.27,3,3,0,0,1-.46,1.66,3.2,3.2,0,0,1-1.24,1.15,3.67,3.67,0,0,1-1.74.42,3.6,3.6,0,0,1-1.73-.42,3.13,3.13,0,0,1-1.24-1.15,3,3,0,0,1-.46-1.66,2.86,2.86,0,0,1,.29-1.3,2.53,2.53,0,0,1,.81-.94h-1Zm5.12,2.4a2,2,0,0,0-.75-.72,2.16,2.16,0,0,0-1.08-.27,2.14,2.14,0,0,0-1.12.28,2,2,0,0,0-.72.74,2,2,0,0,0-.24,1,2,2,0,0,0,.27,1,1.83,1.83,0,0,0,.75.71,2.19,2.19,0,0,0,1.06.26,2.08,2.08,0,0,0,1.5-.57,1.86,1.86,0,0,0,.6-1.42A1.9,1.9,0,0,0,594.26,177.67Z"/><path class="cls-11" d="M589.46,168.76a3.32,3.32,0,0,1,1.28-1.27,3.7,3.7,0,0,1,1.83-.45l.79,5.5a2,2,0,0,0,1-.78,2.06,2.06,0,0,0,.37-1.21,2.1,2.1,0,0,0-.34-1.19,2,2,0,0,0-.92-.78l.45-1.33a3.44,3.44,0,0,1,1.55,1.3,3.72,3.72,0,0,1,.12,3.82,3.39,3.39,0,0,1-1.27,1.28,3.64,3.64,0,0,1-3.58,0,3.49,3.49,0,0,1-1.26-1.27,3.6,3.6,0,0,1-.47-1.82A3.53,3.53,0,0,1,589.46,168.76Zm1.37,3.24a2.17,2.17,0,0,0,1.35.68l-.54-4a1.77,1.77,0,0,0-1.33,1.86A2,2,0,0,0,590.83,172Z"/><path class="cls-11" d="M589,162.28h1.33a3.16,3.16,0,0,0,0,.51,1.69,1.69,0,0,0,.51,1.29,2,2,0,0,0,1.44.48h3.62V166h-6.75v-1.42h1a1.91,1.91,0,0,1-.85-.74,2.26,2.26,0,0,1-.31-1.16A2.07,2.07,0,0,1,589,162.28Z"/></svg>