<svg id="Layer_1" data-name="Layer 1" xmlns="http://www.w3.org/2000/svg" xmlns:xlink="http://www.w3.org/1999/xlink" viewBox="0 0 800 492.31"><defs><style>.cls-1{fill:none;}.cls-2{fill:#e6e6e6;}.cls-3{fill:#fff;}.cls-4{fill:#ffb8cf;}.cls-5{fill:#005cff;}.cls-6{clip-path:url(#clip-path);}.cls-7{fill:#ff80aa;}.cls-8{fill:#ff403d;}.cls-9{fill:#ffc738;}.cls-10{fill:#00db91;}.cls-11{fill:#196cff;}</style><clipPath id="clip-path"><rect class="cls-1" x="712.06" y="84.05" width="17.91" height="17.91"/></clipPath></defs><polygon class="cls-2" points="800 20.76 800 471.55 779.24 471.55 779.24 492.31 20.76 492.31 20.76 471.55 0 471.55 0 20.76 20.76 20.76 20.76 0 779.24 0 779.24 20.76 800 20.76"/><path class="cls-2" d="M800,20.76H779.24V0A20.76,20.76,0,0,1,800,20.76Z"/><path class="cls-2" d="M779.24,471.55H800a20.77,20.77,0,0,1-20.76,20.76Z"/><path class="cls-2" d="M20.76,471.55v20.76A20.76,20.76,0,0,1,0,471.55Z"/><path class="cls-2" d="M20.76,0V20.76H0A20.75,20.75,0,0,1,20.76,0Z"/><rect class="cls-3" x="20.76" y="20.76" width="758.48" height="451.04"/><polygon class="cls-4" points="732.78 101.82 712.06 101.82 712.06 72.31 717.99 72.31 732.78 101.82"/><polygon class="cls-5" points="735.79 72.31 735.79 78.23 729.86 78.24 729.86 84.17 723.93 84.18 723.93 101.97 729.92 101.97 729.92 101.97 741.72 101.96 741.72 72.31 735.79 72.31"/><g class="cls-6"><circle class="cls-7" cx="712.06" cy="101.97" r="17.73"/><circle class="cls-8" cx="712.06" cy="101.97" r="8.84"/></g><rect x="709.07" y="101.97" width="35.6" height="0.59"/><path d="M84.34,89.44h3.1l-3.87,18.67H78.34L74.63,90.83,71,108.11H65.7L61.86,89.44H65l3.52,17.5,3.68-17.5h5l3.65,17.39Z"/><path d="M99.74,96a4.64,4.64,0,0,1,1.35,3.56v8.56H98.26v-7.89A3.21,3.21,0,0,0,97.62,98a2.59,2.59,0,0,0-2-.7,3.53,3.53,0,0,0-2.59,1,3.59,3.59,0,0,0-1,2.68v7.17H89.2V89.44H92v7.44a4.12,4.12,0,0,1,1.75-1.61,5.43,5.43,0,0,1,2.47-.55A4.86,4.86,0,0,1,99.74,96Z"/><path d="M116.64,95v13.12h-2.75v-2a5.21,5.21,0,0,1-1.85,1.65,5.39,5.39,0,0,1-2.55.59,6,6,0,0,1-3.27-.91,6.32,6.32,0,0,1-2.28-2.47,7.67,7.67,0,0,1,0-6.9,6.32,6.32,0,0,1,2.28-2.47,6,6,0,0,1,3.27-.91,5.39,5.39,0,0,1,2.55.59A5.21,5.21,0,0,1,113.89,97V95Zm-4.72,10.24a4,4,0,0,0,1.44-1.49,4.49,4.49,0,0,0,.53-2.19,4.36,4.36,0,0,0-.55-2.25,3.7,3.7,0,0,0-1.45-1.46,4,4,0,0,0-4,0,3.83,3.83,0,0,0-1.41,1.52,4.79,4.79,0,0,0,0,4.3,3.89,3.89,0,0,0,5.39,1.53Z"/><path d="M127.55,95v2.29h-4.08v6.91a1.55,1.55,0,0,0,.48,1.24,1.86,1.86,0,0,0,1.28.41,4.37,4.37,0,0,0,2-.48v2.51a5,5,0,0,1-1.13.35,6.46,6.46,0,0,1-1.24.13,3.65,3.65,0,0,1-4.19-4.16V97.28h-1.89V95h1.89V91.76l2.83-2.16V95Z"/><path d="M134.8,92.88a1.74,1.74,0,0,1,1.23-3,1.64,1.64,0,0,1,1.22.51,1.73,1.73,0,0,1,0,2.45,1.64,1.64,0,0,1-1.22.51A1.68,1.68,0,0,1,134.8,92.88ZM134.61,95h2.83v13.12h-2.83Z"/><path d="M141.57,107.68a4.84,4.84,0,0,1-2.32-2.34l2-1.39a4,4,0,0,0,1.52,1.45,4.45,4.45,0,0,0,2.27.6,2.9,2.9,0,0,0,1.73-.44,1.38,1.38,0,0,0,.61-1.18,1.13,1.13,0,0,0-.56-1,5.75,5.75,0,0,0-1.68-.67l-1.36-.34a7.08,7.08,0,0,1-3.12-1.5,3,3,0,0,1-1-2.24,3.61,3.61,0,0,1,.59-2A4,4,0,0,1,142,95.19a6.18,6.18,0,0,1,2.73-.55,6.47,6.47,0,0,1,3.33.81,5.06,5.06,0,0,1,2,2l-2.19,1.36a3.4,3.4,0,0,0-1.29-1.26,3.79,3.79,0,0,0-1.91-.48,2.36,2.36,0,0,0-1.51.42,1.23,1.23,0,0,0-.52,1,1,1,0,0,0,.55.92,6.71,6.71,0,0,0,1.72.63l1.46.37a6.4,6.4,0,0,1,2.94,1.43,3.17,3.17,0,0,1,.93,2.36,3.74,3.74,0,0,1-.68,2.24,4.39,4.39,0,0,1-1.86,1.49,6.39,6.39,0,0,1-2.66.54A7.72,7.72,0,0,1,141.57,107.68Z"/><path d="M165.42,95v2.29h-4.08v6.91a1.55,1.55,0,0,0,.48,1.24,1.86,1.86,0,0,0,1.28.41,4.37,4.37,0,0,0,2-.48v2.51a5,5,0,0,1-1.13.35,6.46,6.46,0,0,1-1.24.13,3.66,3.66,0,0,1-4.19-4.16V97.28h-1.89V95h1.89V91.76l2.83-2.16V95Z"/><path d="M178,96a4.64,4.64,0,0,1,1.35,3.56v8.56h-2.83v-7.89a3.21,3.21,0,0,0-.64-2.24,2.6,2.6,0,0,0-2-.7,3.52,3.52,0,0,0-2.58,1,3.59,3.59,0,0,0-1,2.68v7.17h-2.83V89.44h2.83v7.44A4.12,4.12,0,0,1,172,95.27a5.42,5.42,0,0,1,2.46-.55A4.88,4.88,0,0,1,178,96Z"/><path d="M191.79,95.6a6.49,6.49,0,0,1,2.46,2.5,7.25,7.25,0,0,1,.88,3.56l-10.7,1.54a4,4,0,0,0,1.51,1.91,4.34,4.34,0,0,0,4.68,0,4,4,0,0,0,1.52-1.8l2.59.88a6.77,6.77,0,0,1-2.54,3,7.28,7.28,0,0,1-7.42.24,6.69,6.69,0,0,1-2.5-2.48,7.16,7.16,0,0,1,0-7,6.75,6.75,0,0,1,2.48-2.47,7.33,7.33,0,0,1,7,0Zm-6.3,2.67a4.19,4.19,0,0,0-1.32,2.64l7.73-1.07a3.46,3.46,0,0,0-3.63-2.58A3.92,3.92,0,0,0,185.49,98.27Z"/><path d="M215.05,89.44v18.67H212.3v-2a5.21,5.21,0,0,1-1.85,1.65,5.39,5.39,0,0,1-2.55.59,6,6,0,0,1-3.26-.91,6.42,6.42,0,0,1-2.29-2.47,7.67,7.67,0,0,1,0-6.9,6.42,6.42,0,0,1,2.29-2.47,6,6,0,0,1,3.26-.91,5.39,5.39,0,0,1,2.48.56,5.18,5.18,0,0,1,1.84,1.58V89.44Zm-4.72,15.79a4,4,0,0,0,1.44-1.49,4.87,4.87,0,0,0,0-4.44,3.79,3.79,0,0,0-1.46-1.46,3.87,3.87,0,0,0-1.94-.5,3.78,3.78,0,0,0-3.42,2.06,4.87,4.87,0,0,0,0,4.3,3.89,3.89,0,0,0,5.39,1.53Z"/><path d="M218.12,92.88a1.73,1.73,0,0,1,0-2.45,1.64,1.64,0,0,1,1.22-.51,1.74,1.74,0,1,1,0,3.47A1.64,1.64,0,0,1,218.12,92.88ZM217.93,95h2.83v13.12h-2.83Z"/><path d="M236.49,95v13.12h-2.74v-2a5.24,5.24,0,0,1-1.86,1.65,5.39,5.39,0,0,1-2.55.59,6,6,0,0,1-3.26-.91A6.32,6.32,0,0,1,223.8,105a7.59,7.59,0,0,1,0-6.9,6.32,6.32,0,0,1,2.28-2.47,6,6,0,0,1,3.26-.91,5.39,5.39,0,0,1,2.55.59A5.24,5.24,0,0,1,233.75,97V95Zm-4.72,10.24a3.82,3.82,0,0,0,1.44-1.49,4.39,4.39,0,0,0,.54-2.19,4.46,4.46,0,0,0-.55-2.25,3.84,3.84,0,0,0-1.45-1.46,3.93,3.93,0,0,0-1.95-.5,3.78,3.78,0,0,0-3.42,2.06,4.87,4.87,0,0,0,0,4.3,3.89,3.89,0,0,0,5.39,1.53Z"/><path d="M257,95.9a4.48,4.48,0,0,1,1.2,3.36v8.85h-2.83V99.74a2.65,2.65,0,0,0-.56-1.87,2.21,2.21,0,0,0-1.68-.59,2.82,2.82,0,0,0-2,.87,3.18,3.18,0,0,0-.88,2.36v7.6h-2.82V99.74a2.65,2.65,0,0,0-.56-1.87,2.24,2.24,0,0,0-1.68-.59,2.77,2.77,0,0,0-2,.88,3.24,3.24,0,0,0-.87,2.38v7.57h-2.83V95h2.83v1.79a3.76,3.76,0,0,1,1.52-1.54,4.47,4.47,0,0,1,2.13-.52,4.42,4.42,0,0,1,2.31.6,3.39,3.39,0,0,1,1.45,1.78,5.13,5.13,0,0,1,1.78-1.75,4.74,4.74,0,0,1,2.44-.63A4.25,4.25,0,0,1,257,95.9Z"/><path d="M270.6,95.6a6.49,6.49,0,0,1,2.46,2.5,7.25,7.25,0,0,1,.88,3.56l-10.7,1.54a3.91,3.91,0,0,0,1.51,1.91,4.34,4.34,0,0,0,4.68,0,4,4,0,0,0,1.52-1.8l2.59.88a6.77,6.77,0,0,1-2.54,3,7.28,7.28,0,0,1-7.42.24,6.69,6.69,0,0,1-2.5-2.48,7.09,7.09,0,0,1,0-7,6.75,6.75,0,0,1,2.48-2.47,7.33,7.33,0,0,1,7,0Zm-6.31,2.67a4.23,4.23,0,0,0-1.31,2.64l7.73-1.07a3.46,3.46,0,0,0-3.63-2.58A4,4,0,0,0,264.29,98.27Z"/><path d="M283.32,95v2.29h-4.08v6.91a1.55,1.55,0,0,0,.48,1.24,1.88,1.88,0,0,0,1.28.41,4.38,4.38,0,0,0,2-.48v2.51a5,5,0,0,1-1.14.35,6.3,6.3,0,0,1-1.24.13,3.65,3.65,0,0,1-4.18-4.16V97.28h-1.9V95h1.9V91.76l2.82-2.16V95Z"/><path d="M294.5,95.6A6.4,6.4,0,0,1,297,98.1a7.15,7.15,0,0,1,.88,3.56l-10.69,1.54a3.89,3.89,0,0,0,1.5,1.91,4.36,4.36,0,0,0,4.69,0,4,4,0,0,0,1.52-1.8l2.58.88a6.75,6.75,0,0,1-2.53,3,7.3,7.3,0,0,1-7.43.24A6.59,6.59,0,0,1,285,105a7.09,7.09,0,0,1,0-7,6.68,6.68,0,0,1,2.48-2.47,7.33,7.33,0,0,1,7,0Zm-6.31,2.67a4.19,4.19,0,0,0-1.32,2.64l7.74-1.07A3.46,3.46,0,0,0,291,97.26,4,4,0,0,0,288.19,98.27Z"/><path d="M307.09,94.78v2.58a7.3,7.3,0,0,0-1-.08,3.31,3.31,0,0,0-2.51,1,4,4,0,0,0-.93,2.79v7h-2.83V95h2.78v2a3.52,3.52,0,0,1,1.44-1.64,4.19,4.19,0,0,1,2.24-.6A4,4,0,0,1,307.09,94.78Z"/><path d="M316.26,107.54a6.61,6.61,0,0,1-2.48-2.47,7.26,7.26,0,0,1,0-7,6.61,6.61,0,0,1,2.48-2.47,7.05,7.05,0,0,1,3.52-.89,7.16,7.16,0,0,1,3.54.89A6.56,6.56,0,0,1,325.81,98a7.26,7.26,0,0,1,0,7,6.56,6.56,0,0,1-2.49,2.47,7.16,7.16,0,0,1-3.54.89A7.05,7.05,0,0,1,316.26,107.54Zm5.56-2.32a4,4,0,0,0,1.46-1.51,4.67,4.67,0,0,0,0-4.32,4,4,0,0,0-1.46-1.51,3.94,3.94,0,0,0-2-.54,4,4,0,0,0-2,.54,4,4,0,0,0-1.44,1.51,4.75,4.75,0,0,0,0,4.32,4,4,0,0,0,1.44,1.51,4,4,0,0,0,2,.54A3.94,3.94,0,0,0,321.82,105.22Z"/><path d="M329.38,97.28h-1.89V95h1.89V93.23a3.65,3.65,0,0,1,4.19-4.16,6.38,6.38,0,0,1,1.24.13,5,5,0,0,1,1.13.35v2.5a4.46,4.46,0,0,0-2-.47,1.88,1.88,0,0,0-1.28.41,1.54,1.54,0,0,0-.48,1.24V95h3.73v2.29h-3.73v10.83h-2.83Z"/><path d="M346,105.31h10v2.8h-13V89.44h12.7v2.8H346v4.83h9v2.8h-9Z"/><path d="M371,95v13.12h-2.75v-2a5.13,5.13,0,0,1-1.85,1.65,5.39,5.39,0,0,1-2.55.59,6,6,0,0,1-3.26-.91,6.32,6.32,0,0,1-2.28-2.47,7.59,7.59,0,0,1,0-6.9,6.32,6.32,0,0,1,2.28-2.47,6,6,0,0,1,3.26-.91,5.39,5.39,0,0,1,2.55.59A5.13,5.13,0,0,1,368.21,97V95Zm-4.72,10.24a3.82,3.82,0,0,0,1.44-1.49,4.38,4.38,0,0,0,.53-2.19,4.46,4.46,0,0,0-.54-2.25,3.79,3.79,0,0,0-1.46-1.46,3.87,3.87,0,0,0-1.94-.5,3.78,3.78,0,0,0-3.42,2.06,4.87,4.87,0,0,0,0,4.3,3.89,3.89,0,0,0,5.39,1.53Z"/><path d="M381.1,94.78v2.58a7.3,7.3,0,0,0-1-.08,3.29,3.29,0,0,0-2.51,1,4,4,0,0,0-.93,2.79v7h-2.83V95h2.78v2a3.52,3.52,0,0,1,1.44-1.64,4.19,4.19,0,0,1,2.24-.6A4,4,0,0,1,381.1,94.78Z"/><path d="M391,95v2.29H387v6.91a1.55,1.55,0,0,0,.48,1.24,1.88,1.88,0,0,0,1.28.41,4.38,4.38,0,0,0,2-.48v2.51a5.15,5.15,0,0,1-1.14.35,6.3,6.3,0,0,1-1.24.13,3.65,3.65,0,0,1-4.18-4.16V97.28h-1.9V95h1.9V91.76L387,89.6V95Z"/><path d="M403.62,96A4.64,4.64,0,0,1,405,99.55v8.56h-2.83v-7.89A3.21,3.21,0,0,0,401.5,98a2.62,2.62,0,0,0-2-.7,3.55,3.55,0,0,0-2.59,1,3.62,3.62,0,0,0-1,2.68v7.17h-2.83V89.44h2.83v7.44a4.1,4.1,0,0,1,1.74-1.61,5.46,5.46,0,0,1,2.47-.55A4.9,4.9,0,0,1,403.62,96Z"/><path d="M410.17,100a5.77,5.77,0,0,1,1.65-2.14l.75-.64A9.83,9.83,0,0,0,414,95.75a2.57,2.57,0,0,0,.49-1.54,2.23,2.23,0,0,0-.69-1.69,2.7,2.7,0,0,0-1.92-.65,3,3,0,0,0-2.09.75,4,4,0,0,0-1.19,2.1l-2.83-.82a6.45,6.45,0,0,1,2.08-3.34,5.92,5.92,0,0,1,4-1.36,6.58,6.58,0,0,1,3,.64,4.78,4.78,0,0,1,2,1.75,4.7,4.7,0,0,1,.68,2.49,4.56,4.56,0,0,1-.76,2.64,13.6,13.6,0,0,1-2.12,2.3l-.75.66a3.94,3.94,0,0,0-1,1.27,3.41,3.41,0,0,0-.28,1.43V103h-2.8A7.83,7.83,0,0,1,410.17,100Zm-.14,7.79a1.73,1.73,0,0,1-.53-1.27,1.68,1.68,0,0,1,.52-1.25,1.9,1.9,0,0,1,2.59,0,1.76,1.76,0,0,1,0,2.52,1.84,1.84,0,0,1-2.56,0Z"/><rect class="cls-9" x="517.22" y="342.85" width="50.61" height="41.65" transform="translate(1085.04 727.36) rotate(180)"/><rect class="cls-10" x="374.69" y="205.13" width="50.61" height="179.38" transform="translate(800 589.63) rotate(180)"/><rect class="cls-11" x="232.17" y="323.68" width="50.61" height="60.82" transform="translate(514.95 708.18) rotate(180)"/><rect x="177.49" y="383" width="445.01" height="3"/><path d="M237.8,405a3.15,3.15,0,0,1,1.25,1.23,3.66,3.66,0,0,1,.44,1.8,3.57,3.57,0,0,1-.48,1.85,3.5,3.5,0,0,1-1.32,1.27,3.89,3.89,0,0,1-1.87.46,3.8,3.8,0,0,1-2-.53,3.64,3.64,0,0,1-1.41-1.6,6.09,6.09,0,0,1-.53-2.68,9.44,9.44,0,0,1,.56-3.47,4.58,4.58,0,0,1,1.49-2.06,3.62,3.62,0,0,1,2.12-.66,3.4,3.4,0,0,1,2,.58,3.15,3.15,0,0,1,1.17,1.56l-1.08.42a2.54,2.54,0,0,0-.8-1.05,2.16,2.16,0,0,0-1.34-.41,2.42,2.42,0,0,0-2,1.14,6.25,6.25,0,0,0-.88,3.36,2.63,2.63,0,0,1,1.15-1.21,3.5,3.5,0,0,1,1.72-.44A3.57,3.57,0,0,1,237.8,405Zm-.25,4.8a2.43,2.43,0,0,0,.68-1.77,2.31,2.31,0,0,0-.67-1.72,2.38,2.38,0,0,0-1.73-.66,2.7,2.7,0,0,0-1.27.3,2.33,2.33,0,0,0-.91.85,2.62,2.62,0,0,0,0,2.51,2.33,2.33,0,0,0,.9.86,2.57,2.57,0,0,0,1.27.31A2.37,2.37,0,0,0,237.55,409.77Z"/><path d="M246.93,406.83a2.67,2.67,0,0,1,.48,1.54A3.1,3.1,0,0,1,247,410a3,3,0,0,1-1.21,1.17,3.69,3.69,0,0,1-1.86.45,4.32,4.32,0,0,1-1.76-.35,3.39,3.39,0,0,1-1.28-.93,3,3,0,0,1-.67-1.34l1.15-.36a2.55,2.55,0,0,0,.87,1.33,2.52,2.52,0,0,0,1.67.54,2.42,2.42,0,0,0,1.2-.29,2,2,0,0,0,.79-.77,2.1,2.1,0,0,0,.27-1,1.86,1.86,0,0,0-.63-1.44,2.37,2.37,0,0,0-1.68-.58h-.48v-1h.48a2,2,0,0,0,1.46-.55,1.8,1.8,0,0,0,.57-1.36,1.6,1.6,0,0,0-.54-1.23,2.05,2.05,0,0,0-1.47-.51,2.22,2.22,0,0,0-2.22,1.72l-1.12-.35a3.55,3.55,0,0,1,1.19-1.78,3.37,3.37,0,0,1,2.18-.69,3.73,3.73,0,0,1,1.72.37,2.89,2.89,0,0,1,1.11,1,2.7,2.7,0,0,1-1.16,3.82A2.88,2.88,0,0,1,246.93,406.83Z"/><path d="M248.23,400.76h6.58v1.14a14.77,14.77,0,0,0-1.88,2.71,20.68,20.68,0,0,0-1.51,3.39,14.72,14.72,0,0,0-.74,3.39h-1.34a13.62,13.62,0,0,1,.76-3.36,21.36,21.36,0,0,1,1.53-3.41,14.84,14.84,0,0,1,1.9-2.72h-5.3Z"/><path d="M259.49,400.76v10.63h-1.23v-8.2a3.69,3.69,0,0,1-1.23,1,3.39,3.39,0,0,1-1.45.35V403.4a2.64,2.64,0,0,0,1.23-.33,2.93,2.93,0,0,0,1-.94,2.4,2.4,0,0,0,.41-1.37Z"/><path d="M265,400.76h1.22v10.63H265Zm2.72,6.55,3.71,4.08h-1.6l-3.61-4.08,3.38-3.39h1.55Z"/><path d="M282.23,404.4a2.45,2.45,0,0,1,.66,1.84v5.15h-1.22V406.5a1.74,1.74,0,0,0-.37-1.24,1.45,1.45,0,0,0-1.1-.39,1.74,1.74,0,0,0-.94.27,1.92,1.92,0,0,0-.71.78,2.49,2.49,0,0,0-.27,1.19v4.28h-1.21V406.5a1.78,1.78,0,0,0-.37-1.24,1.47,1.47,0,0,0-1.11-.39,1.79,1.79,0,0,0-.94.27,1.9,1.9,0,0,0-.7.78,2.49,2.49,0,0,0-.27,1.19v4.28h-1.22v-7.47h1.2v1.14a2.37,2.37,0,0,1,.92-1,2.62,2.62,0,0,1,1.3-.33,2.52,2.52,0,0,1,1.37.36,1.93,1.93,0,0,1,.81,1.06,2.63,2.63,0,0,1,1-1,2.66,2.66,0,0,1,1.43-.38A2.38,2.38,0,0,1,282.23,404.4Z"/><path d="M374.46,400.76v10.63h-1.23v-8.2a3.63,3.63,0,0,1-1.24,1,3.31,3.31,0,0,1-1.44.35V403.4a2.6,2.6,0,0,0,1.22-.33,2.93,2.93,0,0,0,1-.94,2.34,2.34,0,0,0,.42-1.37Z"/><path d="M377.23,408.94a5.6,5.6,0,0,1,2-2l1.15-.76a11.27,11.27,0,0,0,1.15-.84,2.86,2.86,0,0,0,.65-.8,2.13,2.13,0,0,0,.24-1,1.73,1.73,0,0,0-.54-1.29,2.05,2.05,0,0,0-1.51-.54,2.18,2.18,0,0,0-1.56.56,3.15,3.15,0,0,0-.84,1.4l-1.14-.34a3.68,3.68,0,0,1,1.25-2,3.52,3.52,0,0,1,2.32-.76,3.45,3.45,0,0,1,1.74.41,2.83,2.83,0,0,1,1.14,1.08,3.12,3.12,0,0,1-.27,3.4,8.63,8.63,0,0,1-1.94,1.64l-1.1.7a3.86,3.86,0,0,0-1.93,2.4h5.71v1.15h-7.05A5.18,5.18,0,0,1,377.23,408.94Z"/><path d="M384.71,400.76h6.58v1.14a14.77,14.77,0,0,0-1.88,2.71A20.68,20.68,0,0,0,387.9,408a14.72,14.72,0,0,0-.74,3.39h-1.34a14.09,14.09,0,0,1,.76-3.36,21.4,21.4,0,0,1,1.54-3.41,14.37,14.37,0,0,1,1.9-2.72h-5.31Z"/><path d="M399,407.75v1.09h-1.63v2.55h-1.24v-2.55h-5v-1.09l4.44-7h1.77v7Zm-6.63,0h3.76v-5.9Z"/><path d="M400.23,408.94a5.69,5.69,0,0,1,2-2l1.16-.76a12.18,12.18,0,0,0,1.14-.84,2.9,2.9,0,0,0,.66-.8,2.25,2.25,0,0,0,.23-1,1.73,1.73,0,0,0-.54-1.29,2,2,0,0,0-1.51-.54,2.18,2.18,0,0,0-1.56.56,3.15,3.15,0,0,0-.84,1.4l-1.14-.34a3.68,3.68,0,0,1,1.25-2,3.56,3.56,0,0,1,2.32-.76,3.51,3.51,0,0,1,1.75.41,2.85,2.85,0,0,1,1.52,2.53,3,3,0,0,1-.66,1.95,8.41,8.41,0,0,1-1.94,1.64l-1.1.7a3.84,3.84,0,0,0-1.92,2.4h5.71v1.15h-7.05A5.18,5.18,0,0,1,400.23,408.94Z"/><path d="M411.1,400.76h1.22v10.63H411.1Zm2.72,6.55,3.71,4.08h-1.59l-3.62-4.08,3.39-3.39h1.55Z"/><path d="M428.32,404.4a2.49,2.49,0,0,1,.65,1.84v5.15h-1.21V406.5a1.74,1.74,0,0,0-.38-1.24,1.43,1.43,0,0,0-1.1-.39,1.77,1.77,0,0,0-.94.27,2,2,0,0,0-.71.78,2.61,2.61,0,0,0-.26,1.19v4.28h-1.22V406.5a1.74,1.74,0,0,0-.37-1.24,1.45,1.45,0,0,0-1.1-.39,1.77,1.77,0,0,0-.94.27,1.92,1.92,0,0,0-.71.78,2.49,2.49,0,0,0-.26,1.19v4.28h-1.22v-7.47h1.2v1.14a2.31,2.31,0,0,1,.92-1,2.76,2.76,0,0,1,2.67,0,1.92,1.92,0,0,1,.8,1.06,2.71,2.71,0,0,1,2.43-1.42A2.42,2.42,0,0,1,428.32,404.4Z"/><path d="M516.07,400.76v10.63h-1.23v-8.2a3.69,3.69,0,0,1-1.23,1,3.39,3.39,0,0,1-1.45.35V403.4a2.64,2.64,0,0,0,1.23-.33,3,3,0,0,0,1-.94,2.4,2.4,0,0,0,.41-1.37Z"/><path d="M524.31,405a3.15,3.15,0,0,1,1.25,1.23,3.85,3.85,0,0,1,0,3.65,3.5,3.5,0,0,1-1.32,1.27,3.89,3.89,0,0,1-1.87.46,3.8,3.8,0,0,1-2-.53,3.64,3.64,0,0,1-1.41-1.6,6.09,6.09,0,0,1-.53-2.68,9.44,9.44,0,0,1,.56-3.47,4.58,4.58,0,0,1,1.49-2.06,3.62,3.62,0,0,1,2.12-.66,3.38,3.38,0,0,1,2,.58,3.15,3.15,0,0,1,1.17,1.56l-1.08.42a2.54,2.54,0,0,0-.8-1.05,2.16,2.16,0,0,0-1.34-.41,2.39,2.39,0,0,0-2,1.14,6.15,6.15,0,0,0-.89,3.36A2.63,2.63,0,0,1,520.8,405a3.51,3.51,0,0,1,1.73-.44A3.56,3.56,0,0,1,524.31,405Zm-.25,4.8a2.39,2.39,0,0,0,.68-1.77,2.31,2.31,0,0,0-.67-1.72,2.38,2.38,0,0,0-1.73-.66,2.7,2.7,0,0,0-1.27.3,2.33,2.33,0,0,0-.91.85,2.62,2.62,0,0,0,0,2.51,2.33,2.33,0,0,0,.9.86,2.57,2.57,0,0,0,1.27.31A2.37,2.37,0,0,0,524.06,409.77Z"/><path d="M532.69,405.1a3.11,3.11,0,0,1,1.24,1.25,3.46,3.46,0,0,1,.43,1.7,3.63,3.63,0,0,1-.43,1.75,3.36,3.36,0,0,1-1.25,1.29,3.75,3.75,0,0,1-1.92.49,4,4,0,0,1-2.53-.8,3.39,3.39,0,0,1-1.28-2l1.15-.37a2.83,2.83,0,0,0,.9,1.49,2.48,2.48,0,0,0,1.73.6,2.38,2.38,0,0,0,1.27-.33,2.27,2.27,0,0,0,.83-.88,2.58,2.58,0,0,0,.29-1.19,2.42,2.42,0,0,0-.3-1.19A2.34,2.34,0,0,0,532,406a2.44,2.44,0,0,0-1.28-.33,2.92,2.92,0,0,0-1.27.27,2.72,2.72,0,0,0-.93.73l-1.14-.13.51-5.79h5.93v1.14H529l-.33,3.49a3.47,3.47,0,0,1,2.22-.76A3.63,3.63,0,0,1,532.69,405.1Z"/><path d="M541.21,405.1a3.11,3.11,0,0,1,1.24,1.25,3.47,3.47,0,0,1,.44,1.7,3.64,3.64,0,0,1-.44,1.75,3.29,3.29,0,0,1-1.25,1.29,3.75,3.75,0,0,1-1.92.49,4,4,0,0,1-2.53-.8,3.39,3.39,0,0,1-1.28-2l1.16-.37a2.88,2.88,0,0,0,.89,1.49,2.5,2.5,0,0,0,1.73.6,2.38,2.38,0,0,0,1.27-.33,2.2,2.2,0,0,0,.83-.88,2.58,2.58,0,0,0,.29-1.19,2.42,2.42,0,0,0-.3-1.19,2.26,2.26,0,0,0-.84-.87,2.41,2.41,0,0,0-1.28-.33A2.87,2.87,0,0,0,538,406a2.76,2.76,0,0,0-.94.73l-1.14-.13.52-5.79h5.92v1.14h-4.84l-.34,3.49a3.47,3.47,0,0,1,2.22-.76A3.61,3.61,0,0,1,541.21,405.1Z"/><path d="M543.69,400.76h6.58v1.14a14.77,14.77,0,0,0-1.88,2.71,20.68,20.68,0,0,0-1.51,3.39,14.72,14.72,0,0,0-.74,3.39H544.8a13.62,13.62,0,0,1,.76-3.36,21.36,21.36,0,0,1,1.53-3.41,14.84,14.84,0,0,1,1.9-2.72h-5.3Z"/><path d="M554.54,400.76h1.21v10.63h-1.21Zm2.72,6.55,3.71,4.08h-1.6l-3.62-4.08,3.39-3.39h1.55Z"/><path d="M571.75,404.4a2.45,2.45,0,0,1,.66,1.84v5.15h-1.22V406.5a1.74,1.74,0,0,0-.37-1.24,1.46,1.46,0,0,0-1.1-.39,1.74,1.74,0,0,0-.94.27,1.92,1.92,0,0,0-.71.78,2.49,2.49,0,0,0-.27,1.19v4.28h-1.21V406.5a1.78,1.78,0,0,0-.37-1.24,1.47,1.47,0,0,0-1.11-.39,1.79,1.79,0,0,0-.94.27,1.9,1.9,0,0,0-.7.78,2.49,2.49,0,0,0-.27,1.19v4.28H562v-7.47h1.2v1.14a2.37,2.37,0,0,1,.92-1,2.62,2.62,0,0,1,1.3-.33,2.52,2.52,0,0,1,1.37.36,1.93,1.93,0,0,1,.81,1.06,2.63,2.63,0,0,1,1-1,2.66,2.66,0,0,1,1.43-.38A2.38,2.38,0,0,1,571.75,404.4Z"/><path class="cls-10" d="M395.78,196.37a1.51,1.51,0,0,1-1.08-.46l-6.48-6.75a1.5,1.5,0,0,1,2.17-2.08l5.32,5.55,13.83-16.48a1.5,1.5,0,0,1,2.3,1.93l-14.91,17.76a1.49,1.49,0,0,1-1.1.53Z"/><path class="cls-8" d="M250,314.92a1.46,1.46,0,0,1-1-.35,1.49,1.49,0,0,1-.19-2.11l14.91-17.76a1.5,1.5,0,0,1,2.3,1.93l-14.91,17.76A1.51,1.51,0,0,1,250,314.92Z"/><path class="cls-8" d="M264.93,314.92a1.51,1.51,0,0,1-1.15-.53l-14.91-17.76a1.5,1.5,0,0,1,2.3-1.93l14.91,17.76a1.49,1.49,0,0,1-.19,2.11A1.46,1.46,0,0,1,264.93,314.92Z"/><path class="cls-8" d="M533.54,334.72a1.5,1.5,0,0,1-1.15-2.47L547.3,314.5a1.5,1.5,0,1,1,2.3,1.93l-14.91,17.75A1.52,1.52,0,0,1,533.54,334.72Z"/><path class="cls-8" d="M548.45,334.72a1.52,1.52,0,0,1-1.15-.54l-14.91-17.75a1.5,1.5,0,1,1,2.3-1.93l14.91,17.75a1.5,1.5,0,0,1-1.15,2.47Z"/><path class="cls-3" d="M395.12,221.05a3.64,3.64,0,0,1,1.31-1.32l.77-.51a6.79,6.79,0,0,0,.77-.56,1.93,1.93,0,0,0,.43-.53,1.39,1.39,0,0,0,.16-.68,1.19,1.19,0,0,0-.36-.87,1.41,1.41,0,0,0-1-.35,1.44,1.44,0,0,0-1,.37,2.08,2.08,0,0,0-.56.94l-.76-.24a2.5,2.5,0,0,1,.83-1.3,2.63,2.63,0,0,1,2.72-.24,2,2,0,0,1,.75.73,1.93,1.93,0,0,1,.26,1,2,2,0,0,1-.44,1.29,5.49,5.49,0,0,1-1.29,1.1l-.73.47a2.55,2.55,0,0,0-1.29,1.6h3.81v.77h-4.7A3.45,3.45,0,0,1,395.12,221.05Z"/><path class="cls-3" d="M404.18,218.4a2.18,2.18,0,0,1,.83.82,2.56,2.56,0,0,1,0,2.44,2.25,2.25,0,0,1-.89.84,2.46,2.46,0,0,1-1.24.31,2.61,2.61,0,0,1-1.32-.35,2.42,2.42,0,0,1-.94-1.07,4.09,4.09,0,0,1-.35-1.78,6.23,6.23,0,0,1,.37-2.32,2.94,2.94,0,0,1,1-1.37,2.37,2.37,0,0,1,1.41-.45,2.3,2.3,0,0,1,1.36.39,2.2,2.2,0,0,1,.78,1l-.72.28a1.64,1.64,0,0,0-.54-.7,1.43,1.43,0,0,0-.89-.27,1.6,1.6,0,0,0-1.36.76,4.16,4.16,0,0,0-.59,2.24,1.72,1.72,0,0,1,.77-.81,2.31,2.31,0,0,1,1.15-.29A2.36,2.36,0,0,1,404.18,218.4Zm-.17,3.2a1.55,1.55,0,0,0,.46-1.17,1.52,1.52,0,0,0-.45-1.15,1.57,1.57,0,0,0-1.15-.45,1.73,1.73,0,0,0-.85.21,1.46,1.46,0,0,0-.61.57,1.63,1.63,0,0,0-.22.83,1.7,1.7,0,0,0,.22.84,1.64,1.64,0,0,0,.6.57,1.73,1.73,0,0,0,.85.21A1.54,1.54,0,0,0,404,221.6Z"/><path class="cls-3" d="M260.17,338.85v.73h-1.08v1.7h-.82v-1.7h-3.33v-.73l2.71-4.67h1.44v4.67Zm-4.4,0h2.5v-4.3Z"/><path class="cls-3" d="M540.54,358.61a3.81,3.81,0,0,1,1.31-1.32l.77-.51a7.13,7.13,0,0,0,.77-.56,1.87,1.87,0,0,0,.44-.54A1.45,1.45,0,0,0,544,355a1.18,1.18,0,0,0-.36-.86,1.39,1.39,0,0,0-1-.35,1.42,1.42,0,0,0-1,.37,2.09,2.09,0,0,0-.57.94l-.76-.24a2.46,2.46,0,0,1,.84-1.3,2.34,2.34,0,0,1,1.54-.51,2.41,2.41,0,0,1,1.17.27,2,2,0,0,1,.76.73,1.92,1.92,0,0,1,.25,1,2,2,0,0,1-.43,1.29,5.56,5.56,0,0,1-1.3,1.1l-.73.46a2.56,2.56,0,0,0-1.29,1.61h3.81v.77h-4.7A3.42,3.42,0,0,1,540.54,358.61Z"/></svg>