<svg id="Layer_1" data-name="Layer 1" xmlns="http://www.w3.org/2000/svg" xmlns:xlink="http://www.w3.org/1999/xlink" viewBox="0 0 799.34 491.9"><defs><style>.cls-1{fill:none;}.cls-2{fill:#e6e6e6;}.cls-3{fill:#fff;}.cls-4{fill:#6e54bd;}.cls-5{fill:#ff80ab;}.cls-6{fill:#ff403d;}.cls-7{fill:#00db91;}.cls-8{fill:#ffb8cf;}.cls-9{fill:#005cff;}.cls-10{clip-path:url(#clip-path);}.cls-11{fill:#ff80aa;}</style><clipPath id="clip-path"><rect class="cls-1" x="711.48" y="83.99" width="17.9" height="17.9"/></clipPath></defs><polygon class="cls-2" points="799.34 20.74 799.34 471.16 778.6 471.16 778.6 491.9 20.74 491.9 20.74 471.16 0 471.16 0 20.74 20.74 20.74 20.74 0 778.6 0 778.6 20.74 799.34 20.74"/><path class="cls-2" d="M799.34,20.74H778.6V0A20.75,20.75,0,0,1,799.34,20.74Z"/><path class="cls-2" d="M778.6,471.16h20.74A20.74,20.74,0,0,1,778.6,491.9Z"/><path class="cls-2" d="M20.74,471.16V491.9A20.74,20.74,0,0,1,0,471.16Z"/><path class="cls-2" d="M20.74,0V20.74H0A20.75,20.75,0,0,1,20.74,0Z"/><rect class="cls-3" x="20.74" y="20.74" width="757.86" height="450.66"/><rect class="cls-4" x="439.65" y="204.96" width="50.57" height="179.23" transform="translate(929.86 589.15) rotate(180)"/><rect class="cls-5" x="569.1" y="204.96" width="50.57" height="179.23" transform="translate(1188.77 589.15) rotate(180)"/><rect class="cls-6" x="310.2" y="320.83" width="50.57" height="63.36" transform="translate(670.96 705.02) rotate(180)"/><rect class="cls-7" x="180.74" y="286.95" width="50.57" height="97.25" transform="translate(412.05 671.14) rotate(180)"/><rect x="137.65" y="382.69" width="524.05" height="3"/><path d="M167.21,411.06h-1.69V400.43h1.69Z"/><path d="M174.94,404.16a2.64,2.64,0,0,1,.77,2v4.88H174.1v-4.5a1.8,1.8,0,0,0-.37-1.27,1.46,1.46,0,0,0-1.15-.4,2,2,0,0,0-1.47.56,2,2,0,0,0-.56,1.52v4.09h-1.61v-7.47h1.61v1.08a2.25,2.25,0,0,1,1-.92,3.09,3.09,0,0,1,1.4-.31A2.8,2.8,0,0,1,174.94,404.16Z"/><path d="M178,410.81a2.79,2.79,0,0,1-1.32-1.33l1.16-.79a2.29,2.29,0,0,0,.86.83,2.64,2.64,0,0,0,1.29.34,1.72,1.72,0,0,0,1-.25.8.8,0,0,0,.35-.68.65.65,0,0,0-.32-.56,3.22,3.22,0,0,0-1-.38l-.77-.2a3.94,3.94,0,0,1-1.78-.85,1.72,1.72,0,0,1-.54-1.27,2,2,0,0,1,.33-1.13,2.33,2.33,0,0,1,1-.84,3.53,3.53,0,0,1,1.56-.31,3.63,3.63,0,0,1,1.89.46,2.77,2.77,0,0,1,1.11,1.12l-1.24.77a2,2,0,0,0-.74-.71,2.16,2.16,0,0,0-1.08-.27,1.4,1.4,0,0,0-.86.23.72.72,0,0,0-.3.59.6.6,0,0,0,.31.52,3.64,3.64,0,0,0,1,.36l.84.21a3.62,3.62,0,0,1,1.67.81,1.83,1.83,0,0,1,.53,1.35,2.13,2.13,0,0,1-.39,1.27,2.49,2.49,0,0,1-1.06.85,3.67,3.67,0,0,1-1.51.3A4.36,4.36,0,0,1,178,410.81Z"/><path d="M189.94,404a3.61,3.61,0,0,1,1.3,1.41,4.34,4.34,0,0,1,0,3.93,3.58,3.58,0,0,1-1.3,1.4,3.39,3.39,0,0,1-1.86.52,3.05,3.05,0,0,1-1.41-.32,3,3,0,0,1-1-.88v3.78H184v-10.2h1.57v1.12a3,3,0,0,1,1-.94,3.07,3.07,0,0,1,1.45-.33A3.47,3.47,0,0,1,189.94,404Zm-1,5.46a2.19,2.19,0,0,0,.81-.87,2.58,2.58,0,0,0,.28-1.22,2.64,2.64,0,0,0-.28-1.22,2.16,2.16,0,0,0-2-1.18,2.1,2.1,0,0,0-1.12.31,2.17,2.17,0,0,0-.82.85,2.53,2.53,0,0,0-.3,1.24,2.45,2.45,0,0,0,.31,1.28,2.11,2.11,0,0,0,.82.83,2.19,2.19,0,0,0,1.11.29A2.12,2.12,0,0,0,189,409.41Z"/><path d="M193.09,402.39a1,1,0,1,1,.7.29A1,1,0,0,1,193.09,402.39Zm-.1,1.2h1.6v7.47H193Z"/><path d="M200.35,403.47v1.47a3.87,3.87,0,0,0-.56-.05,1.85,1.85,0,0,0-1.43.57,2.22,2.22,0,0,0-.53,1.59v4h-1.61v-7.47h1.58v1.12a2,2,0,0,1,.82-.93,2.37,2.37,0,0,1,1.27-.34A2.61,2.61,0,0,1,200.35,403.47Z"/><path d="M208.38,403.59v7.47h-1.56v-1.13a3,3,0,0,1-2.51,1.28,3.39,3.39,0,0,1-1.86-.52,3.66,3.66,0,0,1-1.3-1.4,4.34,4.34,0,0,1,0-3.93,3.68,3.68,0,0,1,1.3-1.41,3.47,3.47,0,0,1,1.86-.51,2.92,2.92,0,0,1,2.51,1.27v-1.12Zm-2.69,5.83a2.16,2.16,0,0,0,.82-.85,2.57,2.57,0,0,0,.31-1.25,2.51,2.51,0,0,0-.32-1.28,2.11,2.11,0,0,0-.82-.83,2.3,2.3,0,0,0-1.11-.29,2.21,2.21,0,0,0-1.14.31,2.17,2.17,0,0,0-.8.87,2.53,2.53,0,0,0-.29,1.22,2.47,2.47,0,0,0,.29,1.22,2.17,2.17,0,0,0,.8.87,2.12,2.12,0,0,0,1.14.31A2.19,2.19,0,0,0,205.69,409.42Z"/><path d="M214.59,403.59v1.3h-2.32v3.94a.88.88,0,0,0,.27.7,1.05,1.05,0,0,0,.73.24,2.38,2.38,0,0,0,1.12-.28v1.43a2.85,2.85,0,0,1-.64.2,3.78,3.78,0,0,1-.71.07,2.45,2.45,0,0,1-1.8-.58,2.41,2.41,0,0,1-.58-1.78v-3.94h-1.08v-1.3h1.08v-1.84l1.61-1.23v3.07Z"/><path d="M215.85,402.39a1,1,0,0,1,0-1.4,1,1,0,0,1,.7-.29,1,1,0,0,1,.7.29,1,1,0,0,1,0,1.4,1,1,0,0,1-.7.29A1,1,0,0,1,215.85,402.39Zm-.11,1.2h1.61v7.47h-1.61Z"/><path d="M220.54,410.73a3.72,3.72,0,0,1-1.41-1.4,4.13,4.13,0,0,1,0-4,3.67,3.67,0,0,1,1.41-1.41,4.27,4.27,0,0,1,4,0,3.63,3.63,0,0,1,1.42,1.41,4.13,4.13,0,0,1,0,4,3.67,3.67,0,0,1-1.42,1.4,4.2,4.2,0,0,1-4,0Zm3.16-1.32a2.21,2.21,0,0,0,.83-.86,2.5,2.5,0,0,0,.31-1.23,2.55,2.55,0,0,0-.31-1.23,2.28,2.28,0,0,0-.83-.86,2.26,2.26,0,0,0-1.16-.31,2.31,2.31,0,0,0-1.16.31,2.26,2.26,0,0,0-.82.86,2.54,2.54,0,0,0-.29,1.23,2.48,2.48,0,0,0,.29,1.23,2.19,2.19,0,0,0,.82.86,2.22,2.22,0,0,0,1.16.31A2.17,2.17,0,0,0,223.7,409.41Z"/><path d="M233.77,404.16a2.64,2.64,0,0,1,.77,2v4.88h-1.61v-4.5a1.8,1.8,0,0,0-.37-1.27,1.46,1.46,0,0,0-1.15-.4,2,2,0,0,0-1.47.56,2,2,0,0,0-.56,1.52v4.09h-1.61v-7.47h1.61v1.08a2.25,2.25,0,0,1,1-.92,3.09,3.09,0,0,1,1.4-.31A2.8,2.8,0,0,1,233.77,404.16Z"/><path d="M243.39,403.59v7.47h-1.57v-1.13a2.86,2.86,0,0,1-1,.94,3,3,0,0,1-1.45.34,3.39,3.39,0,0,1-1.86-.52,3.66,3.66,0,0,1-1.3-1.4,4.34,4.34,0,0,1,0-3.93,3.68,3.68,0,0,1,1.3-1.41,3.47,3.47,0,0,1,1.86-.51,3.07,3.07,0,0,1,1.45.33,3,3,0,0,1,1,.94v-1.12Zm-2.69,5.83a2.16,2.16,0,0,0,.82-.85,2.57,2.57,0,0,0,.3-1.25,2.5,2.5,0,0,0-.31-1.28,2.11,2.11,0,0,0-.82-.83,2.3,2.3,0,0,0-1.11-.29,2.16,2.16,0,0,0-2,1.18,2.64,2.64,0,0,0-.28,1.22,2.58,2.58,0,0,0,.28,1.22,2.19,2.19,0,0,0,.81.87,2.12,2.12,0,0,0,1.14.31A2.19,2.19,0,0,0,240.7,409.42Z"/><path d="M245,400.43h1.61v10.63H245Z"/><path d="M315.31,408.28a5.35,5.35,0,0,1-1.58,1.91l1.5,1.76h-2l-.89-1a5.92,5.92,0,0,1-1.95.33,5.43,5.43,0,0,1-2.78-.72,5.27,5.27,0,0,1-2-2,5.84,5.84,0,0,1,0-5.62,5.27,5.27,0,0,1,2-2,5.69,5.69,0,0,1,5.54,0,5.35,5.35,0,0,1,2,2,5.57,5.57,0,0,1,.72,2.81A5.68,5.68,0,0,1,315.31,408.28Zm-4.07,1.29-1.59-1.87h2l1,1.22a3.55,3.55,0,0,0,1.1-1.35,4.27,4.27,0,0,0-.09-3.83,3.61,3.61,0,0,0-1.34-1.4,3.82,3.82,0,0,0-3.78,0,3.61,3.61,0,0,0-1.34,1.4,4.43,4.43,0,0,0,0,4,3.58,3.58,0,0,0,1.34,1.39,3.62,3.62,0,0,0,1.9.5A4.56,4.56,0,0,0,311.24,409.57Z"/><path d="M323.93,403.59v7.47h-1.55v-1.25a2.39,2.39,0,0,1-1,1,3,3,0,0,1-1.49.37,2.75,2.75,0,0,1-2-.71,2.69,2.69,0,0,1-.73-2v-4.89h1.61V408c0,1.12.52,1.69,1.56,1.69a1.87,1.87,0,0,0,1.42-.6,2.33,2.33,0,0,0,.57-1.67v-3.82Z"/><path d="M332.91,403.59v7.47h-1.57v-1.13a2.86,2.86,0,0,1-1,.94,3,3,0,0,1-1.45.34,3.39,3.39,0,0,1-1.86-.52,3.51,3.51,0,0,1-1.3-1.4,4.34,4.34,0,0,1,0-3.93A3.54,3.54,0,0,1,327,404a3.47,3.47,0,0,1,1.86-.51,3.1,3.1,0,0,1,1.45.33,3,3,0,0,1,1,.94v-1.12Zm-2.69,5.83a2.23,2.23,0,0,0,.82-.85,2.57,2.57,0,0,0,.3-1.25A2.5,2.5,0,0,0,331,406a2.14,2.14,0,0,0-.83-.83,2.24,2.24,0,0,0-1.11-.29,2.2,2.2,0,0,0-1.13.31,2.13,2.13,0,0,0-.81.87,2.64,2.64,0,0,0-.29,1.22,2.59,2.59,0,0,0,.29,1.22,2.16,2.16,0,0,0,1.94,1.18A2.22,2.22,0,0,0,330.22,409.42Z"/><path d="M334.54,400.43h1.61v10.63h-1.61Z"/><path d="M337.88,402.39a1,1,0,0,1,0-1.4,1,1,0,0,1,.7-.29,1,1,0,0,1,.7.29,1,1,0,0,1,0,1.4,1,1,0,0,1-.7.29A1,1,0,0,1,337.88,402.39Zm-.1,1.2h1.61v7.47h-1.61Z"/><path d="M341.65,404.89h-1.08v-1.3h1.08v-1a2.07,2.07,0,0,1,2.38-2.37,3.7,3.7,0,0,1,.71.07,2.69,2.69,0,0,1,.64.2v1.43a2.48,2.48,0,0,0-1.12-.28,1.07,1.07,0,0,0-.73.24.89.89,0,0,0-.27.71v1h2.12v1.3h-2.12v6.17h-1.61Zm4.93-2.5a1,1,0,0,1,0-1.4,1,1,0,0,1,.7-.29,1,1,0,0,1,.7.29,1,1,0,0,1,0,1.4,1,1,0,0,1-.7.29A1,1,0,0,1,346.58,402.39Zm-.1,1.2h1.61v7.47h-1.61Z"/><path d="M355.28,403.94a3.54,3.54,0,0,1,1.4,1.42,4.12,4.12,0,0,1,.5,2l-6.09.88a2.21,2.21,0,0,0,.86,1.09,2.49,2.49,0,0,0,2.66,0,2.25,2.25,0,0,0,.87-1l1.47.51a3.79,3.79,0,0,1-1.44,1.71,3.91,3.91,0,0,1-2.23.65,4,4,0,0,1-2-.51,4,4,0,0,1-1.42-5.37,3.86,3.86,0,0,1,1.41-1.4,3.91,3.91,0,0,1,2-.52A3.85,3.85,0,0,1,355.28,403.94Zm-3.59,1.51a2.4,2.4,0,0,0-.75,1.51l4.4-.61a2,2,0,0,0-2.06-1.47A2.28,2.28,0,0,0,351.69,405.45Z"/><path d="M365.65,400.43v10.63h-1.56v-1.13a3,3,0,0,1-2.51,1.28,3.41,3.41,0,0,1-1.86-.52,3.56,3.56,0,0,1-1.29-1.4,4.26,4.26,0,0,1,0-3.93,3.58,3.58,0,0,1,1.29-1.41,3.49,3.49,0,0,1,1.86-.51,2.9,2.9,0,0,1,2.46,1.21v-4.22Zm-2.69,9a2.16,2.16,0,0,0,.82-.85,2.47,2.47,0,0,0,.31-1.25,2.61,2.61,0,0,0-.31-1.28,2.2,2.2,0,0,0-.83-.83,2.24,2.24,0,0,0-1.11-.29,2.27,2.27,0,0,0-1.14.31,2.17,2.17,0,0,0-.8.87,2.64,2.64,0,0,0-.29,1.22,2.59,2.59,0,0,0,.29,1.22,2.2,2.2,0,0,0,3.06.88Z"/><path d="M448.53,400.43h1.71v10.63h-1.71v-4.69h-5.2v4.69h-1.69V400.43h1.69v4.34h5.2Z"/><path d="M453.51,410.73a3.86,3.86,0,0,1-1.41-1.4,4.2,4.2,0,0,1,0-4,3.81,3.81,0,0,1,1.41-1.41,4.29,4.29,0,0,1,4,0,3.7,3.7,0,0,1,1.42,1.41,4.13,4.13,0,0,1,0,4,3.74,3.74,0,0,1-1.42,1.4,4.22,4.22,0,0,1-4,0Zm3.17-1.32a2.29,2.29,0,0,0,.83-.86,2.49,2.49,0,0,0,.3-1.23,2.54,2.54,0,0,0-.3-1.23,2.36,2.36,0,0,0-.83-.86,2.31,2.31,0,0,0-1.16-.31,2.29,2.29,0,0,0-1.16.31,2.19,2.19,0,0,0-.82.86,2.54,2.54,0,0,0-.3,1.23,2.49,2.49,0,0,0,.3,1.23,2.12,2.12,0,0,0,.82.86,2.19,2.19,0,0,0,1.16.31A2.22,2.22,0,0,0,456.68,409.41Z"/><path d="M466.75,404.16a2.63,2.63,0,0,1,.76,2v4.88H465.9v-4.5a1.85,1.85,0,0,0-.36-1.27,1.48,1.48,0,0,0-1.16-.4,2,2,0,0,0-1.47.56,2.06,2.06,0,0,0-.56,1.52v4.09h-1.61v-7.47h1.61v1.08a2.25,2.25,0,0,1,1-.92,3.11,3.11,0,0,1,1.41-.31A2.82,2.82,0,0,1,466.75,404.16Z"/><path d="M474.6,403.94a3.61,3.61,0,0,1,1.4,1.42,4.12,4.12,0,0,1,.5,2l-6.09.88a2.21,2.21,0,0,0,.86,1.09,2.49,2.49,0,0,0,2.66,0,2.25,2.25,0,0,0,.87-1l1.47.51a3.79,3.79,0,0,1-1.44,1.71,3.91,3.91,0,0,1-2.23.65,4,4,0,0,1-2-.51,4,4,0,0,1-1.42-5.37,3.86,3.86,0,0,1,1.41-1.4,3.91,3.91,0,0,1,2-.52A3.85,3.85,0,0,1,474.6,403.94ZM471,405.45a2.4,2.4,0,0,0-.75,1.51l4.4-.61a2,2,0,0,0-2.06-1.47A2.28,2.28,0,0,0,471,405.45Z"/><path d="M478.32,410.81a2.71,2.71,0,0,1-1.32-1.33l1.15-.79a2.33,2.33,0,0,0,.87.83,2.59,2.59,0,0,0,1.29.34,1.74,1.74,0,0,0,1-.25.8.8,0,0,0,.35-.68.65.65,0,0,0-.32-.56,3.34,3.34,0,0,0-1-.38l-.77-.2a3.88,3.88,0,0,1-1.78-.85,1.73,1.73,0,0,1-.55-1.27,2,2,0,0,1,.34-1.13,2.33,2.33,0,0,1,1-.84,3.51,3.51,0,0,1,1.55-.31,3.63,3.63,0,0,1,1.89.46,2.8,2.8,0,0,1,1.12,1.12l-1.25.77a1.92,1.92,0,0,0-.73-.71,2.18,2.18,0,0,0-1.09-.27,1.42,1.42,0,0,0-.86.23.74.74,0,0,0-.29.59.58.58,0,0,0,.31.52,3.51,3.51,0,0,0,1,.36l.83.21a3.57,3.57,0,0,1,1.67.81,1.8,1.8,0,0,1,.54,1.35,2.13,2.13,0,0,1-.39,1.27,2.49,2.49,0,0,1-1.06.85,3.72,3.72,0,0,1-1.52.3A4.35,4.35,0,0,1,478.32,410.81Z"/><path d="M488.8,403.59v1.3h-2.33v3.94a.89.89,0,0,0,.28.7,1.05,1.05,0,0,0,.73.24,2.38,2.38,0,0,0,1.12-.28v1.43a2.79,2.79,0,0,1-.65.2,3.6,3.6,0,0,1-.7.07,2.45,2.45,0,0,1-1.8-.58,2.42,2.42,0,0,1-.59-1.78v-3.94h-1.07v-1.3h1.07v-1.84l1.61-1.23v3.07Z"/><path d="M575.1,400.83a3.18,3.18,0,0,1,1.35,1.16,3.26,3.26,0,0,1,0,3.47,3.25,3.25,0,0,1-1.35,1.16,4.62,4.62,0,0,1-1.93.4H570.3v4h-1.69V400.43h4.56A4.47,4.47,0,0,1,575.1,400.83Zm-.46,4.15a1.51,1.51,0,0,0,.56-1.26,1.53,1.53,0,0,0-.56-1.26,2.36,2.36,0,0,0-1.47-.44H570.3v3.4h2.87A2.3,2.3,0,0,0,574.64,405Z"/><path d="M579.34,410.73a3.86,3.86,0,0,1-1.41-1.4,4.2,4.2,0,0,1,0-4,3.81,3.81,0,0,1,1.41-1.41,4.29,4.29,0,0,1,4,0,3.7,3.7,0,0,1,1.42,1.41,4.13,4.13,0,0,1,0,4,3.74,3.74,0,0,1-1.42,1.4,4.22,4.22,0,0,1-4,0Zm3.17-1.32a2.21,2.21,0,0,0,.83-.86,2.49,2.49,0,0,0,.3-1.23,2.54,2.54,0,0,0-.3-1.23,2.28,2.28,0,0,0-.83-.86,2.31,2.31,0,0,0-1.16-.31,2.29,2.29,0,0,0-1.16.31,2.26,2.26,0,0,0-.82.86,2.54,2.54,0,0,0-.3,1.23,2.49,2.49,0,0,0,.3,1.23,2.21,2.21,0,0,0,2,1.17A2.22,2.22,0,0,0,582.51,409.41Z"/><path d="M587.26,410.81a2.77,2.77,0,0,1-1.33-1.33l1.16-.79a2.29,2.29,0,0,0,.86.83,2.64,2.64,0,0,0,1.29.34,1.72,1.72,0,0,0,1-.25.8.8,0,0,0,.35-.68.65.65,0,0,0-.32-.56,3.22,3.22,0,0,0-1-.38l-.77-.2a3.94,3.94,0,0,1-1.78-.85,1.72,1.72,0,0,1-.54-1.27,2,2,0,0,1,.33-1.13,2.33,2.33,0,0,1,1-.84,3.53,3.53,0,0,1,1.56-.31,3.63,3.63,0,0,1,1.89.46,2.77,2.77,0,0,1,1.11,1.12l-1.24.77a2,2,0,0,0-.74-.71,2.16,2.16,0,0,0-1.08-.27,1.4,1.4,0,0,0-.86.23.72.72,0,0,0-.3.59.6.6,0,0,0,.31.52,3.64,3.64,0,0,0,1,.36l.84.21a3.62,3.62,0,0,1,1.67.81,1.83,1.83,0,0,1,.53,1.35,2.13,2.13,0,0,1-.39,1.27,2.49,2.49,0,0,1-1.06.85,3.67,3.67,0,0,1-1.51.3A4.29,4.29,0,0,1,587.26,410.81Z"/><path d="M593.49,402.39a1,1,0,0,1,0-1.4,1,1,0,0,1,.7-.29,1,1,0,0,1,.7.29,1,1,0,0,1,0,1.4,1,1,0,0,1-.7.29A1,1,0,0,1,593.49,402.39Zm-.1,1.2H595v7.47h-1.61Z"/><path d="M601.19,403.59v1.3h-2.32v3.94a.88.88,0,0,0,.27.7,1.07,1.07,0,0,0,.73.24,2.35,2.35,0,0,0,1.12-.28v1.43a2.69,2.69,0,0,1-.64.2,3.7,3.7,0,0,1-.71.07,2.45,2.45,0,0,1-1.8-.58,2.41,2.41,0,0,1-.58-1.78v-3.94h-1.08v-1.3h1.08v-1.84l1.61-1.23v3.07Z"/><path d="M602.45,402.39a1,1,0,1,1,.7.29A1,1,0,0,1,602.45,402.39Zm-.1,1.2H604v7.47h-1.61Z"/><path d="M610.86,403.59h1.72L610,411.06h-2.31L605,403.59h1.7l2.07,6Z"/><path d="M618.85,403.94a3.52,3.52,0,0,1,1.39,1.42,4,4,0,0,1,.51,2l-6.09.88a2.21,2.21,0,0,0,.86,1.09,2.49,2.49,0,0,0,2.66,0,2.38,2.38,0,0,0,.87-1l1.47.51a3.94,3.94,0,0,1-3.68,2.36,4,4,0,0,1-2-.51,3.85,3.85,0,0,1-1.94-3.39,3.8,3.8,0,0,1,.52-2,3.72,3.72,0,0,1,1.41-1.4,4.13,4.13,0,0,1,4,0Zm-3.59,1.51a2.4,2.4,0,0,0-.75,1.51l4.4-.61a2,2,0,0,0-2.07-1.47A2.27,2.27,0,0,0,615.26,405.45Z"/><path class="cls-6" d="M723,435.52a7.27,7.27,0,1,0-12.41,5.14L723,453.08l12.42-12.42A7.27,7.27,0,1,0,723,435.52Z"/><polygon class="cls-8" points="732.18 101.74 711.48 101.74 711.48 72.25 717.4 72.25 732.18 101.74"/><polygon class="cls-9" points="735.19 72.26 735.19 78.17 729.26 78.18 729.26 84.1 723.33 84.11 723.33 101.89 729.33 101.88 729.33 101.89 741.11 101.88 741.11 72.25 735.19 72.26"/><g class="cls-10"><circle class="cls-11" cx="711.48" cy="101.88" r="17.71"/><circle class="cls-6" cx="711.48" cy="101.88" r="8.83"/></g><rect x="708.49" y="101.89" width="35.57" height="0.59"/><path d="M84.27,83.82h3.09L83.5,102.48H78.28L74.57,85.21,70.9,102.48H65.65L61.81,83.82H64.9l3.52,17.48,3.67-17.48h5l3.65,17.38Z"/><path d="M99.66,90.37A4.61,4.61,0,0,1,101,93.92v8.56H98.18V94.59a3.22,3.22,0,0,0-.64-2.24,2.63,2.63,0,0,0-2-.69,3.52,3.52,0,0,0-2.59,1,3.62,3.62,0,0,0-1,2.68v7.17H89.12V83.82H92v7.44a4.1,4.1,0,0,1,1.74-1.61,5.43,5.43,0,0,1,2.47-.55A4.88,4.88,0,0,1,99.66,90.37Z"/><path d="M116.54,89.37v13.11H113.8v-2a5.3,5.3,0,0,1-1.85,1.65,5.39,5.39,0,0,1-2.55.58,6.06,6.06,0,0,1-3.26-.9,6.39,6.39,0,0,1-2.28-2.47,7.59,7.59,0,0,1,0-6.9A6.29,6.29,0,0,1,106.14,90a6,6,0,0,1,3.26-.91,5.39,5.39,0,0,1,2.55.59,5.3,5.3,0,0,1,1.85,1.65v-2ZM111.83,99.6a4,4,0,0,0,1.44-1.49,4.49,4.49,0,0,0,.53-2.19,4.36,4.36,0,0,0-.55-2.25,3.74,3.74,0,0,0-1.45-1.45,3.88,3.88,0,0,0-1.94-.51,3.82,3.82,0,0,0-3.42,2.07,4.85,4.85,0,0,0,0,4.29,3.78,3.78,0,0,0,3.42,2.06A3.88,3.88,0,0,0,111.83,99.6Z"/><path d="M127.44,89.37v2.29h-4.08v6.9a1.59,1.59,0,0,0,.48,1.24,1.93,1.93,0,0,0,1.28.41,4.38,4.38,0,0,0,2-.48v2.51a5.18,5.18,0,0,1-1.14.34,6.36,6.36,0,0,1-1.24.14,3.66,3.66,0,0,1-4.18-4.16v-6.9h-1.89V89.37h1.89V86.14L123.36,84v5.39Z"/><path d="M147.37,89.37v17.9h-2.82v-6.63a5.06,5.06,0,0,1-4.32,2.1,6.06,6.06,0,0,1-3.26-.9,6.39,6.39,0,0,1-2.28-2.47,7.59,7.59,0,0,1,0-6.9A6.29,6.29,0,0,1,137,90a6,6,0,0,1,3.26-.91,5.23,5.23,0,0,1,4.43,2.26v-2Zm-4.74,10.26a3.91,3.91,0,0,0,1.47-1.47,4.41,4.41,0,0,0,.56-2.24,4.35,4.35,0,0,0-.54-2.18,3.84,3.84,0,0,0-3.41-2,3.75,3.75,0,0,0-2,.55,3.81,3.81,0,0,0-1.4,1.52,4.85,4.85,0,0,0,0,4.29,3.88,3.88,0,0,0,1.4,1.52,3.83,3.83,0,0,0,2,.54A3.93,3.93,0,0,0,142.63,99.63Z"/><path d="M161.92,89.37v13.11h-2.71v-2.19a4.28,4.28,0,0,1-1.79,1.81,5.31,5.31,0,0,1-2.61.64A4.39,4.39,0,0,1,150,98V89.37h2.82v7.72c0,2,.92,3,2.75,3a3.31,3.31,0,0,0,2.49-1,4,4,0,0,0,1-2.92V89.37Z"/><path d="M177.67,89.37v13.11h-2.74v-2a5.3,5.3,0,0,1-1.85,1.65,5.39,5.39,0,0,1-2.55.58,6.06,6.06,0,0,1-3.26-.9A6.39,6.39,0,0,1,165,99.37a7.59,7.59,0,0,1,0-6.9A6.29,6.29,0,0,1,167.27,90a6,6,0,0,1,3.26-.91,5.39,5.39,0,0,1,2.55.59,5.3,5.3,0,0,1,1.85,1.65v-2ZM173,99.6a4,4,0,0,0,1.44-1.49,4.49,4.49,0,0,0,.53-2.19,4.36,4.36,0,0,0-.55-2.25,3.74,3.74,0,0,0-1.45-1.45,3.88,3.88,0,0,0-1.94-.51,3.82,3.82,0,0,0-3.42,2.07,4.85,4.85,0,0,0,0,4.29,3.78,3.78,0,0,0,3.42,2.06A3.91,3.91,0,0,0,173,99.6Z"/><path d="M180.55,83.82h2.83v18.66h-2.83Z"/><path d="M186.41,87.26a1.71,1.71,0,0,1-.5-1.23,1.73,1.73,0,1,1,3.46,0,1.71,1.71,0,0,1-.5,1.23,1.74,1.74,0,0,1-2.46,0Zm-.18,2.11h2.82v13.11h-2.82Z"/><path d="M199.92,89.37v2.29h-4.07v6.9a1.55,1.55,0,0,0,.48,1.24,1.91,1.91,0,0,0,1.28.41,4.37,4.37,0,0,0,2-.48v2.51a5.08,5.08,0,0,1-1.13.34,6.53,6.53,0,0,1-1.24.14A3.66,3.66,0,0,1,193,98.56v-6.9h-1.89V89.37H193V86.14L195.85,84v5.39Z"/><path d="M202.14,87.26a1.68,1.68,0,0,1-.51-1.23,1.74,1.74,0,0,1,1.73-1.73,1.68,1.68,0,0,1,1.23.51,1.64,1.64,0,0,1,.5,1.22,1.72,1.72,0,0,1-1.73,1.74A1.64,1.64,0,0,1,202.14,87.26ZM202,89.37h2.82v13.11H202Z"/><path d="M217.41,90a6.44,6.44,0,0,1,2.45,2.49,7.28,7.28,0,0,1,.88,3.56l-10.69,1.54a3.85,3.85,0,0,0,1.51,1.91,4.38,4.38,0,0,0,4.67,0,4,4,0,0,0,1.52-1.8l2.59.88a6.73,6.73,0,0,1-2.53,3,7.24,7.24,0,0,1-7.43.24,6.71,6.71,0,0,1-2.49-2.47,7.16,7.16,0,0,1,0-7A6.65,6.65,0,0,1,210.37,90a7.26,7.26,0,0,1,7,0Zm-6.31,2.66a4.29,4.29,0,0,0-1.32,2.64l7.73-1.06a3.45,3.45,0,0,0-3.62-2.59A4,4,0,0,0,211.1,92.64Z"/><path d="M223.93,102.05a4.86,4.86,0,0,1-2.31-2.34l2-1.39a4,4,0,0,0,1.52,1.45,4.44,4.44,0,0,0,2.26.6,3,3,0,0,0,1.74-.44,1.38,1.38,0,0,0,.61-1.18,1.15,1.15,0,0,0-.56-1,5.75,5.75,0,0,0-1.68-.67l-1.36-.34a7.08,7.08,0,0,1-3.12-1.49,3.06,3.06,0,0,1-1-2.24,3.63,3.63,0,0,1,.58-2,4.08,4.08,0,0,1,1.72-1.46,6.18,6.18,0,0,1,2.73-.55,6.43,6.43,0,0,1,3.32.81,5,5,0,0,1,2,2l-2.19,1.36a3.37,3.37,0,0,0-1.29-1.25,3.75,3.75,0,0,0-1.9-.48,2.42,2.42,0,0,0-1.51.41,1.26,1.26,0,0,0-.52,1,1,1,0,0,0,.55.92,6.27,6.27,0,0,0,1.72.62l1.46.38a6.31,6.31,0,0,1,2.93,1.42,3.17,3.17,0,0,1,.93,2.36,3.8,3.8,0,0,1-.67,2.24,4.56,4.56,0,0,1-1.87,1.49,6.3,6.3,0,0,1-2.65.53A7.71,7.71,0,0,1,223.93,102.05Z"/><path d="M252.61,83.82v18.66h-2.75v-2a5.13,5.13,0,0,1-1.85,1.65,5.35,5.35,0,0,1-2.54.58,6.09,6.09,0,0,1-3.27-.9,6.39,6.39,0,0,1-2.28-2.47,7.67,7.67,0,0,1,0-6.9A6.29,6.29,0,0,1,242.2,90a6,6,0,0,1,3.27-.91,5.35,5.35,0,0,1,2.47.56,5.15,5.15,0,0,1,1.84,1.57V83.82ZM247.89,99.6a4,4,0,0,0,1.44-1.49,4.38,4.38,0,0,0,.53-2.19,4.46,4.46,0,0,0-.54-2.25,3.77,3.77,0,0,0-1.46-1.45,3.88,3.88,0,0,0-1.94-.51,3.79,3.79,0,0,0-3.41,2.07,4.77,4.77,0,0,0,0,4.29,3.88,3.88,0,0,0,5.38,1.53Z"/><path d="M258.23,101.9a6.51,6.51,0,0,1-2.48-2.46,7.33,7.33,0,0,1,0-7,6.58,6.58,0,0,1,2.48-2.46,7,7,0,0,1,3.52-.89,7,7,0,0,1,3.53.89,6.47,6.47,0,0,1,2.49,2.46,7.26,7.26,0,0,1,0,7,6.4,6.4,0,0,1-2.49,2.46,7,7,0,0,1-3.53.9A7,7,0,0,1,258.23,101.9Zm5.56-2.31a4,4,0,0,0,1.45-1.51,4.67,4.67,0,0,0,0-4.32,4,4,0,0,0-1.45-1.5,3.9,3.9,0,0,0-2-.55,3.91,3.91,0,0,0-3.48,2.05,4.75,4.75,0,0,0,0,4.32,3.86,3.86,0,0,0,3.48,2A4,4,0,0,0,263.79,99.59Z"/><path d="M284.8,89.37h3l-5.23,17.9H279.6l1.39-4.79h-2.56l-3.81-13.11h2.93l3.6,12.57Z"/><path d="M291.73,101.9a6.44,6.44,0,0,1-2.48-2.46,7.26,7.26,0,0,1,0-7,6.51,6.51,0,0,1,2.48-2.46,6.94,6.94,0,0,1,3.51-.89,7.05,7.05,0,0,1,3.54.89,6.61,6.61,0,0,1,2.49,2.46,7.33,7.33,0,0,1,0,7,6.54,6.54,0,0,1-2.49,2.46,7.06,7.06,0,0,1-3.54.9A7,7,0,0,1,291.73,101.9Zm5.55-2.31a4,4,0,0,0,1.46-1.51,4.67,4.67,0,0,0,0-4.32,3.9,3.9,0,0,0-1.46-1.5,4,4,0,0,0-4.07,0,3.71,3.71,0,0,0-1.44,1.5,4.75,4.75,0,0,0,0,4.32,3.8,3.8,0,0,0,1.44,1.51,4.1,4.1,0,0,0,4.07,0Z"/><path d="M316.22,89.37v13.11H313.5v-2.19a4.28,4.28,0,0,1-1.79,1.81,5.31,5.31,0,0,1-2.61.64A4.39,4.39,0,0,1,304.33,98V89.37h2.83v7.72c0,2,.91,3,2.74,3a3.28,3.28,0,0,0,2.49-1,4,4,0,0,0,1-2.92V89.37Z"/><path d="M332.15,89.37v2.29h-4.08v6.9a1.55,1.55,0,0,0,.48,1.24,1.93,1.93,0,0,0,1.28.41,4.38,4.38,0,0,0,2-.48v2.51a5.18,5.18,0,0,1-1.14.34,6.36,6.36,0,0,1-1.24.14,3.66,3.66,0,0,1-4.18-4.16v-6.9h-1.89V89.37h1.89V86.14L328.07,84v5.39Z"/><path d="M344.72,90.37a4.64,4.64,0,0,1,1.34,3.55v8.56h-2.82V94.59a3.27,3.27,0,0,0-.64-2.24,2.65,2.65,0,0,0-2-.69,3.5,3.5,0,0,0-2.58,1,3.59,3.59,0,0,0-1,2.68v7.17h-2.82V83.82H337v7.44a4.12,4.12,0,0,1,1.75-1.61,5.39,5.39,0,0,1,2.46-.55A4.9,4.9,0,0,1,344.72,90.37Z"/><path d="M348.91,87.26a1.71,1.71,0,0,1-.5-1.23,1.72,1.72,0,0,1,1.73-1.73A1.74,1.74,0,0,1,351.87,86a1.68,1.68,0,0,1-.51,1.23,1.64,1.64,0,0,1-1.22.51A1.68,1.68,0,0,1,348.91,87.26Zm-.18,2.11h2.82v13.11h-2.82Z"/><path d="M364.94,90.37a4.61,4.61,0,0,1,1.35,3.55v8.56h-2.83V94.59a3.22,3.22,0,0,0-.64-2.24,2.63,2.63,0,0,0-2-.69,3.52,3.52,0,0,0-2.59,1,3.62,3.62,0,0,0-1,2.68v7.17H354.4V89.37h2.83v1.89A4.1,4.1,0,0,1,359,89.65a5.43,5.43,0,0,1,2.47-.55A4.88,4.88,0,0,1,364.94,90.37Z"/><path d="M381.32,102.48h-3.63l-5.91-7.06v7.06H369V83.82h2.83V95.36l5.59-6h3.49l-5.67,6Z"/><path d="M400.8,89.37v13.11h-2.75v-2a5.21,5.21,0,0,1-1.85,1.65,5.39,5.39,0,0,1-2.55.58,6.08,6.08,0,0,1-3.26-.9,6.39,6.39,0,0,1-2.28-2.47,7.67,7.67,0,0,1,0-6.9A6.29,6.29,0,0,1,390.39,90a6,6,0,0,1,3.26-.91,5.39,5.39,0,0,1,2.55.59,5.21,5.21,0,0,1,1.85,1.65v-2ZM396.08,99.6a4,4,0,0,0,1.44-1.49,4.87,4.87,0,0,0,0-4.44,3.77,3.77,0,0,0-1.46-1.45,3.88,3.88,0,0,0-1.94-.51,3.74,3.74,0,0,0-2,.55,3.7,3.7,0,0,0-1.41,1.52,4.77,4.77,0,0,0,0,4.29,3.76,3.76,0,0,0,1.41,1.52,4,4,0,0,0,4,0Z"/><path d="M410.92,89.15v2.59a5.78,5.78,0,0,0-1-.08,3.25,3.25,0,0,0-2.51,1,3.91,3.91,0,0,0-.93,2.78v7h-2.83V89.37h2.78v2a3.51,3.51,0,0,1,1.43-1.64,4.24,4.24,0,0,1,2.24-.6A5.07,5.07,0,0,1,410.92,89.15Z"/><path d="M421.93,90a6.37,6.37,0,0,1,2.45,2.49,7.17,7.17,0,0,1,.88,3.56l-10.69,1.54a4,4,0,0,0,1.51,1.91,4.39,4.39,0,0,0,4.68,0,4,4,0,0,0,1.52-1.8l2.58.88a6.67,6.67,0,0,1-2.53,3,7.22,7.22,0,0,1-7.42.24,6.56,6.56,0,0,1-2.49-2.47,7.09,7.09,0,0,1,0-7A6.55,6.55,0,0,1,414.89,90a7.26,7.26,0,0,1,7,0Zm-6.3,2.66a4.19,4.19,0,0,0-1.32,2.64L422,94.22a3.46,3.46,0,0,0-3.63-2.59A4,4,0,0,0,415.63,92.64Z"/><path d="M432.48,87.26A1.68,1.68,0,0,1,432,86a1.65,1.65,0,0,1,.51-1.22,1.68,1.68,0,0,1,1.23-.51A1.74,1.74,0,0,1,435.44,86a1.68,1.68,0,0,1-.51,1.23,1.65,1.65,0,0,1-1.22.51A1.68,1.68,0,0,1,432.48,87.26Zm-.19,2.11h2.83v13.11h-2.83Z"/><path d="M455.53,90.27a4.48,4.48,0,0,1,1.2,3.36v8.85h-2.82V94.11a2.66,2.66,0,0,0-.56-1.87,2.24,2.24,0,0,0-1.68-.58,2.83,2.83,0,0,0-2,.86,3.2,3.2,0,0,0-.88,2.36v7.6h-2.82V94.11a2.66,2.66,0,0,0-.56-1.87,2.21,2.21,0,0,0-1.68-.58,2.77,2.77,0,0,0-2,.88,3.2,3.2,0,0,0-.87,2.37v7.57H438V89.37h2.82v1.78a3.86,3.86,0,0,1,1.52-1.53,4.69,4.69,0,0,1,4.44.08,3.41,3.41,0,0,1,1.45,1.77A5,5,0,0,1,450,89.73a4.77,4.77,0,0,1,2.44-.63A4.28,4.28,0,0,1,455.53,90.27Z"/><path d="M469.67,90A6.29,6.29,0,0,1,472,92.47a7.67,7.67,0,0,1,0,6.9,6.39,6.39,0,0,1-2.28,2.47,6.09,6.09,0,0,1-3.27.9,5.3,5.3,0,0,1-2.48-.56,5.22,5.22,0,0,1-1.83-1.54v6.63h-2.83V89.37H462v2a5.13,5.13,0,0,1,1.85-1.65,5.35,5.35,0,0,1,2.54-.59A6,6,0,0,1,469.67,90ZM468,99.59a3.83,3.83,0,0,0,1.41-1.52,4.77,4.77,0,0,0,0-4.29A3.79,3.79,0,0,0,466,91.71a3.84,3.84,0,0,0-3.41,2,4.35,4.35,0,0,0-.53,2.18,4.46,4.46,0,0,0,.54,2.25A3.86,3.86,0,0,0,464,99.63a4,4,0,0,0,1.94.5A3.85,3.85,0,0,0,468,99.59Z"/><path d="M477.76,101.9a6.44,6.44,0,0,1-2.48-2.46,7.26,7.26,0,0,1,0-7,6.51,6.51,0,0,1,2.48-2.46,6.92,6.92,0,0,1,3.51-.89,7,7,0,0,1,3.53.89,6.56,6.56,0,0,1,2.5,2.46,7.33,7.33,0,0,1,0,7,6.49,6.49,0,0,1-2.5,2.46,7,7,0,0,1-3.53.9A6.92,6.92,0,0,1,477.76,101.9Zm5.55-2.31a4,4,0,0,0,1.45-1.51,4.59,4.59,0,0,0,0-4.32,4,4,0,0,0-5.53-1.5,3.76,3.76,0,0,0-1.43,1.5,4.75,4.75,0,0,0,0,4.32,3.85,3.85,0,0,0,1.43,1.51,4,4,0,0,0,2,.54A3.94,3.94,0,0,0,483.31,99.59Z"/><path d="M497.69,89.15v2.59a6,6,0,0,0-1-.08,3.23,3.23,0,0,0-2.5,1,3.87,3.87,0,0,0-.94,2.78v7h-2.82V89.37h2.77v2a3.48,3.48,0,0,1,1.44-1.64,4.22,4.22,0,0,1,2.24-.6A5.16,5.16,0,0,1,497.69,89.15Z"/><path d="M507.63,89.37v2.29h-4.08v6.9A1.55,1.55,0,0,0,504,99.8a1.93,1.93,0,0,0,1.28.41,4.37,4.37,0,0,0,2-.48v2.51a5.08,5.08,0,0,1-1.13.34,6.45,6.45,0,0,1-1.24.14,3.65,3.65,0,0,1-4.18-4.16v-6.9h-1.9V89.37h1.9V86.14L503.55,84v5.39Z"/><path d="M521.88,89.37v13.11h-2.74v-2a5.21,5.21,0,0,1-1.85,1.65,5.39,5.39,0,0,1-2.55.58,6.06,6.06,0,0,1-3.26-.9,6.39,6.39,0,0,1-2.28-2.47,7.59,7.59,0,0,1,0-6.9A6.29,6.29,0,0,1,511.48,90a6,6,0,0,1,3.26-.91,5.39,5.39,0,0,1,2.55.59,5.21,5.21,0,0,1,1.85,1.65v-2ZM517.17,99.6a4,4,0,0,0,1.44-1.49,4.49,4.49,0,0,0,.53-2.19,4.36,4.36,0,0,0-.55-2.25,3.68,3.68,0,0,0-1.45-1.45,3.88,3.88,0,0,0-1.94-.51,3.74,3.74,0,0,0-2,.55,3.64,3.64,0,0,0-1.41,1.52,4.77,4.77,0,0,0,0,4.29,3.7,3.7,0,0,0,1.41,1.52,3.82,3.82,0,0,0,2,.54A3.88,3.88,0,0,0,517.17,99.6Z"/><path d="M535.3,90.37a4.61,4.61,0,0,1,1.35,3.55v8.56h-2.83V94.59a3.22,3.22,0,0,0-.64-2.24,2.63,2.63,0,0,0-2-.69,3.52,3.52,0,0,0-2.59,1,3.62,3.62,0,0,0-1,2.68v7.17h-2.83V89.37h2.83v1.89a4.1,4.1,0,0,1,1.74-1.61,5.43,5.43,0,0,1,2.47-.55A4.88,4.88,0,0,1,535.3,90.37Z"/><path d="M546.61,89.37v2.29h-4.07v6.9A1.55,1.55,0,0,0,543,99.8a1.91,1.91,0,0,0,1.28.41,4.37,4.37,0,0,0,2-.48v2.51a5,5,0,0,1-1.14.34,6.35,6.35,0,0,1-1.23.14,3.66,3.66,0,0,1-4.19-4.16v-6.9h-1.89V89.37h1.89V86.14L542.54,84v5.39Z"/><path d="M64.05,123.63h-1.9v-2.29h1.9v-1.76a4.29,4.29,0,0,1,1-3.13,4.33,4.33,0,0,1,3.16-1,6.38,6.38,0,0,1,1.24.13,4.58,4.58,0,0,1,1.13.35v2.5a4.34,4.34,0,0,0-2-.48,1.88,1.88,0,0,0-1.28.42,1.52,1.52,0,0,0-.48,1.23v1.76H70.6v2.29H66.87v10.82H64.05Z"/><path d="M74.28,133.88a6.51,6.51,0,0,1-2.48-2.46,7.33,7.33,0,0,1,0-7,6.51,6.51,0,0,1,2.48-2.46,7,7,0,0,1,3.52-.9,7,7,0,0,1,3.53.9,6.4,6.4,0,0,1,2.49,2.46,7.26,7.26,0,0,1,0,7,6.4,6.4,0,0,1-2.49,2.46,7,7,0,0,1-3.53.89A7,7,0,0,1,74.28,133.88Zm5.56-2.32a4,4,0,0,0,1.45-1.5,4.67,4.67,0,0,0,0-4.32,4,4,0,0,0-1.45-1.51,4,4,0,0,0-2-.54,3.86,3.86,0,0,0-3.48,2,4.75,4.75,0,0,0,0,4.32,3.91,3.91,0,0,0,3.48,2.05A3.9,3.9,0,0,0,79.84,131.56Z"/><path d="M94.21,121.13v2.59a5.85,5.85,0,0,0-1-.09,3.29,3.29,0,0,0-2.51,1,4,4,0,0,0-.93,2.79v7H87V121.34h2.78v2a3.51,3.51,0,0,1,1.43-1.64,4.24,4.24,0,0,1,2.24-.6A4.08,4.08,0,0,1,94.21,121.13Z"/><path d="M113.51,121.34v13.11h-2.75v-2a5.21,5.21,0,0,1-1.85,1.65,5.39,5.39,0,0,1-2.55.59,6,6,0,0,1-3.26-.91,6.29,6.29,0,0,1-2.28-2.46,7.67,7.67,0,0,1,0-6.9A6.39,6.39,0,0,1,103.1,122a6.08,6.08,0,0,1,3.26-.9,5.39,5.39,0,0,1,2.55.58,5.15,5.15,0,0,1,1.85,1.66v-2Zm-4.72,10.24a4,4,0,0,0,1.44-1.5,4.45,4.45,0,0,0,.53-2.18,4.36,4.36,0,0,0-.55-2.25,3.77,3.77,0,0,0-1.45-1.46,4,4,0,0,0-1.94-.5,3.82,3.82,0,0,0-2,.54,3.76,3.76,0,0,0-1.41,1.52,4.58,4.58,0,0,0-.51,2.15,4.51,4.51,0,0,0,.51,2.14,3.64,3.64,0,0,0,1.41,1.52,3.74,3.74,0,0,0,2,.55A3.85,3.85,0,0,0,108.79,131.58Z"/><path d="M121.42,115.8h2.82v18.65h-2.82Z"/><path d="M136.88,122a6.44,6.44,0,0,1,2.45,2.49,7.28,7.28,0,0,1,.88,3.56l-10.69,1.54a3.85,3.85,0,0,0,1.51,1.91,4.38,4.38,0,0,0,4.67,0,4.06,4.06,0,0,0,1.52-1.8l2.59.88a6.79,6.79,0,0,1-2.53,3,7.24,7.24,0,0,1-7.43.24,6.66,6.66,0,0,1-2.49-2.48,7.14,7.14,0,0,1,0-6.94,6.65,6.65,0,0,1,2.48-2.46,7.26,7.26,0,0,1,7,0Zm-6.31,2.66a4.29,4.29,0,0,0-1.32,2.64l7.73-1.07a3.45,3.45,0,0,0-3.62-2.58A4,4,0,0,0,130.57,124.62Z"/><path d="M155.08,121.34v13.11h-2.75v-2a5.21,5.21,0,0,1-1.85,1.65,5.39,5.39,0,0,1-2.55.59,6,6,0,0,1-3.26-.91,6.29,6.29,0,0,1-2.28-2.46,7.67,7.67,0,0,1,0-6.9,6.39,6.39,0,0,1,2.28-2.47,6.08,6.08,0,0,1,3.26-.9,5.39,5.39,0,0,1,2.55.58,5.15,5.15,0,0,1,1.85,1.66v-2Zm-4.72,10.24a4,4,0,0,0,1.44-1.5,4.85,4.85,0,0,0,0-4.43,3.86,3.86,0,0,0-1.46-1.46,4,4,0,0,0-1.94-.5,3.82,3.82,0,0,0-2,.54,3.76,3.76,0,0,0-1.41,1.52,4.58,4.58,0,0,0-.51,2.15A4.51,4.51,0,0,0,145,130a3.64,3.64,0,0,0,1.41,1.52,3.74,3.74,0,0,0,2,.55A3.85,3.85,0,0,0,150.36,131.58Z"/><path d="M170.82,115.8v18.65h-2.74v-2a5.3,5.3,0,0,1-1.85,1.65,5.39,5.39,0,0,1-2.55.59,6,6,0,0,1-3.26-.91,6.29,6.29,0,0,1-2.28-2.46,7.59,7.59,0,0,1,0-6.9,6.39,6.39,0,0,1,2.28-2.47,6.06,6.06,0,0,1,3.26-.9,5.27,5.27,0,0,1,2.48.56,5.14,5.14,0,0,1,1.84,1.57V115.8Zm-4.71,15.78a4,4,0,0,0,1.44-1.5,4.45,4.45,0,0,0,.53-2.18,4.36,4.36,0,0,0-.55-2.25,3.77,3.77,0,0,0-1.45-1.46,4,4,0,0,0-1.94-.5,3.82,3.82,0,0,0-2,.54,3.76,3.76,0,0,0-1.41,1.52,4.58,4.58,0,0,0-.51,2.15,4.51,4.51,0,0,0,.51,2.14,3.64,3.64,0,0,0,1.41,1.52,3.74,3.74,0,0,0,2,.55A3.88,3.88,0,0,0,166.11,131.58Z"/><path d="M183.48,122a6.31,6.31,0,0,1,2.45,2.49,7.17,7.17,0,0,1,.88,3.56l-10.68,1.54a3.89,3.89,0,0,0,1.5,1.91,4.39,4.39,0,0,0,4.68,0,4.06,4.06,0,0,0,1.52-1.8l2.58.88a6.66,6.66,0,0,1-2.53,3,7.22,7.22,0,0,1-7.42.24,6.52,6.52,0,0,1-2.49-2.48,7.07,7.07,0,0,1,0-6.94,6.58,6.58,0,0,1,2.48-2.46,7.24,7.24,0,0,1,7,0Zm-6.3,2.66a4.19,4.19,0,0,0-1.32,2.64l7.73-1.07a3.46,3.46,0,0,0-3.63-2.58A4,4,0,0,0,177.18,124.62Z"/><path d="M196.06,121.13v2.59a6,6,0,0,0-1-.09,3.28,3.28,0,0,0-2.5,1,4,4,0,0,0-.93,2.79v7h-2.83V121.34h2.77v2a3.48,3.48,0,0,1,1.44-1.64,4.24,4.24,0,0,1,2.24-.6A4.08,4.08,0,0,1,196.06,121.13Z"/><path d="M210.5,121.34v2.29h-4.07v6.91a1.55,1.55,0,0,0,.48,1.24,1.91,1.91,0,0,0,1.28.41,4.37,4.37,0,0,0,2-.48v2.5a4.53,4.53,0,0,1-1.14.35,6.29,6.29,0,0,1-1.23.13,4.3,4.3,0,0,1-3.16-1,4.25,4.25,0,0,1-1-3.13v-6.91h-1.89v-2.29h1.89v-3.22l2.83-2.16v5.38Z"/><path d="M214.63,133.88a6.48,6.48,0,0,1-2.47-2.46,7.26,7.26,0,0,1,0-7,6.48,6.48,0,0,1,2.47-2.46,7.35,7.35,0,0,1,7.05,0,6.4,6.4,0,0,1,2.49,2.46,7.26,7.26,0,0,1,0,7,6.4,6.4,0,0,1-2.49,2.46,7.43,7.43,0,0,1-7.05,0Zm5.56-2.32a3.87,3.87,0,0,0,1.45-1.5,4.59,4.59,0,0,0,0-4.32,4,4,0,0,0-7,0,4.75,4.75,0,0,0,0,4.32,3.85,3.85,0,0,0,1.44,1.5,3.9,3.9,0,0,0,2,.55A3.85,3.85,0,0,0,220.19,131.56Z"/><path d="M242.89,122.34a4.65,4.65,0,0,1,1.35,3.56v8.55h-2.82v-7.88a3.27,3.27,0,0,0-.64-2.24,2.67,2.67,0,0,0-2-.7,3.49,3.49,0,0,0-2.58,1,3.59,3.59,0,0,0-1,2.68v7.16h-2.82V115.8h2.82v7.44a4.14,4.14,0,0,1,1.75-1.62,5.49,5.49,0,0,1,2.46-.54A4.9,4.9,0,0,1,242.89,122.34Z"/><path d="M259.78,121.34v13.11H257v-2a5.21,5.21,0,0,1-1.85,1.65,5.39,5.39,0,0,1-2.55.59,6,6,0,0,1-3.26-.91,6.29,6.29,0,0,1-2.28-2.46,7.59,7.59,0,0,1,0-6.9,6.39,6.39,0,0,1,2.28-2.47,6.08,6.08,0,0,1,3.26-.9,5.39,5.39,0,0,1,2.55.58,5.15,5.15,0,0,1,1.85,1.66v-2Zm-4.72,10.24a4,4,0,0,0,1.44-1.5,4.45,4.45,0,0,0,.53-2.18,4.36,4.36,0,0,0-.55-2.25,3.77,3.77,0,0,0-1.45-1.46,4,4,0,0,0-1.94-.5,3.82,3.82,0,0,0-2,.54,3.76,3.76,0,0,0-1.41,1.52,4.58,4.58,0,0,0-.51,2.15,4.51,4.51,0,0,0,.51,2.14,3.64,3.64,0,0,0,1.41,1.52,3.74,3.74,0,0,0,2,.55A3.88,3.88,0,0,0,255.06,131.58Z"/><path d="M271.93,121.34h3l-4,13.11h-5.22l-4-13.11h3l3.62,12.21Z"/><path d="M285.94,122a6.4,6.4,0,0,1,2.46,2.49,7.28,7.28,0,0,1,.88,3.56l-10.69,1.54a3.89,3.89,0,0,0,1.5,1.91,4.39,4.39,0,0,0,4.68,0,4.06,4.06,0,0,0,1.52-1.8l2.59.88a6.75,6.75,0,0,1-2.54,3,7.22,7.22,0,0,1-7.42.24,6.59,6.59,0,0,1-2.49-2.48,7.07,7.07,0,0,1,0-6.94,6.58,6.58,0,0,1,2.48-2.46,7.24,7.24,0,0,1,7,0Zm-6.3,2.66a4.19,4.19,0,0,0-1.32,2.64l7.73-1.07a3.45,3.45,0,0,0-3.62-2.58A4,4,0,0,0,279.64,124.62Z"/><path d="M293,126.39a5.77,5.77,0,0,1,1.65-2.14l.74-.64a9.11,9.11,0,0,0,1.46-1.51,2.58,2.58,0,0,0,.49-1.53,2.22,2.22,0,0,0-.69-1.69,2.69,2.69,0,0,0-1.92-.65,3,3,0,0,0-2.09.74,4.08,4.08,0,0,0-1.19,2.11l-2.82-.83a6.45,6.45,0,0,1,2.07-3.33,5.92,5.92,0,0,1,4-1.36,6.54,6.54,0,0,1,3,.64,4.71,4.71,0,0,1,2,1.75,4.65,4.65,0,0,1,.68,2.49,4.49,4.49,0,0,1-.76,2.64,13.53,13.53,0,0,1-2.12,2.29l-.74.66a3.81,3.81,0,0,0-1,1.27,3.4,3.4,0,0,0-.28,1.42v.64h-2.8A7.8,7.8,0,0,1,293,126.39Zm-.14,7.78a1.69,1.69,0,0,1-.53-1.26,1.65,1.65,0,0,1,.52-1.25,1.78,1.78,0,0,1,1.29-.51,1.75,1.75,0,0,1,1.29.51,1.76,1.76,0,0,1,0,2.51,1.84,1.84,0,0,1-2.56,0Z"/></svg>