<svg id="Layer_1" data-name="Layer 1" xmlns="http://www.w3.org/2000/svg" viewBox="0 0 500 500"><defs><style>.cls-1{fill:#0d6b45;}.cls-2{fill:#00db91;}</style></defs><title>Mentimeter_Branding_Icons_2020</title><path class="cls-1" d="M249.79,2.11H50.73A49.73,49.73,0,0,0,1.06,51.9V201.27a49.74,49.74,0,0,0,49.67,49.79h49.68l49.68,49.78V251.06h99.7a49.74,49.74,0,0,0,49.68-49.79V51.9A49.73,49.73,0,0,0,249.79,2.11Z"/><path class="cls-2" d="M249.44,151.48H448.5a49.73,49.73,0,0,1,49.68,49.79V350.63a49.73,49.73,0,0,1-49.68,49.79H398.83l-49.68,49.79V400.42H249.44a49.73,49.73,0,0,1-49.67-49.79V201.27A49.73,49.73,0,0,1,249.44,151.48Z"/><rect x="2.17" y="489.72" width="496.78" height="10.28"/></svg>