<svg id="Layer_1" data-name="Layer 1" xmlns="http://www.w3.org/2000/svg" viewBox="0 0 500 500"><defs><style>.cls-1{fill:#ffc738;}.cls-2{fill:#ffe87a;}</style></defs><title>Mentimeter_Branding_Icons_2020</title><path class="cls-1" d="M385,150.4A99.54,99.54,0,1,0,208.9,58a76.54,76.54,0,0,0-105.5,93.89,124.42,124.42,0,0,0,21.44,247H375.16A124.4,124.4,0,0,0,385,150.4Z"/><polygon class="cls-2" points="163.89 340.19 185.71 340.19 141.75 209.11 119.94 209.11 146.42 288.07 90.21 288.07 116.69 209.11 94.88 209.11 50.93 340.19 72.74 340.19 83.35 308.54 153.28 308.54 163.89 340.19"/><path class="cls-2" d="M280.7,271.4c23.27,0,20.47-31.11,20.47-31.11s-1.4-31.18-35.4-31.18H200.23V340.19h50.51c28.88,0,55.56-2.57,55.56-39.26C306.3,275.35,280.7,271.4,280.7,271.4ZM222.24,228H250c22.73,0,26.95,8,26.95,16.67,0,10.07-2.76,18-26.95,18H222.24Zm28.5,93.38h-28.5V282.47c36.6,0,60.49,1.07,60.49,20.51C282.73,323.5,257.21,321.38,250.74,321.38Z"/><path class="cls-2" d="M391,226c-22,0-41.47,17.28-41.47,48.66s24.79,49,41.47,49,30.23-9.78,34.24-23.79c16.89,2.67,23.82,4.22,23.82,4.22s-8,38.25-57.17,38.25S327,305.07,327,274.65s16.9-68,63.81-68,56.7,38.69,56.7,38.69c-17.79,4.44-23.12,5.82-23.12,5.82S420.35,226,391,226Z"/><rect x="1.16" y="489.72" width="497.68" height="10.28"/></svg>