<svg id="Layer_1" data-name="Layer 1" xmlns="http://www.w3.org/2000/svg" viewBox="0 0 1200 611.87"><defs><style>.cls-1{fill:#ff80ab;}.cls-2{fill:#ffc738;}.cls-3{fill:#6e54bd;}.cls-4{fill:#196cff;}.cls-5{fill:#cc660a;}.cls-6{fill:#00db91;}.cls-7{fill:#0d6b45;}.cls-8{fill:#ff403d;}</style></defs><path class="cls-1" d="M343.74,292.61a8.93,8.93,0,1,1,6.29,2.63A8.55,8.55,0,0,1,343.74,292.61Zm-1,10.83,14.53.05L357,370.93l-14.53-.05Z"/><path class="cls-1" d="M426.12,308.88q6.9,6.54,6.86,18.32l-.16,44-14.53-.05.15-40.57q0-7.95-3.25-11.53t-10.4-3.6q-8.24,0-13.32,4.95t-5.12,13.76L386.22,371,371.69,371l.24-67.44,14.53.06,0,9.73a21.17,21.17,0,0,1,9-8.26,28.33,28.33,0,0,1,12.69-2.77Q419.22,302.34,426.12,308.88Z"/><path class="cls-1" d="M484.33,304l0,11.79-21-.08-.12,35.5q0,4.26,2.44,6.39a9.75,9.75,0,0,0,6.57,2.15,22.37,22.37,0,0,0,10.15-2.44l0,12.89a25.07,25.07,0,0,1-5.84,1.76,32.9,32.9,0,0,1-6.37.66q-11,0-16.23-5.33t-5.21-16.13l.12-35.5-9.73,0,0-11.78,9.74,0,.06-16.58,14.57-11.05-.1,27.68Z"/><path class="cls-1" d="M541.75,307.31a33,33,0,0,1,12.56,12.86,37.12,37.12,0,0,1,4.46,18.32l-55,7.75a20,20,0,0,0,7.71,9.83,22.47,22.47,0,0,0,24,.36,20.71,20.71,0,0,0,7.85-9.22l13.28,4.57a34.68,34.68,0,0,1-13.08,15.44,37.29,37.29,0,0,1-38.18,1.09,34,34,0,0,1-12.77-12.79,36.57,36.57,0,0,1,.13-35.71,34.37,34.37,0,0,1,12.79-12.63,37.43,37.43,0,0,1,36.19.13ZM509.28,320.9a21.57,21.57,0,0,0-6.83,13.55l39.77-5.34q-4.2-13.32-18.59-13.37A20.42,20.42,0,0,0,509.28,320.9Z"/><path class="cls-1" d="M606.46,303.3l-.05,13.29a35.15,35.15,0,0,0-5.07-.43q-8.08,0-12.9,5.1t-4.85,14.3l-.13,36.19-14.53-.05.24-67.44,14.26.05,0,10.14a18.19,18.19,0,0,1,7.43-8.4,24.63,24.63,0,0,1,15.64-2.75Z"/><path class="cls-1" d="M679,304.65l-.25,67.44-14.11,0,0-10.14a26.83,26.83,0,0,1-9.55,8.46,27.49,27.49,0,0,1-13.11,3,31,31,0,0,1-16.77-4.72,32.56,32.56,0,0,1-11.67-12.72,39.19,39.19,0,0,1,.12-35.5,32.66,32.66,0,0,1,11.77-12.64,31.07,31.07,0,0,1,16.81-4.6,27.63,27.63,0,0,1,13.08,3.06,26.9,26.9,0,0,1,9.49,8.54l0-10.15ZM654.52,357.2a20,20,0,0,0,7.43-7.65,24.84,24.84,0,0,0,0-22.82,19.57,19.57,0,0,0-7.44-7.5,20.36,20.36,0,0,0-10-2.64,19.57,19.57,0,0,0-10.29,2.78,19.27,19.27,0,0,0-7.29,7.78,24.63,24.63,0,0,0-.08,22.07,19.29,19.29,0,0,0,7.23,7.84,20.16,20.16,0,0,0,20.43.14Z"/><path class="cls-1" d="M707.45,369.18a33.78,33.78,0,0,1-12.57-12.79,37.45,37.45,0,0,1,.13-35.91,33.8,33.8,0,0,1,12.66-12.71,37,37,0,0,1,37.69,1.17,33.07,33.07,0,0,1,12.49,15.47l-13.73,4.47a21.34,21.34,0,0,0-7.44-8.94,19.51,19.51,0,0,0-11.15-3.33,19,19,0,0,0-10.23,2.84,20.47,20.47,0,0,0-7.29,7.86,24.7,24.7,0,0,0-.08,22.34,20.49,20.49,0,0,0,7.24,7.91,18.78,18.78,0,0,0,10.2,2.91,19.44,19.44,0,0,0,11.18-3.24,21.41,21.41,0,0,0,7.5-8.89l13.69,4.58a34,34,0,0,1-12.66,15.37,36.86,36.86,0,0,1-37.63.89Z"/><path class="cls-1" d="M807.81,305.12l0,11.79-21-.08-.12,35.5q0,4.26,2.44,6.39a9.75,9.75,0,0,0,6.57,2.15,22.48,22.48,0,0,0,10.15-2.43l0,12.88a25.07,25.07,0,0,1-5.84,1.76,32.9,32.9,0,0,1-6.37.66q-11,0-16.23-5.33t-5.21-16.13l.12-35.5-9.73,0,0-11.79,9.74,0,.06-16.58,14.57-11.05-.1,27.68Z"/><path class="cls-1" d="M819.22,294.33a8.93,8.93,0,1,1,6.3,2.63A8.56,8.56,0,0,1,819.22,294.33Zm-1,10.83,14.52,0-.24,67.44-14.53,0Z"/><path class="cls-1" d="M895.12,305.44l15.49.05-20.94,67.37-26.87-.1-20.31-67.51,15.35.05,18.41,62.85Z"/><path class="cls-1" d="M967.21,308.85a33,33,0,0,1,12.56,12.86A37.12,37.12,0,0,1,984.23,340l-55,7.75a20,20,0,0,0,7.7,9.83A22.49,22.49,0,0,0,961,358a20.77,20.77,0,0,0,7.85-9.22l13.27,4.57a34.54,34.54,0,0,1-13.07,15.44,37.29,37.29,0,0,1-38.18,1.09,33.94,33.94,0,0,1-12.77-12.79,36.5,36.5,0,0,1,.13-35.71A34.3,34.3,0,0,1,931,308.72a37.43,37.43,0,0,1,36.19.13Zm-32.47,13.59A21.57,21.57,0,0,0,927.91,336l39.77-5.34q-4.2-13.32-18.6-13.37A20.4,20.4,0,0,0,934.74,322.44Z"/><path class="cls-2" d="M686.72,210.69l0,9.05a23.15,23.15,0,0,0-3.46-.29,11.42,11.42,0,0,0-8.78,3.47q-3.29,3.48-3.3,9.74l-.09,24.64-9.89,0,.16-45.91,9.71,0,0,6.91a12.37,12.37,0,0,1,5.06-5.72,14.72,14.72,0,0,1,7.85-2.08A15.64,15.64,0,0,1,686.72,210.69Z"/><path class="cls-2" d="M725.25,213.72a22.52,22.52,0,0,1,8.56,8.76,25.22,25.22,0,0,1,3,12.47l-37.44,5.28a13.64,13.64,0,0,0,5.25,6.69,14.46,14.46,0,0,0,8.25,2.5,14.62,14.62,0,0,0,8.12-2.26,14,14,0,0,0,5.35-6.28l9,3.12a23.48,23.48,0,0,1-8.91,10.51,25.42,25.42,0,0,1-26,.75,23.14,23.14,0,0,1-8.69-8.71,24.91,24.91,0,0,1,.08-24.32,23.44,23.44,0,0,1,8.72-8.6,25.54,25.54,0,0,1,24.63.09ZM703.15,223a14.73,14.73,0,0,0-4.66,9.23l27.08-3.64q-2.87-9.06-12.66-9.1A13.91,13.91,0,0,0,703.15,223Z"/><path class="cls-2" d="M745.85,219.68l-6.62,0,0-8,6.62,0,0-6.16q0-7.37,3.64-11T760.61,191a22.11,22.11,0,0,1,4.34.48,17,17,0,0,1,4,1.23l0,8.77a15.3,15.3,0,0,0-6.9-1.71,6.68,6.68,0,0,0-4.49,1.43,5.43,5.43,0,0,0-1.69,4.34l0,6.16,13.07,0,0,8-13.06,0-.14,37.89-9.89,0Z"/><path class="cls-2" d="M775.63,192.35l9.89,0-.23,65.33-9.9,0Z"/><path class="cls-2" d="M829.68,214.1a22.5,22.5,0,0,1,8.55,8.76,25.31,25.31,0,0,1,3,12.47l-37.45,5.27a13.67,13.67,0,0,0,5.25,6.7,15.29,15.29,0,0,0,16.38.24,14,14,0,0,0,5.34-6.28l9,3.11a23.55,23.55,0,0,1-8.9,10.52,25.39,25.39,0,0,1-26,.74,23,23,0,0,1-8.7-8.71,24.86,24.86,0,0,1,.09-24.31A23.41,23.41,0,0,1,805,214a25.49,25.49,0,0,1,24.64.09Zm-22.11,9.25a14.67,14.67,0,0,0-4.65,9.23L830,228.94q-2.87-9.06-12.66-9.1A13.94,13.94,0,0,0,807.57,223.35Z"/><path class="cls-2" d="M857.66,255.92a23,23,0,0,1-8.55-8.71,25.47,25.47,0,0,1,.09-24.45,23,23,0,0,1,8.62-8.65,25.2,25.2,0,0,1,25.66.79,22.56,22.56,0,0,1,8.5,10.53l-9.35,3a14.49,14.49,0,0,0-5.06-6.09,13.26,13.26,0,0,0-7.6-2.26,12.81,12.81,0,0,0-7,1.93,13.92,13.92,0,0,0-5,5.35,16.8,16.8,0,0,0-.06,15.21,13.93,13.93,0,0,0,4.93,5.38,12.77,12.77,0,0,0,6.94,2,13.34,13.34,0,0,0,7.62-2.21,14.63,14.63,0,0,0,5.11-6.05l9.32,3.11a23.13,23.13,0,0,1-8.63,10.47,25.09,25.09,0,0,1-25.62.61Z"/><path class="cls-2" d="M926,212.3l0,8-14.28-.05-.09,24.17a5.4,5.4,0,0,0,1.66,4.34,6.66,6.66,0,0,0,4.48,1.47,15.28,15.28,0,0,0,6.91-1.66l0,8.77a16.73,16.73,0,0,1-4,1.2,22,22,0,0,1-4.34.45q-7.47,0-11-3.63t-3.55-11l.08-24.17-6.62,0,0-8,6.62,0,0-11.3,9.92-7.52-.07,18.85Z"/><path class="cls-2" d="M933.77,205a6.08,6.08,0,0,1,0-8.59,6.07,6.07,0,0,1,8.58,0,6.07,6.07,0,0,1-8.61,8.56Zm-.68,7.37,9.89,0-.17,45.91-9.89,0Z"/><path class="cls-2" d="M962.42,256.34a22.77,22.77,0,0,1-8.65-8.66,25.49,25.49,0,0,1,.09-24.64,22.91,22.91,0,0,1,8.71-8.6,24.49,24.49,0,0,1,12.33-3.08,24.75,24.75,0,0,1,12.35,3.17,22.83,22.83,0,0,1,8.7,8.66,25.49,25.49,0,0,1-.09,24.64,22.76,22.76,0,0,1-8.76,8.6,24.83,24.83,0,0,1-12.37,3.09A24.5,24.5,0,0,1,962.42,256.34Zm19.49-8A13.79,13.79,0,0,0,987,243a16.22,16.22,0,0,0,.06-15.12,13.77,13.77,0,0,0-12.2-7.23,13.68,13.68,0,0,0-7.15,1.89,13.52,13.52,0,0,0-5.06,5.25,16.57,16.57,0,0,0,0,15.12,13.32,13.32,0,0,0,5,5.29,13.65,13.65,0,0,0,7.13,1.94A13.82,13.82,0,0,0,981.91,248.3Z"/><path class="cls-2" d="M1043.9,216.23q4.69,4.46,4.66,12.48l-.11,30-9.89,0,.1-27.63q0-5.42-2.21-7.84t-7.08-2.46a12.32,12.32,0,0,0-9.07,3.38q-3.46,3.39-3.48,9.36l-.1,25.11-9.89,0,.17-45.91,9.89,0,0,6.63a14.48,14.48,0,0,1,6.13-5.63,19.35,19.35,0,0,1,8.64-1.88Q1039.2,211.78,1043.9,216.23Z"/><path class="cls-3" d="M206.29,244.08l6.83,0L213,289.21l-6.84,0Z"/><path class="cls-3" d="M220.43,252.44a4.19,4.19,0,0,1,3-7.14,4.19,4.19,0,0,1,0,8.38A4.07,4.07,0,0,1,220.43,252.44Zm-.47,5.09,6.84,0-.12,31.7-6.83,0Z"/><path class="cls-3" d="M256.11,257.66l7.28,0-9.84,31.66-12.63,0-9.55-31.74,7.22,0,8.65,29.54Z"/><path class="cls-3" d="M290,259.27a15.52,15.52,0,0,1,5.91,6,17.53,17.53,0,0,1,2.09,8.61l-25.85,3.64a9.37,9.37,0,0,0,3.62,4.62,10.55,10.55,0,0,0,11.31.17,9.65,9.65,0,0,0,3.69-4.33l6.24,2.15a16.28,16.28,0,0,1-6.15,7.26,17.54,17.54,0,0,1-17.94.51,16.05,16.05,0,0,1-6-6,17.19,17.19,0,0,1,.06-16.79,16.26,16.26,0,0,1,6-5.94,17.57,17.57,0,0,1,17,.07Zm-15.26,6.38a10.11,10.11,0,0,0-3.21,6.37l18.69-2.51q-2-6.25-8.74-6.28A9.6,9.6,0,0,0,274.74,265.65Z"/><path class="cls-4" d="M188.11,419.16a22.29,22.29,0,0,1,7.95,8.66A26.67,26.67,0,0,1,196,452a22.2,22.2,0,0,1-8,8.6,21.14,21.14,0,0,1-11.44,3.14,18.73,18.73,0,0,1-8.91-2.09,18.3,18.3,0,0,1-6.46-5.81l0,6.91-9.61,0,.24-65.32,9.89,0-.09,25.95a18.2,18.2,0,0,1,6.45-5.49,18.89,18.89,0,0,1,8.69-1.93A21.17,21.17,0,0,1,188.11,419.16ZM182,452.69a13.3,13.3,0,0,0,5-5.3,16.8,16.8,0,0,0,.05-15,13.26,13.26,0,0,0-11.92-7.28,13.88,13.88,0,0,0-6.82,1.75,13.35,13.35,0,0,0-5.1,5.07,17,17,0,0,0-.11,15.54,13.61,13.61,0,0,0,5,5.24,13.71,13.71,0,0,0,13.91,0Z"/><path class="cls-4" d="M232.22,416.33l0,9.05a24.31,24.31,0,0,0-3.45-.29,11.4,11.4,0,0,0-8.78,3.47q-3.28,3.48-3.31,9.74l-.08,24.64-9.9,0,.17-45.91,9.71,0,0,6.91a12.37,12.37,0,0,1,5.06-5.72,14.72,14.72,0,0,1,7.85-2.08A15.72,15.72,0,0,1,232.22,416.33Z"/><path class="cls-4" d="M281.58,417.26l-.16,45.91-9.62,0,0-6.91a18.34,18.34,0,0,1-6.51,5.77,18.86,18.86,0,0,1-8.92,2A21.17,21.17,0,0,1,245,460.8a22.22,22.22,0,0,1-7.95-8.66,26.67,26.67,0,0,1,.09-24.17,22.2,22.2,0,0,1,8-8.6,21.15,21.15,0,0,1,11.45-3.14,18.68,18.68,0,0,1,8.9,2.09,18.33,18.33,0,0,1,6.47,5.81l0-6.91ZM264.94,453a13.58,13.58,0,0,0,5.05-5.2,16.87,16.87,0,0,0,0-15.54,13.29,13.29,0,0,0-5.06-5.11,13.78,13.78,0,0,0-6.81-1.8,13.47,13.47,0,0,0-7,1.89,13.21,13.21,0,0,0-5,5.3,16.84,16.84,0,0,0-.06,15,13.18,13.18,0,0,0,4.93,5.34,13.71,13.71,0,0,0,13.91.09Z"/><path class="cls-4" d="M292.34,409.92a6.07,6.07,0,0,1,4.33-10.34,6,6,0,0,1,6,6.09,6.07,6.07,0,0,1-10.37,4.25Zm-.68,7.37,9.89,0-.16,45.92-9.9,0Z"/><path class="cls-4" d="M348.43,421q4.71,4.46,4.67,12.48L353,463.43l-9.89,0,.1-27.63c0-3.61-.72-6.22-2.21-7.85s-3.85-2.44-7.08-2.45a12.32,12.32,0,0,0-9.07,3.38q-3.46,3.39-3.49,9.36l-.09,25.11-9.89,0,.17-45.91,9.89,0,0,6.63a14.48,14.48,0,0,1,6.13-5.63,19.35,19.35,0,0,1,8.64-1.88Q343.74,416.55,348.43,421Z"/><path class="cls-4" d="M366.81,462a17.09,17.09,0,0,1-8.09-8.24l7.11-4.83a13.76,13.76,0,0,0,5.3,5.11,15.67,15.67,0,0,0,7.93,2.12,10.3,10.3,0,0,0,6.07-1.51,4.88,4.88,0,0,0,2.16-4.15,4,4,0,0,0-2-3.46,20.13,20.13,0,0,0-5.87-2.35l-4.75-1.23q-7.56-2-10.9-5.27a10.56,10.56,0,0,1-3.33-7.85,12.68,12.68,0,0,1,2.08-6.95,14.22,14.22,0,0,1,6-5.11,22,22,0,0,1,9.57-1.88,22.41,22.41,0,0,1,11.61,2.89,17.29,17.29,0,0,1,6.84,6.89L389,430.9a12,12,0,0,0-4.51-4.4,13.21,13.21,0,0,0-6.67-1.71,8.32,8.32,0,0,0-5.28,1.43,4.44,4.44,0,0,0-1.83,3.58,3.62,3.62,0,0,0,1.9,3.23,22.73,22.73,0,0,0,6,2.22l5.13,1.32q7,1.8,10.25,5a11.11,11.11,0,0,1,3.24,8.27,13.29,13.29,0,0,1-2.41,7.83,15.73,15.73,0,0,1-6.55,5.21,22.57,22.57,0,0,1-9.3,1.83A27.12,27.12,0,0,1,366.81,462Z"/><path class="cls-4" d="M431.37,417.8l0,8-14.28-.06L417,450a5.43,5.43,0,0,0,1.66,4.34,6.6,6.6,0,0,0,4.48,1.46A15.26,15.26,0,0,0,430,454.1l0,8.77a17.05,17.05,0,0,1-4,1.2,22.77,22.77,0,0,1-4.34.45q-7.47,0-11.05-3.63t-3.55-11l.08-24.17-6.62,0,0-8,6.62,0,0-11.29,9.92-7.52-.06,18.85Z"/><path class="cls-4" d="M445.67,461.76A23,23,0,0,1,437,453.1a25.56,25.56,0,0,1,.09-24.64,22.91,22.91,0,0,1,8.71-8.6,25.95,25.95,0,0,1,24.69.09,22.8,22.8,0,0,1,8.69,8.66,25.49,25.49,0,0,1-.09,24.64,22.87,22.87,0,0,1-8.75,8.6A24.75,24.75,0,0,1,458,464.93,24.42,24.42,0,0,1,445.67,461.76Zm19.49-8.05a13.76,13.76,0,0,0,5.1-5.25,16.22,16.22,0,0,0,.06-15.12A14.08,14.08,0,0,0,451,428a13.43,13.43,0,0,0-5.05,5.25,15.52,15.52,0,0,0-1.85,7.55,15.67,15.67,0,0,0,1.79,7.57,13.53,13.53,0,0,0,5,5.29,14.27,14.27,0,0,0,14.28,0Z"/><path class="cls-4" d="M515.64,417.36l0,9.05a23.15,23.15,0,0,0-3.46-.29,11.38,11.38,0,0,0-8.78,3.47q-3.28,3.48-3.3,9.74L500,464l-9.89,0,.16-45.92,9.71,0,0,6.9a12.42,12.42,0,0,1,5.06-5.72,14.81,14.81,0,0,1,7.85-2.07A15.64,15.64,0,0,1,515.64,417.36Z"/><path class="cls-4" d="M583.84,421.52Q588,425.65,588,433.3l-.11,31-9.89,0,.1-29.31q0-4.47-1.93-6.54t-5.88-2.07a9.8,9.8,0,0,0-7.1,3,11,11,0,0,0-3.11,8.24l-.1,26.6-9.89,0,.11-29.31c0-3-.64-5.16-1.94-6.54s-3.26-2.06-5.87-2.07a9.71,9.71,0,0,0-7.15,3,11.32,11.32,0,0,0-3.06,8.3l-.1,26.5-9.89,0,.17-45.92,9.89,0,0,6.26a13.2,13.2,0,0,1,5.33-5.35,16.41,16.41,0,0,1,15.54.34,12,12,0,0,1,5.06,6.22,17.7,17.7,0,0,1,6.23-6.09,16.77,16.77,0,0,1,8.55-2.16A15,15,0,0,1,583.84,421.52Z"/><path class="cls-3" d="M617,160a16.09,16.09,0,0,1-7.64-7.78l6.72-4.57a13,13,0,0,0,5,4.83,14.75,14.75,0,0,0,7.49,2,9.77,9.77,0,0,0,5.74-1.43,4.63,4.63,0,0,0,2-3.92,3.78,3.78,0,0,0-1.84-3.27,19,19,0,0,0-5.55-2.23l-4.49-1.16q-7.14-1.87-10.31-5a10,10,0,0,1-3.14-7.42,11.94,11.94,0,0,1,2-6.57,13.49,13.49,0,0,1,5.71-4.83,20.63,20.63,0,0,1,9-1.77,21.07,21.07,0,0,1,11,2.73,16.22,16.22,0,0,1,6.46,6.5l-7.24,4.47a11.53,11.53,0,0,0-4.27-4.16,12.56,12.56,0,0,0-6.3-1.61,7.91,7.91,0,0,0-5,1.35,4.2,4.2,0,0,0-1.73,3.39,3.43,3.43,0,0,0,1.8,3.05,21.2,21.2,0,0,0,5.68,2.09L633,136q6.6,1.69,9.68,4.75a10.49,10.49,0,0,1,3.06,7.81,12.5,12.5,0,0,1-2.28,7.41,14.71,14.71,0,0,1-6.19,4.91,21,21,0,0,1-8.78,1.73A25.56,25.56,0,0,1,617,160Z"/><path class="cls-3" d="M687.67,121.63c3,2.8,4.43,6.73,4.41,11.79l-.1,28.31-9.35,0,.09-26.1c0-3.41-.68-5.88-2.09-7.42s-3.64-2.3-6.69-2.31a11.65,11.65,0,0,0-8.57,3.18q-3.27,3.21-3.3,8.86L662,161.62l-9.35,0,.22-61.73,9.35,0-.09,24.61a13.72,13.72,0,0,1,5.8-5.32,18.09,18.09,0,0,1,8.16-1.77Q683.24,117.42,687.67,121.63Z"/><path class="cls-3" d="M743.55,118.52l-.16,43.39-9.08,0,0-6.53a17.15,17.15,0,0,1-6.15,5.45,17.76,17.76,0,0,1-8.43,1.91,20,20,0,0,1-10.79-3,21,21,0,0,1-7.51-8.18,25.27,25.27,0,0,1,.08-22.85,21.1,21.1,0,0,1,7.57-8.13,20.11,20.11,0,0,1,10.82-3,17.7,17.7,0,0,1,8.41,2,17.24,17.24,0,0,1,6.11,5.49l0-6.53Zm-15.73,33.81a12.92,12.92,0,0,0,4.78-4.92,16,16,0,0,0,0-14.68,12.7,12.7,0,0,0-4.79-4.83,13.08,13.08,0,0,0-6.44-1.7,12.54,12.54,0,0,0-11.31,6.8,15.86,15.86,0,0,0-.05,14.19,12.37,12.37,0,0,0,4.66,5.05,13,13,0,0,0,13.14.09Z"/><path class="cls-3" d="M777.07,117.94l0,8.55a21.79,21.79,0,0,0-3.27-.27,10.79,10.79,0,0,0-8.3,3.27q-3.11,3.3-3.12,9.21L762.27,162l-9.35,0,.15-43.39,9.18,0,0,6.53a11.69,11.69,0,0,1,4.79-5.41,13.92,13.92,0,0,1,7.41-2A15.1,15.1,0,0,1,777.07,117.94Z"/><path class="cls-3" d="M813.48,120.8a21.38,21.38,0,0,1,8.09,8.28,23.9,23.9,0,0,1,2.86,11.79l-35.38,5a12.84,12.84,0,0,0,5,6.32,13.69,13.69,0,0,0,7.8,2.37,13.87,13.87,0,0,0,7.68-2.13,13.35,13.35,0,0,0,5-5.94l8.54,2.94a22.23,22.23,0,0,1-8.41,9.94,24,24,0,0,1-24.57.7,21.87,21.87,0,0,1-8.22-8.23,23.52,23.52,0,0,1,.09-23,22.07,22.07,0,0,1,8.23-8.13,24.08,24.08,0,0,1,23.28.08Zm-20.89,8.75a13.87,13.87,0,0,0-4.4,8.71l25.59-3.43q-2.7-8.57-12-8.6A13.13,13.13,0,0,0,792.59,129.55Z"/><path class="cls-5" d="M864.17,145.05a9.8,9.8,0,0,1-4.63-4.73l4.07-2.76a7.87,7.87,0,0,0,3,2.92,8.85,8.85,0,0,0,4.54,1.22,5.82,5.82,0,0,0,3.48-.87,2.74,2.74,0,0,0,1.24-2.37,2.3,2.3,0,0,0-1.11-2,11.67,11.67,0,0,0-3.37-1.35l-2.72-.7a14,14,0,0,1-6.25-3,6,6,0,0,1-1.91-4.5,7.22,7.22,0,0,1,1.19-4A8.11,8.11,0,0,1,865.2,120a12.45,12.45,0,0,1,5.49-1.08,12.79,12.79,0,0,1,6.65,1.66,9.93,9.93,0,0,1,3.92,3.94l-4.4,2.72a6.89,6.89,0,0,0-2.58-2.53,7.58,7.58,0,0,0-3.82-1,4.76,4.76,0,0,0-3,.81,2.54,2.54,0,0,0-1,2.06,2.07,2.07,0,0,0,1.09,1.85,13.1,13.1,0,0,0,3.45,1.27l2.94.76a12.82,12.82,0,0,1,5.87,2.88,6.42,6.42,0,0,1,1.86,4.74,7.64,7.64,0,0,1-1.38,4.49,9,9,0,0,1-3.76,3,12.78,12.78,0,0,1-5.33,1.05A15.59,15.59,0,0,1,864.17,145.05Z"/><path class="cls-5" d="M891.08,144.85a13.05,13.05,0,0,1-5-5,14.57,14.57,0,0,1,0-14.12,13.12,13.12,0,0,1,5-4.93,14.91,14.91,0,0,1,14.15,0,13.06,13.06,0,0,1,5,5,14.57,14.57,0,0,1,0,14.12,13.06,13.06,0,0,1-5,4.93,14.84,14.84,0,0,1-14.15-.05Zm11.17-4.61a7.92,7.92,0,0,0,2.93-3,9.36,9.36,0,0,0,0-8.67,8.05,8.05,0,0,0-11.09-3.06,7.7,7.7,0,0,0-2.9,3,9.51,9.51,0,0,0,0,8.67,7.77,7.77,0,0,0,2.88,3,8.19,8.19,0,0,0,8.18,0Z"/><path class="cls-5" d="M917.48,124.38l-3.8,0v-4.6l3.8,0v-3.53q0-4.23,2.09-6.28c1.37-1.37,3.49-2,6.34-2a13,13,0,0,1,2.49.28,9.54,9.54,0,0,1,2.27.7l0,5a8.77,8.77,0,0,0-3.95-1,3.81,3.81,0,0,0-2.57.82,3.08,3.08,0,0,0-1,2.49l0,3.53,7.49,0v4.61l-7.49,0-.08,21.71-5.67,0Z"/><path class="cls-5" d="M950.6,119.9v4.6l-8.19,0,0,13.85a3.1,3.1,0,0,0,1,2.49,3.74,3.74,0,0,0,2.56.84,8.62,8.62,0,0,0,4-1l0,5a10.06,10.06,0,0,1-2.27.69,13.69,13.69,0,0,1-2.49.26q-4.27,0-6.33-2.09t-2-6.29l.05-13.85-3.8,0,0-4.6,3.8,0,0-6.48,5.69-4.31,0,10.81Z"/><path class="cls-5" d="M987.46,120l5.67,0-5.23,26.3-9.95,0-4.62-24.24-4.79,24.21-10.17,0-5-26.33,5.83,0,4.45,24.46L968.36,120l9.9,0,4.57,24.35Z"/><path class="cls-5" d="M1022.87,120.16l-.09,26.32-5.51,0v-4a10.43,10.43,0,0,1-3.73,3.3,10.67,10.67,0,0,1-5.11,1.16,12.1,12.1,0,0,1-6.54-1.84,12.71,12.71,0,0,1-4.56-5,15.32,15.32,0,0,1,0-13.85,12.68,12.68,0,0,1,4.59-4.93,12.1,12.1,0,0,1,6.56-1.8,10.73,10.73,0,0,1,5.1,1.2,10.46,10.46,0,0,1,3.71,3.33v-4Zm-9.54,20.51a7.79,7.79,0,0,0,2.9-3,8.89,8.89,0,0,0,1.09-4.38,9,9,0,0,0-1.08-4.53,7.7,7.7,0,0,0-2.91-2.92,7.84,7.84,0,0,0-3.9-1,7.57,7.57,0,0,0-6.86,4.12,9.13,9.13,0,0,0-1,4.3,9,9,0,0,0,1,4.31,7.45,7.45,0,0,0,2.82,3.06,7.89,7.89,0,0,0,8,.06Z"/><path class="cls-5" d="M1043.2,119.8l0,5.19a12.92,12.92,0,0,0-2-.16,6.54,6.54,0,0,0-5,2,7.92,7.92,0,0,0-1.89,5.59l0,14.12-5.67,0,.09-26.32,5.57,0,0,4a7.1,7.1,0,0,1,2.9-3.28,8.5,8.5,0,0,1,4.5-1.19A8.84,8.84,0,0,1,1043.2,119.8Z"/><path class="cls-5" d="M1065.29,121.54a12.92,12.92,0,0,1,4.9,5,14.48,14.48,0,0,1,1.74,7.15l-21.46,3a7.81,7.81,0,0,0,3,3.83,8.35,8.35,0,0,0,4.73,1.44,8.45,8.45,0,0,0,4.66-1.3,8,8,0,0,0,3.06-3.6l5.18,1.79a13.48,13.48,0,0,1-5.1,6,14.57,14.57,0,0,1-14.9.43,13.18,13.18,0,0,1-5-5,14.22,14.22,0,0,1,0-13.94,13.41,13.41,0,0,1,5-4.93,14.64,14.64,0,0,1,14.12.05Zm-12.67,5.31a8.46,8.46,0,0,0-2.67,5.28l15.52-2.08q-1.63-5.19-7.25-5.22A8,8,0,0,0,1052.62,126.85Z"/><path class="cls-6" d="M638.47,33.88A17.23,17.23,0,0,1,645,40.57a19.28,19.28,0,0,1,2.31,9.52l-28.59,4a10.46,10.46,0,0,0,4,5.11,11,11,0,0,0,6.3,1.91,11.16,11.16,0,0,0,6.21-1.72,10.77,10.77,0,0,0,4.08-4.8l6.9,2.38a18,18,0,0,1-6.8,8,19.43,19.43,0,0,1-19.85.57,17.76,17.76,0,0,1-6.64-6.66A19,19,0,0,1,613,40.38a17.92,17.92,0,0,1,6.65-6.57,19.52,19.52,0,0,1,18.81.07ZM621.6,41A11.18,11.18,0,0,0,618,48l20.68-2.78q-2.19-6.91-9.67-6.94A10.57,10.57,0,0,0,621.6,41Z"/><path class="cls-6" d="M687.15,32.42,687,67.48l-7.34,0,0-5.27a14,14,0,0,1-5,4.4,14.25,14.25,0,0,1-6.81,1.54,16.19,16.19,0,0,1-8.72-2.45,17.12,17.12,0,0,1-6.07-6.61,20.42,20.42,0,0,1,.07-18.46A16.92,16.92,0,0,1,659.32,34a16.09,16.09,0,0,1,8.73-2.39,14.31,14.31,0,0,1,6.8,1.59,13.89,13.89,0,0,1,4.94,4.44l0-5.28ZM674.44,59.74a10.48,10.48,0,0,0,3.86-4,11.82,11.82,0,0,0,1.45-5.84,12,12,0,0,0-1.44-6,10.21,10.21,0,0,0-3.87-3.9,10.45,10.45,0,0,0-5.2-1.37,10.11,10.11,0,0,0-9.14,5.49,12.86,12.86,0,0,0,0,11.47,10.12,10.12,0,0,0,9.1,5.55A10.23,10.23,0,0,0,674.44,59.74Z"/><path class="cls-6" d="M698.14,66.38A13,13,0,0,1,692,60.09l5.42-3.69a10.59,10.59,0,0,0,4.05,3.9,11.9,11.9,0,0,0,6,1.62,7.84,7.84,0,0,0,4.64-1.16,3.71,3.71,0,0,0,1.65-3.16A3,3,0,0,0,712.29,55a15.27,15.27,0,0,0-4.48-1.8l-3.63-.94q-5.77-1.52-8.32-4a8,8,0,0,1-2.55-6,9.76,9.76,0,0,1,1.59-5.3,11,11,0,0,1,4.61-3.9,16.64,16.64,0,0,1,7.31-1.44,17.14,17.14,0,0,1,8.86,2.21A13.21,13.21,0,0,1,720.9,39L715,42.64a9.18,9.18,0,0,0-3.44-3.36,10,10,0,0,0-5.09-1.3,6.28,6.28,0,0,0-4,1.09,3.37,3.37,0,0,0-1.4,2.73,2.77,2.77,0,0,0,1.45,2.47A17.27,17.27,0,0,0,707.12,46L711,47c3.56.92,6.16,2.2,7.82,3.84a8.47,8.47,0,0,1,2.47,6.32,10.09,10.09,0,0,1-1.83,6,12,12,0,0,1-5,4,17.1,17.1,0,0,1-7.09,1.4A20.66,20.66,0,0,1,698.14,66.38Z"/><path class="cls-6" d="M750.64,32.65l7.91,0L744.41,80.51l-7.84,0,3.75-12.81-6.84,0-10.06-35.1,7.84,0,9.49,33.67Z"/><path class="cls-6" d="M223.47,106.74a6.08,6.08,0,1,1,4.29,1.79A5.81,5.81,0,0,1,223.47,106.74Zm-.68,7.37,9.89,0-.16,45.91-9.89,0Z"/><path class="cls-6" d="M279.57,117.82q4.69,4.44,4.66,12.47l-.1,30-9.9,0,.1-27.62c0-3.61-.72-6.22-2.21-7.85s-3.85-2.44-7.08-2.45a12.34,12.34,0,0,0-9.07,3.38q-3.47,3.39-3.48,9.36l-.09,25.1-9.9,0,.17-45.92,9.89,0,0,6.63a14.42,14.42,0,0,1,6.13-5.63,19.35,19.35,0,0,1,8.64-1.88Q274.87,113.37,279.57,117.82Z"/><path class="cls-6" d="M302.94,158.26a23,23,0,0,1-8.56-8.71,25.47,25.47,0,0,1,.09-24.45,23,23,0,0,1,8.62-8.64,25.2,25.2,0,0,1,25.66.79,22.56,22.56,0,0,1,8.5,10.53l-9.34,3.05a14.44,14.44,0,0,0-5.07-6.09,13.24,13.24,0,0,0-7.59-2.27,12.77,12.77,0,0,0-7,1.94,13.94,13.94,0,0,0-5,5.35,16.8,16.8,0,0,0-.06,15.21,14,14,0,0,0,4.93,5.38,12.89,12.89,0,0,0,6.95,2,13.21,13.21,0,0,0,7.61-2.22,14.42,14.42,0,0,0,5.11-6.05l9.32,3.12a23.23,23.23,0,0,1-8.62,10.47,25.12,25.12,0,0,1-25.62.6Z"/><path class="cls-6" d="M343.81,95.14l9.89,0-.24,65.33-9.89,0Z"/><path class="cls-6" d="M405,114.77l-.17,45.92-9.52,0,0-7.65a15,15,0,0,1-6.28,6.32,18.71,18.71,0,0,1-9.15,2.21q-7.74,0-12.21-4.43t-4.43-12.43l.11-30,9.89,0-.1,27.06q0,10.35,9.57,10.39a11.49,11.49,0,0,0,8.74-3.65c2.35-2.45,3.52-5.85,3.54-10.21l.09-23.51Z"/><path class="cls-6" d="M419.35,159.25a17,17,0,0,1-8.08-8.25l7.11-4.82a13.81,13.81,0,0,0,5.3,5.1,15.57,15.57,0,0,0,7.92,2.13,10.28,10.28,0,0,0,6.07-1.52,4.85,4.85,0,0,0,2.17-4.14,4,4,0,0,0-1.95-3.46,20,20,0,0,0-5.87-2.35l-4.76-1.24q-7.54-2-10.9-5.26a10.56,10.56,0,0,1-3.33-7.85,12.68,12.68,0,0,1,2.08-7,14.25,14.25,0,0,1,6-5.11,22,22,0,0,1,9.57-1.88,22.46,22.46,0,0,1,11.61,2.89,17.37,17.37,0,0,1,6.83,6.88l-7.67,4.74a12,12,0,0,0-4.51-4.41,13.27,13.27,0,0,0-6.66-1.7,8.29,8.29,0,0,0-5.28,1.43,4.39,4.39,0,0,0-1.83,3.58,3.58,3.58,0,0,0,1.9,3.23,22.94,22.94,0,0,0,6,2.22l5.13,1.32q7,1.8,10.24,5a11.11,11.11,0,0,1,3.24,8.27,13.15,13.15,0,0,1-2.41,7.83,15.64,15.64,0,0,1-6.55,5.2,22.34,22.34,0,0,1-9.29,1.84A27.32,27.32,0,0,1,419.35,159.25Z"/><path class="cls-6" d="M457.9,107.59a6.07,6.07,0,0,1,4.33-10.34,6.07,6.07,0,0,1,0,12.13A5.86,5.86,0,0,1,457.9,107.59Zm-.68,7.37,9.89,0-.17,45.91-9.89,0Z"/><path class="cls-6" d="M509.57,115.15l10.55,0-14.26,45.86L487.57,161l-13.83-46,10.45,0,12.54,42.79Z"/><path class="cls-6" d="M558.65,117.48a22.36,22.36,0,0,1,8.56,8.75,25.22,25.22,0,0,1,3,12.47L532.8,144a13.64,13.64,0,0,0,5.25,6.69,14.46,14.46,0,0,0,8.25,2.5,14.71,14.71,0,0,0,8.13-2.25,14.12,14.12,0,0,0,5.34-6.29l9,3.12a23.52,23.52,0,0,1-8.9,10.51,25.44,25.44,0,0,1-26,.75,23.14,23.14,0,0,1-8.69-8.71,24.85,24.85,0,0,1,.09-24.31,23.2,23.2,0,0,1,8.71-8.6,25.47,25.47,0,0,1,24.63.09Zm-22.1,9.25A14.65,14.65,0,0,0,531.9,136L559,132.32q-2.87-9.07-12.66-9.1A13.82,13.82,0,0,0,536.55,126.73Z"/><path class="cls-4" d="M438.63,28.69l-6.63,0,0-8,6.62,0,0-6.16c0-4.91,1.23-8.56,3.63-10.95S448.4,0,453.38,0a23.66,23.66,0,0,1,4.34.48,17.2,17.2,0,0,1,4,1.23l0,8.77a15.42,15.42,0,0,0-6.9-1.7,6.63,6.63,0,0,0-4.49,1.43,5.42,5.42,0,0,0-1.69,4.33l0,6.16,13.06.05,0,8-13.06,0-.14,37.89-9.89,0Z"/><path class="cls-4" d="M509.67,20.92l-.16,45.92-9.52,0,0-7.65a15.07,15.07,0,0,1-6.28,6.32,18.71,18.71,0,0,1-9.15,2.21q-7.75,0-12.21-4.43t-4.44-12.43l.11-30,9.89,0-.09,27.06q0,10.37,9.57,10.39a11.51,11.51,0,0,0,8.74-3.65q3.51-3.68,3.54-10.21l.08-23.51Z"/><path class="cls-4" d="M556.65,24.59q4.7,4.45,4.67,12.48L561.21,67l-9.9,0,.1-27.63c0-3.6-.72-6.22-2.21-7.84s-3.85-2.44-7.08-2.46a12.34,12.34,0,0,0-9.07,3.38q-3.46,3.39-3.48,9.36l-.09,25.11-9.89,0L519.75,21l9.89,0,0,6.63A14.46,14.46,0,0,1,535.75,22a19.22,19.22,0,0,1,8.64-1.89Q551.95,20.14,556.65,24.59Z"/><path class="cls-5" d="M727.59,464.79l-12.69-.05-20.63-24.8-.09,24.73-9.89,0,.24-65.32,9.89,0-.15,40.41L714,418.82l12.22.05L706.22,439.7Z"/><path class="cls-5" d="M770.16,422.53q4.7,4.44,4.67,12.47l-.11,30-9.89,0,.1-27.62c0-3.61-.73-6.22-2.21-7.85s-3.85-2.44-7.09-2.45a12.35,12.35,0,0,0-9.06,3.37q-3.47,3.4-3.49,9.37l-.09,25.1-9.89,0,.16-45.92,9.9,0,0,6.62a14.49,14.49,0,0,1,6.14-5.62,19.14,19.14,0,0,1,8.63-1.88Q765.46,418.08,770.16,422.53Z"/><path class="cls-5" d="M793.67,463a23,23,0,0,1-8.65-8.66,25.56,25.56,0,0,1,.09-24.64,22.91,22.91,0,0,1,8.71-8.6,25.95,25.95,0,0,1,24.69.09,22.8,22.8,0,0,1,8.69,8.66,25.49,25.49,0,0,1-.09,24.64,22.87,22.87,0,0,1-8.75,8.6A24.75,24.75,0,0,1,806,466.19,24.45,24.45,0,0,1,793.67,463Zm19.49-8a13.76,13.76,0,0,0,5.1-5.25,16.22,16.22,0,0,0,.06-15.12A14.08,14.08,0,0,0,799,429.26a13.43,13.43,0,0,0-5.05,5.25,15.52,15.52,0,0,0-1.85,7.55,15.67,15.67,0,0,0,1.79,7.57,13.53,13.53,0,0,0,5,5.29,14.27,14.27,0,0,0,14.28.05Z"/><path class="cls-5" d="M894.43,419.48l9.9,0L895.2,465.4l-17.36-.07L869.78,423l-8.36,42.24-17.73-.06L835,419.26l10.17,0L852.94,462l8.18-42.62,17.26.06,8,42.49Z"/><path class="cls-5" d="M912.24,400.13l9.89,0-.24,65.32-9.89,0Z"/><path class="cls-5" d="M966.29,421.88a22.5,22.5,0,0,1,8.55,8.76,25.22,25.22,0,0,1,3,12.47l-37.44,5.28a13.69,13.69,0,0,0,5.25,6.69,14.46,14.46,0,0,0,8.25,2.5,14.63,14.63,0,0,0,8.13-2.26A14,14,0,0,0,967.4,449l9,3.12a23.52,23.52,0,0,1-8.9,10.51,25.44,25.44,0,0,1-26,.75,23.14,23.14,0,0,1-8.69-8.71,24.87,24.87,0,0,1,.09-24.32,23.34,23.34,0,0,1,8.71-8.6,25.56,25.56,0,0,1,24.64.09Zm-22.11,9.25a14.7,14.7,0,0,0-4.65,9.23l27.08-3.64q-2.86-9.06-12.66-9.1A13.94,13.94,0,0,0,944.18,431.13Z"/><path class="cls-5" d="M1030.1,400.56l-.23,65.32-9.62,0,0-6.91a18.21,18.21,0,0,1-6.51,5.76,18.77,18.77,0,0,1-8.92,2,21.17,21.17,0,0,1-11.42-3.22,22.22,22.22,0,0,1-7.95-8.66,26.67,26.67,0,0,1,.09-24.17,22.3,22.3,0,0,1,8-8.61,21.22,21.22,0,0,1,11.44-3.13,18.85,18.85,0,0,1,8.68,2,18.41,18.41,0,0,1,6.42,5.53l.09-25.94Zm-16.72,55.18a13.53,13.53,0,0,0,5.06-5.2,16.87,16.87,0,0,0,0-15.54,13.24,13.24,0,0,0-5.07-5.11,13.75,13.75,0,0,0-6.8-1.8,13.47,13.47,0,0,0-7,1.89,13.21,13.21,0,0,0-5,5.3,16.84,16.84,0,0,0-.06,15,13.18,13.18,0,0,0,4.93,5.34,13.69,13.69,0,0,0,13.9.09Z"/><path class="cls-5" d="M1084.72,420.16l-.15,41.91a22.7,22.7,0,0,1-2.84,11.23,20.26,20.26,0,0,1-8.06,7.86,24.37,24.37,0,0,1-12.05,2.85,27.61,27.61,0,0,1-13.33-3.13,18.87,18.87,0,0,1-8.28-8.52l8.7-4.17a13.38,13.38,0,0,0,5.11,5,15.53,15.53,0,0,0,7.84,1.94q6.06,0,9.53-3.69a13.64,13.64,0,0,0,3.49-9.6v-3.08a18,18,0,0,1-6.32,5.25,19,19,0,0,1-8.64,1.88,20.94,20.94,0,0,1-11.33-3.17,22.06,22.06,0,0,1-7.81-8.52,25.91,25.91,0,0,1,.09-23.61,21.58,21.58,0,0,1,7.87-8.42,21.2,21.2,0,0,1,11.35-3,19.34,19.34,0,0,1,8.81,2,17.33,17.33,0,0,1,6.37,5.53l0-6.53ZM1068.26,455a13.18,13.18,0,0,0,4.92-5.07,14.86,14.86,0,0,0,1.85-7.36,14.57,14.57,0,0,0-1.89-7.61,13,13,0,0,0-5-4.92,13.59,13.59,0,0,0-6.61-1.71,13.32,13.32,0,0,0-7,1.84,13,13,0,0,0-4.88,5.07,15.1,15.1,0,0,0-1.75,7.23,14.32,14.32,0,0,0,3.79,10.23,12.77,12.77,0,0,0,9.69,4.1A13.1,13.1,0,0,0,1068.26,455Z"/><path class="cls-5" d="M1129,422.47a22.5,22.5,0,0,1,8.55,8.76,25.23,25.23,0,0,1,3,12.47L1103.19,449a13.62,13.62,0,0,0,5.24,6.69,15.29,15.29,0,0,0,16.38.24,14.06,14.06,0,0,0,5.35-6.28l9,3.12a23.61,23.61,0,0,1-8.91,10.51,25.42,25.42,0,0,1-26,.75,23.19,23.19,0,0,1-8.7-8.72,24.86,24.86,0,0,1,.09-24.31,23.41,23.41,0,0,1,8.71-8.6,25.49,25.49,0,0,1,24.64.09Zm-22.1,9.25a14.63,14.63,0,0,0-4.66,9.23l27.08-3.64q-2.86-9.06-12.66-9.1A13.9,13.9,0,0,0,1106.94,431.72Z"/><path class="cls-7" d="M488.94,513.64a4,4,0,1,1,2.84,1.19A3.88,3.88,0,0,1,488.94,513.64Zm-.45,4.89,6.57,0L495,549.05l-6.57,0Z"/><path class="cls-7" d="M507.87,547.73a15.3,15.3,0,0,1-5.68-5.78,17,17,0,0,1,.06-16.24A15.18,15.18,0,0,1,508,520a16.74,16.74,0,0,1,17,.52,15,15,0,0,1,5.64,7l-6.2,2a9.61,9.61,0,0,0-3.37-4,8.78,8.78,0,0,0-5-1.51,8.62,8.62,0,0,0-4.63,1.29,9.31,9.31,0,0,0-3.29,3.55,10.63,10.63,0,0,0-1.23,5.05,10.49,10.49,0,0,0,1.19,5,9.2,9.2,0,0,0,3.27,3.58A8.58,8.58,0,0,0,516,543.8a8.89,8.89,0,0,0,5-1.47,9.77,9.77,0,0,0,3.4-4l6.19,2.07a15.35,15.35,0,0,1-5.73,7,16.68,16.68,0,0,1-17,.4Z"/><path class="cls-7" d="M557.46,520.21a14.78,14.78,0,0,1,5.68,5.82,16.7,16.7,0,0,1,2,8.28l-24.87,3.5a9.1,9.1,0,0,0,3.49,4.45,9.64,9.64,0,0,0,5.48,1.66,9.88,9.88,0,0,0,5.4-1.5,9.38,9.38,0,0,0,3.54-4.17l6,2.07a15.65,15.65,0,0,1-5.92,7,16.85,16.85,0,0,1-17.26.49,15.32,15.32,0,0,1-5.77-5.78,16.54,16.54,0,0,1,0-16.15,15.63,15.63,0,0,1,5.79-5.71,16.91,16.91,0,0,1,16.36.06Zm-14.68,6.14a9.77,9.77,0,0,0-3.09,6.13l18-2.41q-1.9-6-8.41-6.05A9.24,9.24,0,0,0,542.78,526.35Z"/><path class="cls-7" d="M605.78,520.45a14.77,14.77,0,0,1,5.27,5.75,17.69,17.69,0,0,1,0,16,14.79,14.79,0,0,1-5.32,5.71,14,14,0,0,1-7.6,2.08,12.44,12.44,0,0,1-5.92-1.38,12.18,12.18,0,0,1-4.29-3.86l0,4.59-6.38,0,.16-43.38,6.57,0-.07,17.23a12.2,12.2,0,0,1,4.29-3.64,12.46,12.46,0,0,1,5.77-1.28A14,14,0,0,1,605.78,520.45Zm-4.08,22.26a8.74,8.74,0,0,0,3.29-3.52,11.14,11.14,0,0,0,0-10,8.74,8.74,0,0,0-3.27-3.54,8.88,8.88,0,0,0-4.64-1.29,9.15,9.15,0,0,0-4.53,1.16,8.85,8.85,0,0,0-3.39,3.37,10.14,10.14,0,0,0-1.29,5.23,10.28,10.28,0,0,0,1.22,5.09,9,9,0,0,0,3.33,3.48,9.16,9.16,0,0,0,9.24,0Z"/><path class="cls-7" d="M635.07,518.57l0,6a14.83,14.83,0,0,0-2.3-.19,7.58,7.58,0,0,0-5.83,2.3,9.13,9.13,0,0,0-2.19,6.47l-.06,16.36-6.57,0,.11-30.5,6.44,0v4.58a8.2,8.2,0,0,1,3.36-3.8,9.82,9.82,0,0,1,5.21-1.37A9.63,9.63,0,0,1,635.07,518.57Z"/><path class="cls-7" d="M660.66,520.58a15,15,0,0,1,5.68,5.82,16.7,16.7,0,0,1,2,8.28l-24.87,3.51a9.08,9.08,0,0,0,3.49,4.44,10.14,10.14,0,0,0,10.87.16,9.24,9.24,0,0,0,3.55-4.17l6,2.07a15.69,15.69,0,0,1-5.91,7,16.89,16.89,0,0,1-17.26.5,15.52,15.52,0,0,1-5.78-5.79,16.56,16.56,0,0,1,.06-16.14,15.51,15.51,0,0,1,5.79-5.72,17,17,0,0,1,16.36.06ZM646,526.73a9.72,9.72,0,0,0-3.09,6.12l18-2.41q-1.89-6-8.41-6A9.18,9.18,0,0,0,646,526.73Z"/><path class="cls-7" d="M703,519.31l-.12,30.49-6.38,0,0-4.59A12.17,12.17,0,0,1,692.2,549a12.46,12.46,0,0,1-5.93,1.34,14.06,14.06,0,0,1-7.58-2.13,14.72,14.72,0,0,1-5.28-5.75,17.75,17.75,0,0,1,.06-16.06,14.78,14.78,0,0,1,5.32-5.71,14,14,0,0,1,7.6-2.08A12.4,12.4,0,0,1,692.3,520a12.26,12.26,0,0,1,4.3,3.85v-4.58Zm-11.06,23.76a9,9,0,0,0,3.36-3.46,11.23,11.23,0,0,0,0-10.32,8.92,8.92,0,0,0-3.37-3.39,9.06,9.06,0,0,0-4.52-1.19,8.8,8.8,0,0,0-7.95,4.77,11.14,11.14,0,0,0,0,10,8.84,8.84,0,0,0,7.92,4.83A8.87,8.87,0,0,0,691.94,543.07Z"/><path class="cls-7" d="M738.34,549.93l-8.43,0-13.7-16.47-.06,16.42-6.57,0,.16-43.39,6.57,0-.1,26.83,13.07-13.89,8.11,0-13.25,13.84Z"/><path class="cls-7" d="M762.18,521a14.85,14.85,0,0,1,5.68,5.82,16.7,16.7,0,0,1,2,8.28L745,538.55A9.06,9.06,0,0,0,748.5,543a10.14,10.14,0,0,0,10.87.16,9.34,9.34,0,0,0,3.55-4.17l6,2.07a15.71,15.71,0,0,1-5.92,7,16.85,16.85,0,0,1-17.26.49,15.42,15.42,0,0,1-5.78-5.78A16.58,16.58,0,0,1,740,526.6a15.55,15.55,0,0,1,5.79-5.71,16.91,16.91,0,0,1,16.36.06ZM747.5,527.1a9.72,9.72,0,0,0-3.09,6.12l18-2.41q-1.89-6-8.41-6A9.19,9.19,0,0,0,747.5,527.1Z"/><path class="cls-7" d="M791.44,519.13l0,6a14.89,14.89,0,0,0-2.29-.2,7.57,7.57,0,0,0-5.84,2.31,9.12,9.12,0,0,0-2.19,6.46L781,550.09l-6.57,0,.11-30.49,6.45,0,0,4.59a8.21,8.21,0,0,1,3.36-3.8,9.92,9.92,0,0,1,5.21-1.38A11.39,11.39,0,0,1,791.44,519.13Z"/><path class="cls-4" d="M396,217.31a14.18,14.18,0,0,1,5.08,5.55,17,17,0,0,1-.05,15.46,14.26,14.26,0,0,1-5.13,5.51,13.47,13.47,0,0,1-7.32,2,11.93,11.93,0,0,1-5.7-1.33,11.69,11.69,0,0,1-4.14-3.72v4.42l-6.15,0,.15-41.81,6.33,0L379,220a11.7,11.7,0,0,1,4.13-3.51,12,12,0,0,1,5.56-1.23A13.56,13.56,0,0,1,396,217.31Zm-3.93,21.46a8.46,8.46,0,0,0,3.18-3.39,10.76,10.76,0,0,0,0-9.62,8.46,8.46,0,0,0-3.15-3.42,8.55,8.55,0,0,0-4.48-1.24,8.88,8.88,0,0,0-4.36,1.12,8.57,8.57,0,0,0-3.27,3.25,10.81,10.81,0,0,0-.06,9.94,8.73,8.73,0,0,0,12.11,3.36Z"/><path class="cls-4" d="M429.88,217.38a14.36,14.36,0,0,1,5.47,5.6,16.09,16.09,0,0,1,1.94,8l-24,3.38a8.73,8.73,0,0,0,3.36,4.28,9.8,9.8,0,0,0,10.48.16,9,9,0,0,0,3.42-4l5.79,2a15.13,15.13,0,0,1-5.7,6.73,16.26,16.26,0,0,1-16.63.47,14.75,14.75,0,0,1-5.57-5.57,15.92,15.92,0,0,1,.06-15.56,14.92,14.92,0,0,1,5.57-5.5,16.33,16.33,0,0,1,15.77.06Zm-14.15,5.92a9.35,9.35,0,0,0-3,5.9l17.32-2.33q-1.83-5.79-8.1-5.82A8.87,8.87,0,0,0,415.73,223.3Z"/><path class="cls-4" d="M470.67,216.15l-.11,29.38-6.15,0,0-4.42a11.74,11.74,0,0,1-4.16,3.69,12,12,0,0,1-5.71,1.29,13.46,13.46,0,0,1-7.31-2.06,14.17,14.17,0,0,1-5.09-5.54,17.1,17.1,0,0,1,.06-15.47,14.16,14.16,0,0,1,5.13-5.5,13.47,13.47,0,0,1,7.32-2,11.93,11.93,0,0,1,5.7,1.33,11.57,11.57,0,0,1,4.13,3.72l0-4.42ZM460,239a8.79,8.79,0,0,0,3.24-3.33,10.81,10.81,0,0,0,0-9.94A8.49,8.49,0,0,0,460,222.5a8.85,8.85,0,0,0-4.36-1.15,8.58,8.58,0,0,0-4.48,1.21A8.39,8.39,0,0,0,448,226a10.76,10.76,0,0,0,0,9.62A8.67,8.67,0,0,0,460,239Z"/><path class="cls-4" d="M503.58,216.27l-.11,29.38-6.09,0,0-4.9a9.63,9.63,0,0,1-4,4.05,12,12,0,0,1-5.86,1.41,10.67,10.67,0,0,1-7.81-2.83q-2.85-2.82-2.84-8l.07-19.23,6.33,0-.06,17.31q0,6.63,6.13,6.66a7.4,7.4,0,0,0,5.59-2.34,9.12,9.12,0,0,0,2.26-6.53l.06-15.05Z"/><path class="cls-4" d="M528,216.36l0,5.13-9.13,0-.06,15.47a3.47,3.47,0,0,0,1.07,2.78,4.24,4.24,0,0,0,2.86.94,9.84,9.84,0,0,0,4.42-1.06l0,5.61a11,11,0,0,1-2.54.77,15.28,15.28,0,0,1-2.78.29c-3.18,0-5.54-.79-7.07-2.33s-2.28-3.88-2.27-7l.06-15.47-4.24,0v-5.13h4.24l0-7.22,6.35-4.82,0,12.07Z"/><path class="cls-4" d="M533,211.66a3.77,3.77,0,0,1-1.12-2.75,3.86,3.86,0,0,1,3.9-3.87,3.86,3.86,0,0,1,3.86,3.89,3.89,3.89,0,0,1-6.64,2.73Zm-.43,4.72,6.33,0-.11,29.38-6.33,0Z"/><path class="cls-4" d="M547.75,221.56h-4.24l0-5.13h4.24v-3.94c0-3.15.79-5.48,2.33-7s3.9-2.29,7.08-2.27a14.51,14.51,0,0,1,2.78.3,11.31,11.31,0,0,1,2.53.79l0,5.61a9.84,9.84,0,0,0-4.41-1.09,4.23,4.23,0,0,0-2.87.92,3.47,3.47,0,0,0-1.09,2.77v3.94l8.36,0,0,5.14-8.36,0L554,245.83l-6.33,0Z"/><path class="cls-4" d="M593.21,216.6l-.1,29.38L587,246v-4.89a9.53,9.53,0,0,1-4,4,12.12,12.12,0,0,1-5.86,1.42,10.72,10.72,0,0,1-7.81-2.84c-1.91-1.88-2.85-4.53-2.84-8l.07-19.23,6.33,0-.06,17.32q0,6.63,6.12,6.65a7.39,7.39,0,0,0,5.6-2.34,9.1,9.1,0,0,0,2.26-6.53l0-15.05Z"/><path class="cls-4" d="M599.71,204.2l6.33,0-.15,41.8-6.33,0Z"/><path class="cls-1" d="M279.66,511a4.25,4.25,0,1,1,7.27-3,4.25,4.25,0,0,1-4.27,4.24A4.1,4.1,0,0,1,279.66,511Zm-.48,5.16,6.93,0L286,548.29l-6.92,0Z"/><path class="cls-1" d="M324.73,502.67l-.17,45.76-6.73,0,0-4.84a12.86,12.86,0,0,1-4.56,4A13.12,13.12,0,0,1,307,549a14.82,14.82,0,0,1-8-2.25,15.65,15.65,0,0,1-5.57-6.06,18.71,18.71,0,0,1,.07-16.93,15.53,15.53,0,0,1,5.61-6,14.84,14.84,0,0,1,8-2.2,13.22,13.22,0,0,1,6.08,1.4,12.73,12.73,0,0,1,4.49,3.87l.07-18.17ZM313,541.33a9.53,9.53,0,0,0,3.54-3.64,11.85,11.85,0,0,0,0-10.89,9.39,9.39,0,0,0-3.55-3.58,9.6,9.6,0,0,0-4.77-1.25,9.29,9.29,0,0,0-8.39,5,11.76,11.76,0,0,0,0,10.53,9.49,9.49,0,0,0,13.19,3.8Z"/><path class="cls-1" d="M355.73,517.89a15.76,15.76,0,0,1,6,6.13,17.59,17.59,0,0,1,2.12,8.74l-26.23,3.69a9.56,9.56,0,0,0,3.68,4.69,10.72,10.72,0,0,0,11.47.17,9.85,9.85,0,0,0,3.75-4.4l6.33,2.19a16.56,16.56,0,0,1-6.24,7.36,17.82,17.82,0,0,1-18.21.52,16.28,16.28,0,0,1-6.09-6.1,16.76,16.76,0,0,1-2.19-8.51,16.57,16.57,0,0,1,2.26-8.52,16.32,16.32,0,0,1,6.1-6,16.87,16.87,0,0,1,8.63-2.2A17.09,17.09,0,0,1,355.73,517.89Zm-15.49,6.48a10.3,10.3,0,0,0-3.26,6.46l19-2.55q-2-6.35-8.87-6.37A9.74,9.74,0,0,0,340.24,524.37Z"/><path class="cls-1" d="M400.38,516.55l-.12,32.16-6.73,0,0-4.83a12.93,12.93,0,0,1-4.56,4,13.15,13.15,0,0,1-6.25,1.42,14.82,14.82,0,0,1-8-2.25,15.61,15.61,0,0,1-5.57-6.07,18.75,18.75,0,0,1,.06-16.93,15.6,15.6,0,0,1,5.61-6,14.87,14.87,0,0,1,8-2.19,13.12,13.12,0,0,1,6.24,1.46,13,13,0,0,1,4.53,4.07l0-4.84Zm-11.66,25.06a9.63,9.63,0,0,0,3.54-3.65,10.87,10.87,0,0,0,1.33-5.36,11.06,11.06,0,0,0-1.32-5.53,9.3,9.3,0,0,0-3.55-3.57,9.72,9.72,0,0,0-4.77-1.26,9.27,9.27,0,0,0-8.39,5,11.78,11.78,0,0,0,0,10.52,9.31,9.31,0,0,0,8.35,5.1A9.52,9.52,0,0,0,388.72,541.61Z"/><path class="cls-1" d="M410.46,547.7a12,12,0,0,1-5.66-5.77l5-3.38a9.61,9.61,0,0,0,3.71,3.57,10.94,10.94,0,0,0,5.55,1.49,7.2,7.2,0,0,0,4.25-1.06,3.38,3.38,0,0,0,1.52-2.9,2.8,2.8,0,0,0-1.37-2.43,14.22,14.22,0,0,0-4.11-1.65l-3.33-.86q-5.29-1.4-7.63-3.69a7.35,7.35,0,0,1-2.34-5.5,8.87,8.87,0,0,1,1.46-4.86,10,10,0,0,1,4.23-3.58,15.23,15.23,0,0,1,6.7-1.32,15.76,15.76,0,0,1,8.13,2,12.1,12.1,0,0,1,4.79,4.83L426,525.92a8.5,8.5,0,0,0-3.16-3.08,9.3,9.3,0,0,0-4.67-1.2,5.91,5.91,0,0,0-3.7,1,3.1,3.1,0,0,0-1.28,2.52,2.53,2.53,0,0,0,1.33,2.26A16,16,0,0,0,418.7,529l3.59.93q4.9,1.26,7.18,3.52a7.77,7.77,0,0,1,2.27,5.79,9.26,9.26,0,0,1-1.69,5.49,10.88,10.88,0,0,1-4.59,3.64,15.57,15.57,0,0,1-6.51,1.28A19,19,0,0,1,410.46,547.7Z"/><path class="cls-8" d="M1086.89,373.22a15.3,15.3,0,0,1,6-5.84,17.27,17.27,0,0,1,8.51-2.07l3.6,25.55a9.35,9.35,0,0,0,4.56-3.58,9.76,9.76,0,0,0,1.71-5.63,10,10,0,0,0-1.54-5.55,9.59,9.59,0,0,0-4.28-3.64l2.12-6.17a16,16,0,0,1,7.18,6.08,17.31,17.31,0,0,1,.5,17.73,15.73,15.73,0,0,1-5.94,5.93,16.94,16.94,0,0,1-16.59-.06,15.91,15.91,0,0,1-5.86-5.94,17.36,17.36,0,0,1,.06-16.81Zm6.31,15.08a10,10,0,0,0,6.29,3.18L1097,373q-6.18,2-6.21,8.64A9.47,9.47,0,0,0,1093.2,388.3Z"/><path class="cls-8" d="M1116.9,331.11l0,8-11.23,8.11,11.17,8.26,0,8-16-11.65-15.32,11,0-7.89,10.53-7.73-10.48-7.74,0-7.9,15.31,11.26Z"/><path class="cls-8" d="M1115.53,322.86a15.64,15.64,0,0,1-5.94,5.84,17.39,17.39,0,0,1-16.68-.06,15.64,15.64,0,0,1-5.9-5.88,17.17,17.17,0,0,1,.54-17.51,15.32,15.32,0,0,1,7.18-5.8l2.08,6.38a9.91,9.91,0,0,0-4.15,3.45,9,9,0,0,0-1.55,5.19,8.65,8.65,0,0,0,1.32,4.74,9.47,9.47,0,0,0,3.65,3.39,11.48,11.48,0,0,0,10.38,0,9.53,9.53,0,0,0,3.67-3.36,8.77,8.77,0,0,0,1.36-4.74,9.15,9.15,0,0,0-1.51-5.2,9.92,9.92,0,0,0-4.13-3.48l2.13-6.36a15.81,15.81,0,0,1,7.14,5.88,16.14,16.14,0,0,1,2.61,9.18A16.34,16.34,0,0,1,1115.53,322.86Z"/><path class="cls-8" d="M1080.68,294.56a4.15,4.15,0,0,1-5.86,0,4.14,4.14,0,1,1,5.86,0Zm5,.47,0-6.75,31.33.11,0,6.75Z"/><path class="cls-8" d="M1085.82,262.3l5.48,0,0,9.74,16.5.06a3.68,3.68,0,0,0,3-1.13,4.58,4.58,0,0,0,1-3.06,10.46,10.46,0,0,0-1.13-4.71l6,0a12.19,12.19,0,0,1,.81,2.71,15.61,15.61,0,0,1,.31,3q0,5.1-2.48,7.54t-7.49,2.42l-16.49-.06,0,4.52-5.47,0v-4.52l-7.7,0-5.13-6.76,12.86,0Z"/><path class="cls-8" d="M1080.81,257a4.14,4.14,0,0,1-5.85,0,4.15,4.15,0,0,1,0-5.86,4,4,0,0,1,2.93-1.2,4.14,4.14,0,0,1,2.9,7.08Zm5,.46,0-6.75,31.32.12,0,6.74Z"/><path class="cls-8" d="M1088.37,218.73q3-3.21,8.51-3.19l20.44.08,0,6.74-18.85-.07q-3.69,0-5.36,1.51t-1.67,4.84a8.42,8.42,0,0,0,2.3,6.18,8.59,8.59,0,0,0,6.39,2.38l17.13.06,0,6.75-31.33-.11,0-6.75,4.53,0a9.83,9.83,0,0,1-3.84-4.19,13.12,13.12,0,0,1-1.29-5.89A11.76,11.76,0,0,1,1088.37,218.73Z"/><path class="cls-8" d="M1086.13,178.7l28.59.1a15.43,15.43,0,0,1,7.66,1.94,13.72,13.72,0,0,1,5.36,5.5,16.65,16.65,0,0,1,2,8.22,18.9,18.9,0,0,1-2.14,9.09,12.88,12.88,0,0,1-5.81,5.65l-2.85-5.93a9.11,9.11,0,0,0,3.42-3.49,10.63,10.63,0,0,0,1.33-5.34,8.44,8.44,0,0,0-2.53-6.51,9.25,9.25,0,0,0-6.55-2.38h-2.1a12.09,12.09,0,0,1,3.58,4.32,12.73,12.73,0,0,1,1.29,5.89,14.28,14.28,0,0,1-2.16,7.73,15,15,0,0,1-5.82,5.33,17.69,17.69,0,0,1-16.11-.06,14.85,14.85,0,0,1-5.74-5.37,14.48,14.48,0,0,1-2.07-7.75,13.13,13.13,0,0,1,1.36-6,11.8,11.8,0,0,1,3.77-4.35h-4.46Zm23.74,11.23a9.09,9.09,0,0,0-3.46-3.36,10.23,10.23,0,0,0-5-1.26,9.9,9.9,0,0,0-5.19,1.29,8.79,8.79,0,0,0-3.35,3.39,9.45,9.45,0,0,0,.09,9.27,8.77,8.77,0,0,0,3.46,3.32,10.3,10.3,0,0,0,4.93,1.2,9.74,9.74,0,0,0,7-2.59,8.71,8.71,0,0,0,2.79-6.61A8.93,8.93,0,0,0,1109.87,189.93Z"/><path class="cls-2" d="M24.64,333l0,6.41-11.42,0-.07,19.32a4.38,4.38,0,0,0,1.33,3.48A5.3,5.3,0,0,0,18,363.36,12.12,12.12,0,0,0,23.56,362l0,7a13.36,13.36,0,0,1-3.18,1,17.87,17.87,0,0,1-3.47.36c-4,0-6.92-1-8.82-2.9s-2.86-4.85-2.84-8.78l.07-19.32-5.3,0,0-6.41,5.3,0,0-9,7.93-6,0,15.07Z"/><path class="cls-2" d="M59.8,336q3.75,3.56,3.73,10l-.09,23.95-7.9,0,.07-22.08q0-4.32-1.76-6.27t-5.66-2a9.9,9.9,0,0,0-7.25,2.69,10,10,0,0,0-2.79,7.49l-.07,20.07-7.91,0,.19-52.22,7.91,0-.08,20.81a11.57,11.57,0,0,1,4.91-4.49,15.36,15.36,0,0,1,6.9-1.51A13.77,13.77,0,0,1,59.8,336Z"/><path class="cls-2" d="M78.59,368.32a18.29,18.29,0,0,1-6.91-6.92,20.4,20.4,0,0,1,.07-19.7,18.29,18.29,0,0,1,7-6.87,19.57,19.57,0,0,1,9.86-2.47,19.84,19.84,0,0,1,9.87,2.54,18.26,18.26,0,0,1,7,6.92,20.4,20.4,0,0,1-.07,19.7,18.19,18.19,0,0,1-7,6.87,20.75,20.75,0,0,1-19.73-.07Zm15.57-6.43a11.22,11.22,0,0,0,4.09-4.2,13,13,0,0,0,0-12.09,11.25,11.25,0,0,0-15.46-4.27,10.9,10.9,0,0,0-4,4.2,13.33,13.33,0,0,0,0,12.09,10.81,10.81,0,0,0,4,4.23,11.4,11.4,0,0,0,11.41,0Z"/><path class="cls-2" d="M147.26,333.47l-.13,36.7-7.61,0,0-6.11a12,12,0,0,1-5,5.05,15,15,0,0,1-7.32,1.77c-4.12,0-7.38-1.2-9.75-3.55s-3.57-5.65-3.55-9.93l.09-24,7.9,0L121.83,355q0,8.28,7.65,8.31a9.21,9.21,0,0,0,7-2.92q2.82-2.94,2.83-8.16l.07-18.8Z"/><path class="cls-2" d="M191,333.63l-.13,33.49a18,18,0,0,1-2.27,9,16.07,16.07,0,0,1-6.43,6.28,19.64,19.64,0,0,1-9.63,2.28,22.06,22.06,0,0,1-10.66-2.5,15.11,15.11,0,0,1-6.62-6.81l6.95-3.33a10.7,10.7,0,0,0,4.09,4,12.31,12.31,0,0,0,6.26,1.55,9.84,9.84,0,0,0,7.62-2.95A10.86,10.86,0,0,0,183,367v-2.47a14.27,14.27,0,0,1-5.05,4.2,15.1,15.1,0,0,1-6.91,1.5,16.64,16.64,0,0,1-9.05-2.53,17.38,17.38,0,0,1-6.24-6.81,20.7,20.7,0,0,1,.07-18.87,17.22,17.22,0,0,1,6.29-6.73,16.9,16.9,0,0,1,9.07-2.43,15.3,15.3,0,0,1,7,1.6,13.79,13.79,0,0,1,5.09,4.41l0-5.22Zm-13.16,27.81a10.56,10.56,0,0,0,3.93-4.05,11.86,11.86,0,0,0,1.48-5.88,11.71,11.71,0,0,0-1.51-6.09,10.35,10.35,0,0,0-4-3.93,10.9,10.9,0,0,0-5.29-1.36,10.58,10.58,0,0,0-5.56,1.47,10.31,10.31,0,0,0-3.89,4,11.91,11.91,0,0,0-1.4,5.78,11.37,11.37,0,0,0,3,8.18,10.18,10.18,0,0,0,7.74,3.27A10.41,10.41,0,0,0,177.82,361.44Z"/><path class="cls-2" d="M228.52,336.56q3.75,3.57,3.73,10l-.08,23.94-7.91,0,.08-22.08q0-4.32-1.77-6.27t-5.66-2a9.88,9.88,0,0,0-7.25,2.7,10.06,10.06,0,0,0-2.78,7.48l-.08,20.07-7.9,0,.19-52.22,7.9,0L206.92,339a11.54,11.54,0,0,1,4.9-4.49,15.53,15.53,0,0,1,6.91-1.51A13.76,13.76,0,0,1,228.52,336.56Z"/><path class="cls-2" d="M260.2,333.88l0,6.42-11.41-.05-.07,19.32a4.33,4.33,0,0,0,1.33,3.48,5.33,5.33,0,0,0,3.58,1.17,12.38,12.38,0,0,0,5.52-1.32l0,7a13.87,13.87,0,0,1-3.18.95,17.19,17.19,0,0,1-3.47.36q-6,0-8.83-2.9c-1.9-1.92-2.85-4.85-2.84-8.77l.07-19.32-5.29,0,0-6.42,5.3,0,0-9,7.93-6-.06,15.07Z"/><path class="cls-2" d="M269,369.42a13.63,13.63,0,0,1-6.47-6.59l5.69-3.86a10.89,10.89,0,0,0,4.23,4.08,12.48,12.48,0,0,0,6.34,1.71,8.26,8.26,0,0,0,4.85-1.22,3.88,3.88,0,0,0,1.73-3.31,3.21,3.21,0,0,0-1.56-2.77,16.26,16.26,0,0,0-4.69-1.88l-3.8-1q-6-1.59-8.71-4.21a8.42,8.42,0,0,1-2.67-6.28,10.18,10.18,0,0,1,1.66-5.55,11.38,11.38,0,0,1,4.83-4.08,17.52,17.52,0,0,1,7.65-1.5,18,18,0,0,1,9.28,2.3,13.91,13.91,0,0,1,5.46,5.51l-6.13,3.78a9.66,9.66,0,0,0-3.6-3.52,10.61,10.61,0,0,0-5.33-1.36,6.61,6.61,0,0,0-4.22,1.14,3.53,3.53,0,0,0-1.46,2.87,2.86,2.86,0,0,0,1.51,2.57,18.22,18.22,0,0,0,4.81,1.78l4.1,1.05q5.58,1.44,8.19,4a8.87,8.87,0,0,1,2.59,6.61,10.57,10.57,0,0,1-1.93,6.26,12.46,12.46,0,0,1-5.24,4.15,17.81,17.81,0,0,1-7.42,1.47A21.69,21.69,0,0,1,269,369.42Z"/><path class="cls-4" d="M1163.4,448.63l26.51.1,0,5.55h-4a10.66,10.66,0,0,1,3.33,3.75,10.86,10.86,0,0,1,1.16,5.15,12.14,12.14,0,0,1-1.85,6.6,13,13,0,0,1-5,4.59,15.46,15.46,0,0,1-14-.05,12.89,12.89,0,0,1-5-4.63,12.22,12.22,0,0,1-1.8-6.61,10.69,10.69,0,0,1,1.2-5.14,10.58,10.58,0,0,1,3.35-3.73l-4,0Zm20.65,9.62a7.73,7.73,0,0,0-3-2.92,9.73,9.73,0,0,0-9,0,7.69,7.69,0,0,0-2.95,2.93,7.8,7.8,0,0,0-1,3.93,7.66,7.66,0,0,0,4.15,6.91,9.7,9.7,0,0,0,8.68,0,7.81,7.81,0,0,0,3.13-10.87Z"/><path class="cls-4" d="M1165.52,421.51a9.38,9.38,0,0,1,7.2-2.7l17.3.07,0,5.71-16-.06a6.55,6.55,0,0,0-4.54,1.28,5.37,5.37,0,0,0-1.41,4.09,7.09,7.09,0,0,0,2,5.23,7.24,7.24,0,0,0,5.41,2l14.49.05,0,5.71-26.51-.1,0-5.71,3.82,0a8.35,8.35,0,0,1-3.24-3.55,11,11,0,0,1-1.09-5A9.9,9.9,0,0,1,1165.52,421.51Z"/><path class="cls-4" d="M1188.9,407.94a13.24,13.24,0,0,1-5,5,14.71,14.71,0,0,1-14.23-.05,13.26,13.26,0,0,1-5-5,14.93,14.93,0,0,1,.06-14.25,13.11,13.11,0,0,1,5-5,14.69,14.69,0,0,1,14.22.05,13.2,13.2,0,0,1,5,5.06,14.33,14.33,0,0,1,1.78,7.14A14.17,14.17,0,0,1,1188.9,407.94Zm-4.65-11.25a7.88,7.88,0,0,0-3-2.95,8.83,8.83,0,0,0-4.37-1.09,8.69,8.69,0,0,0-4.36,1.06,8.13,8.13,0,0,0-3.09,11.17,7.83,7.83,0,0,0,3,2.92,9.56,9.56,0,0,0,8.73,0,7.81,7.81,0,0,0,3-2.9,8.23,8.23,0,0,0,0-8.24Z"/><path class="cls-4" d="M1165.73,360.89a9.45,9.45,0,0,1,7.21-2.69l17.3.06,0,5.71-16-.06c-2.09,0-3.6.42-4.54,1.28a5.33,5.33,0,0,0-1.41,4.09,7.12,7.12,0,0,0,2,5.24,7.27,7.27,0,0,0,5.4,2l14.5.05,0,5.71-26.51-.09,0-5.71h3.82a8.39,8.39,0,0,1-3.24-3.54,11.07,11.07,0,0,1-1.09-5A9.94,9.94,0,0,1,1165.73,360.89Z"/><path class="cls-4" d="M1163.81,335.32l0-6L1200,340l0,5.93-9.69-2.84,0,5.17-26.54,7.61,0-5.93,25.46-7.18Z"/><path class="cls-4" d="M1165.8,290q2.39-2.42,6.8-2.4l17.89.06,0,5.71-16.92-.06a5.34,5.34,0,0,0-3.78,1.12,4.47,4.47,0,0,0-1.19,3.39,5.66,5.66,0,0,0,1.73,4.1,6.42,6.42,0,0,0,4.77,1.8l15.35,0,0,5.71-16.92-.06a5.34,5.34,0,0,0-3.77,1.12,4.43,4.43,0,0,0-1.2,3.39,5.59,5.59,0,0,0,1.76,4.13,6.56,6.56,0,0,0,4.79,1.77l15.3.05,0,5.72-26.51-.1,0-5.71h3.61a7.61,7.61,0,0,1-3.08-3.08,9.45,9.45,0,0,1,.19-9,7,7,0,0,1,3.59-2.93,10.13,10.13,0,0,1-3.51-3.59,9.63,9.63,0,0,1-1.25-4.94A8.66,8.66,0,0,1,1165.8,290Z"/><path class="cls-4" d="M1189.37,276.73a13.17,13.17,0,0,1-5,5,14.71,14.71,0,0,1-14.23-.05,13.17,13.17,0,0,1-5-5,14.06,14.06,0,0,1-1.78-7.11,14.31,14.31,0,0,1,1.83-7.14,13.24,13.24,0,0,1,5-5,14.78,14.78,0,0,1,14.23.05,13.18,13.18,0,0,1,5,5.06,15,15,0,0,1-.05,14.25Zm-4.64-11.25a8.13,8.13,0,0,0-3-3,9.4,9.4,0,0,0-8.73,0,8,8,0,0,0-3,2.93,8.23,8.23,0,0,0,0,8.24,7.74,7.74,0,0,0,3,2.92,9.14,9.14,0,0,0,4.36,1.07,9,9,0,0,0,4.37-1,7.82,7.82,0,0,0,4.17-7A7.89,7.89,0,0,0,1184.73,265.48Z"/><path class="cls-4" d="M1164.2,227.12l26.51.09,0,5.5h-4.42a8.61,8.61,0,0,1,3.65,3.62,10.86,10.86,0,0,1,1.28,5.28,8.88,8.88,0,0,1-9.74,9.61l-17.35-.06,0-5.71,15.63.06q6,0,6-5.53a6.67,6.67,0,0,0-2.11-5.05,8.23,8.23,0,0,0-5.89-2l-13.58,0Z"/><path class="cls-4" d="M1189.88,218.81a9.9,9.9,0,0,1-4.76,4.67l-2.79-4.11a7.92,7.92,0,0,0,3-3.06,9.07,9.07,0,0,0,1.23-4.57,6,6,0,0,0-.88-3.51,2.8,2.8,0,0,0-2.39-1.25,2.3,2.3,0,0,0-2,1.13,11.68,11.68,0,0,0-1.36,3.39l-.71,2.74a14.1,14.1,0,0,1-3,6.3,6.13,6.13,0,0,1-4.53,1.92,7.38,7.38,0,0,1-4-1.2,8.24,8.24,0,0,1-2.95-3.49,12.58,12.58,0,0,1-1.09-5.52,13,13,0,0,1,1.67-6.71,9.94,9.94,0,0,1,4-3.94l2.73,4.43a6.92,6.92,0,0,0-2.55,2.6,7.68,7.68,0,0,0-1,3.85,4.88,4.88,0,0,0,.82,3.05,2.6,2.6,0,0,0,2.08,1.06,2.09,2.09,0,0,0,1.86-1.1,13.24,13.24,0,0,0,1.28-3.47l.76-3a12.84,12.84,0,0,1,2.91-5.91,6.39,6.39,0,0,1,4.77-1.87,7.62,7.62,0,0,1,4.52,1.39,9,9,0,0,1,3,3.78,13.1,13.1,0,0,1,1.06,5.37A15.68,15.68,0,0,1,1189.88,218.81Z"/><path class="cls-1" d="M145,285.89a8.54,8.54,0,0,1,3.32-3,10.23,10.23,0,0,1,9.25,0,8.49,8.49,0,0,1,3.3,3.07,8.19,8.19,0,0,1,1.2,4.38,7.28,7.28,0,0,1-.76,3.32,7.08,7.08,0,0,1-2.09,2.46l8.9,0v3.79l-24-.09,0-3.68h2.64a7,7,0,0,1-2.2-2.49,7.12,7.12,0,0,1-.78-3.41A8.21,8.21,0,0,1,145,285.89Zm12.84,2.35a5,5,0,0,0-2-1.9,6.3,6.3,0,0,0-2.87-.69,6.17,6.17,0,0,0-2.88.67,5.19,5.19,0,0,0-.09,9.15,5.89,5.89,0,0,0,2.93.72,5.82,5.82,0,0,0,3-.72,5.08,5.08,0,0,0,2-1.94,5.28,5.28,0,0,0,.68-2.6A5,5,0,0,0,157.79,288.24Z"/><path class="cls-1" d="M143.87,269l3.47,0a9.11,9.11,0,0,0-.12,1.32,4.38,4.38,0,0,0,1.33,3.36,5.28,5.28,0,0,0,3.73,1.27l9.44,0,0,3.79-17.58-.07V275h2.65a4.74,4.74,0,0,1-2.19-1.94,5.61,5.61,0,0,1-.8-3A6.61,6.61,0,0,1,143.87,269Z"/><path class="cls-1" d="M145,254.25a8.72,8.72,0,0,1,3.35-3.28,9.8,9.8,0,0,1,4.78-1.16l2,14.34a5.2,5.2,0,0,0,2.56-2,5.48,5.48,0,0,0,1-3.16,5.56,5.56,0,0,0-.86-3.11,5.43,5.43,0,0,0-2.41-2.05l1.19-3.46a9,9,0,0,1,4,3.41,9.68,9.68,0,0,1,.28,10,8.73,8.73,0,0,1-3.33,3.33,9.53,9.53,0,0,1-9.31,0,8.87,8.87,0,0,1-3.29-3.34,9.16,9.16,0,0,1-1.2-4.72A9.34,9.34,0,0,1,145,254.25Zm3.54,8.46a5.63,5.63,0,0,0,3.54,1.79l-1.4-10.37a4.63,4.63,0,0,0-3.48,4.84A5.29,5.29,0,0,0,148.57,262.71Z"/><path class="cls-1" d="M161.25,245.55a6.5,6.5,0,0,1-3.15,3.1l-1.85-2.72a5.31,5.31,0,0,0,1.95-2,6,6,0,0,0,.82-3,4,4,0,0,0-.58-2.32,1.87,1.87,0,0,0-1.59-.83,1.54,1.54,0,0,0-1.33.75,8,8,0,0,0-.9,2.25l-.47,1.82a9.36,9.36,0,0,1-2,4.17,4,4,0,0,1-3,1.28,4.88,4.88,0,0,1-2.66-.8,5.54,5.54,0,0,1-2-2.31,9.56,9.56,0,0,1,.39-8.11,6.6,6.6,0,0,1,2.63-2.62l1.82,2.94a4.58,4.58,0,0,0-1.69,1.72,5.07,5.07,0,0,0-.65,2.56,3.2,3.2,0,0,0,.54,2,1.71,1.71,0,0,0,1.38.7,1.38,1.38,0,0,0,1.23-.73,8.35,8.35,0,0,0,.85-2.3l.51-2a8.58,8.58,0,0,1,1.92-3.93,4.3,4.3,0,0,1,3.17-1.24,5.11,5.11,0,0,1,3,.93,5.92,5.92,0,0,1,2,2.5,8.57,8.57,0,0,1,.7,3.56A10.24,10.24,0,0,1,161.25,245.55Z"/><path class="cls-1" d="M145.16,218.09a8.61,8.61,0,0,1,3.36-3.28,9.63,9.63,0,0,1,4.77-1.16l2,14.34a5.2,5.2,0,0,0,2.56-2,5.5,5.5,0,0,0,1-3.16,5.59,5.59,0,0,0-.86-3.12,5.42,5.42,0,0,0-2.41-2l1.19-3.46a9,9,0,0,1,4,3.41,9.72,9.72,0,0,1,.29,9.95,8.83,8.83,0,0,1-3.34,3.33,9.53,9.53,0,0,1-9.31,0,8.94,8.94,0,0,1-3.29-3.34,9.19,9.19,0,0,1-1.2-4.72A9.34,9.34,0,0,1,145.16,218.09Zm3.55,8.46a5.57,5.57,0,0,0,3.53,1.78L150.84,218a4.64,4.64,0,0,0-3.48,4.85A5.26,5.26,0,0,0,148.71,226.55Z"/><path class="cls-1" d="M145.76,196.81a6.21,6.21,0,0,1,4.77-1.79l11.48,0,0,3.79-10.58,0a4.35,4.35,0,0,0-3,.85,3.52,3.52,0,0,0-.94,2.71,4.72,4.72,0,0,0,1.29,3.47,4.82,4.82,0,0,0,3.59,1.34l9.61,0V211l-17.58-.06v-3.79h2.54a5.63,5.63,0,0,1-2.16-2.35,7.48,7.48,0,0,1-.72-3.31A6.57,6.57,0,0,1,145.76,196.81Z"/><path class="cls-1" d="M144.47,181.64h3.08l0,5.46,9.25,0a2.1,2.1,0,0,0,1.67-.64,2.58,2.58,0,0,0,.56-1.71,5.84,5.84,0,0,0-.64-2.65h3.36a6.87,6.87,0,0,1,.46,1.52,8.58,8.58,0,0,1,.17,1.66,4.91,4.91,0,0,1-5.59,5.6l-9.26,0v2.54h-3.07v-2.54h-4.33l-2.88-3.8,7.22,0Z"/><path class="cls-1" d="M144.54,162.52l17.58.06v3.68h-2.64a7,7,0,0,1,2.2,2.49,7.25,7.25,0,0,1,.78,3.42,8.15,8.15,0,0,1-1.23,4.37,8.54,8.54,0,0,1-3.32,3,10.17,10.17,0,0,1-9.26,0,8.39,8.39,0,0,1-3.29-3.07,8,8,0,0,1-1.2-4.38,6.87,6.87,0,0,1,3-5.88h-2.64Zm13.7,6.37a5.13,5.13,0,0,0-2-1.93,5.92,5.92,0,0,0-2.93-.73,6,6,0,0,0-3,.72,5.15,5.15,0,0,0-2,1.94,5.41,5.41,0,0,0-.69,2.61,5.07,5.07,0,0,0,.73,2.68,5,5,0,0,0,2,1.9,6,6,0,0,0,2.87.69,6.17,6.17,0,0,0,2.88-.67,5.09,5.09,0,0,0,2.79-4.56A5.21,5.21,0,0,0,158.24,168.89Z"/><path class="cls-1" d="M144.59,147.9h3.08l0,5.47,9.25,0a2.08,2.08,0,0,0,1.67-.63,2.59,2.59,0,0,0,.56-1.72,5.83,5.83,0,0,0-.64-2.64h3.36a6.55,6.55,0,0,1,.46,1.52,7.86,7.86,0,0,1,.17,1.66,5.73,5.73,0,0,1-1.39,4.23,5.67,5.67,0,0,1-4.2,1.36l-9.26,0v2.53h-3.07v-2.53l-4.32,0-2.88-3.8,7.21,0Z"/><path class="cls-1" d="M141.78,144.92a2.2,2.2,0,0,1-1.64.68,2.32,2.32,0,0,1-1.63-4,2.2,2.2,0,0,1,1.64-.67,2.31,2.31,0,0,1,1.63,4Zm2.82.27,0-3.79,17.58.06v3.79Z"/><path class="cls-1" d="M161.46,134a8.79,8.79,0,0,1-3.32,3.31,9.39,9.39,0,0,1-4.72,1.2,9.25,9.25,0,0,1-4.71-1.24,8.72,8.72,0,0,1-3.3-3.33,9.9,9.9,0,0,1,0-9.45,8.68,8.68,0,0,1,3.31-3.33,9.22,9.22,0,0,1,4.73-1.2,9.34,9.34,0,0,1,4.71,1.23,8.75,8.75,0,0,1,3.29,3.35,10,10,0,0,1,0,9.46Zm-3.08-7.47a5.33,5.33,0,0,0-2-1.95,6.16,6.16,0,0,0-5.78,0,5.25,5.25,0,0,0-2.77,4.67,5.19,5.19,0,0,0,2.73,4.67,6.34,6.34,0,0,0,5.79,0,5.14,5.14,0,0,0,2-1.92,5.23,5.23,0,0,0,.74-2.73A5.37,5.37,0,0,0,158.38,126.49Z"/><path class="cls-1" d="M146.1,102.76a6.21,6.21,0,0,1,4.77-1.79l11.48,0,0,3.79-10.58,0a4.35,4.35,0,0,0-3,.85,3.55,3.55,0,0,0-.94,2.71,4.76,4.76,0,0,0,1.29,3.47,4.84,4.84,0,0,0,3.59,1.34l9.61,0V117l-17.58-.06V113.1h2.54a5.63,5.63,0,0,1-2.16-2.35,7.48,7.48,0,0,1-.72-3.31A6.57,6.57,0,0,1,146.1,102.76Z"/><path class="cls-1" d="M161.79,95.72a6.46,6.46,0,0,1-3.15,3.1l-1.85-2.72a5.38,5.38,0,0,0,2-2,6,6,0,0,0,.82-3,4,4,0,0,0-.58-2.32,1.85,1.85,0,0,0-1.59-.83,1.51,1.51,0,0,0-1.32.75,7.49,7.49,0,0,0-.91,2.24l-.47,1.82a9.4,9.4,0,0,1-2,4.18,4,4,0,0,1-3,1.27,4.89,4.89,0,0,1-2.66-.79,5.54,5.54,0,0,1-2-2.31,8.55,8.55,0,0,1-.72-3.67,8.66,8.66,0,0,1,1.11-4.45,6.6,6.6,0,0,1,2.64-2.61l1.81,2.93A4.68,4.68,0,0,0,148.2,89a5,5,0,0,0-.65,2.56,3.2,3.2,0,0,0,.55,2,1.68,1.68,0,0,0,1.37.7,1.39,1.39,0,0,0,1.24-.73,8.67,8.67,0,0,0,.84-2.3l.51-2A8.49,8.49,0,0,1,154,85.33a4.26,4.26,0,0,1,3.16-1.24,5.08,5.08,0,0,1,3,.92,6,6,0,0,1,2,2.51,8.54,8.54,0,0,1,.71,3.56A10.38,10.38,0,0,1,161.79,95.72Z"/><path class="cls-4" d="M100.31,266.15a12.21,12.21,0,0,1-4.62,4.54,13,13,0,0,1-6.5,1.64,12.83,12.83,0,0,1-6.48-1.69,12.06,12.06,0,0,1-4.59-4.57,13.4,13.4,0,0,1,.42-13.63,12,12,0,0,1,5.59-4.51l1.62,5a7.63,7.63,0,0,0-3.23,2.69,7,7,0,0,0-1.21,4,6.86,6.86,0,0,0,1,3.7A7.45,7.45,0,0,0,85.18,266a8.58,8.58,0,0,0,4,1,8.46,8.46,0,0,0,4-1,7.36,7.36,0,0,0,2.86-2.61,6.85,6.85,0,0,0,1.06-3.69,7.05,7.05,0,0,0-1.18-4,7.75,7.75,0,0,0-3.21-2.71L94.43,248a12.28,12.28,0,0,1,5.56,4.58,13.32,13.32,0,0,1,.32,13.6Z"/><path class="cls-4" d="M100.43,239.67a12.14,12.14,0,0,1-4.6,4.59,12.78,12.78,0,0,1-6.54,1.66,12.91,12.91,0,0,1-6.54-1.71,12.19,12.19,0,0,1-4.56-4.62,13.74,13.74,0,0,1,0-13.11,12,12,0,0,1,4.6-4.61,13.55,13.55,0,0,1,13.07,0,12.15,12.15,0,0,1,4.57,4.65,13.24,13.24,0,0,1,1.64,6.57A13,13,0,0,1,100.43,239.67Zm-4.27-10.35a7.34,7.34,0,0,0-2.79-2.71,8.66,8.66,0,0,0-8,0,7.35,7.35,0,0,0-2.81,2.69,7.58,7.58,0,0,0,0,7.58,7.08,7.08,0,0,0,2.79,2.69,8.81,8.81,0,0,0,8,0,7.08,7.08,0,0,0,2.81-2.67,7.58,7.58,0,0,0,0-7.58Z"/><path class="cls-4" d="M100.54,211a12.14,12.14,0,0,1-4.6,4.59,13.57,13.57,0,0,1-13.08,0,12.1,12.1,0,0,1-4.57-4.63,13,13,0,0,1-1.63-6.54,13.2,13.2,0,0,1,1.68-6.56,12.15,12.15,0,0,1,4.6-4.62,13.53,13.53,0,0,1,13.08,0,12.06,12.06,0,0,1,4.56,4.65,13.75,13.75,0,0,1,0,13.1Zm-4.28-10.34a7.27,7.27,0,0,0-2.79-2.71,8.58,8.58,0,0,0-8,0,7.37,7.37,0,0,0,0,13,8.47,8.47,0,0,0,4,1,8.35,8.35,0,0,0,4-1,7.13,7.13,0,0,0,2.81-2.66,7.35,7.35,0,0,0,1-3.79A7.27,7.27,0,0,0,96.26,200.64Z"/><path class="cls-4" d="M67,187.28,67,182l34.68.12,0,5.26Z"/></svg>